ISO-10303-21;
HEADER;
FILE_DESCRIPTION(('FreeCAD Model'),'2;1');
FILE_NAME('Open CASCADE Shape Model','2026-08-25T08:36:44',('Author'),(
    ''),'Open CASCADE STEP processor 7.8','FreeCAD','Unknown');
FILE_SCHEMA(('AUTOMOTIVE_DESIGN { 1 0 10303 214 1 1 1 1 }'));
ENDSEC;
DATA;
#1 = APPLICATION_PROTOCOL_DEFINITION('international standard',
  'automotive_design',2000,#2);
#2 = APPLICATION_CONTEXT(
  'core data for automotive mechanical design processes');
#3 = SHAPE_DEFINITION_REPRESENTATION(#4,#10);
#4 = PRODUCT_DEFINITION_SHAPE('','',#5);
#5 = PRODUCT_DEFINITION('design','',#6,#9);
#6 = PRODUCT_DEFINITION_FORMATION('','',#7);
#7 = PRODUCT('EduLite_left_shared_bracket','EduLite_left_shared_bracket'
  ,'',(#8));
#8 = PRODUCT_CONTEXT('',#2,'mechanical');
#9 = PRODUCT_DEFINITION_CONTEXT('part definition',#2,'design');
#10 = ADVANCED_BREP_SHAPE_REPRESENTATION('',(#11,#15),#1149);
#11 = AXIS2_PLACEMENT_3D('',#12,#13,#14);
#12 = CARTESIAN_POINT('',(0.,0.,0.));
#13 = DIRECTION('',(0.,0.,1.));
#14 = DIRECTION('',(1.,0.,-0.));
#15 = MANIFOLD_SOLID_BREP('',#16);
#16 = CLOSED_SHELL('',(#17,#89,#208,#239,#358,#477,#508,#691,#708,#725,
    #742,#759,#776,#793,#810,#827,#849,#871,#893,#915,#937,#954,#971,
    #988,#1005,#1022,#1039,#1056,#1073,#1084,#1095,#1106,#1117,#1133));
#17 = ADVANCED_FACE('',(#18),#84,.T.);
#18 = FACE_BOUND('',#19,.T.);
#19 = EDGE_LOOP('',(#20,#30,#38,#46,#54,#62,#70,#78));
#20 = ORIENTED_EDGE('',*,*,#21,.F.);
#21 = EDGE_CURVE('',#22,#24,#26,.T.);
#22 = VERTEX_POINT('',#23);
#23 = CARTESIAN_POINT('',(-8.,4.,-58.));
#24 = VERTEX_POINT('',#25);
#25 = CARTESIAN_POINT('',(-8.,4.,58.));
#26 = LINE('',#27,#28);
#27 = CARTESIAN_POINT('',(-8.,4.,-58.));
#28 = VECTOR('',#29,1.);
#29 = DIRECTION('',(0.,0.,1.));
#30 = ORIENTED_EDGE('',*,*,#31,.T.);
#31 = EDGE_CURVE('',#22,#32,#34,.T.);
#32 = VERTEX_POINT('',#33);
#33 = CARTESIAN_POINT('',(-8.,11.,-58.));
#34 = LINE('',#35,#36);
#35 = CARTESIAN_POINT('',(-8.,4.,-58.));
#36 = VECTOR('',#37,1.);
#37 = DIRECTION('',(-0.,1.,0.));
#38 = ORIENTED_EDGE('',*,*,#39,.T.);
#39 = EDGE_CURVE('',#32,#40,#42,.T.);
#40 = VERTEX_POINT('',#41);
#41 = CARTESIAN_POINT('',(-8.,11.,-54.));
#42 = LINE('',#43,#44);
#43 = CARTESIAN_POINT('',(-8.,11.,-58.));
#44 = VECTOR('',#45,1.);
#45 = DIRECTION('',(0.,0.,1.));
#46 = ORIENTED_EDGE('',*,*,#47,.T.);
#47 = EDGE_CURVE('',#40,#48,#50,.T.);
#48 = VERTEX_POINT('',#49);
#49 = CARTESIAN_POINT('',(-8.,11.,-2.));
#50 = LINE('',#51,#52);
#51 = CARTESIAN_POINT('',(-8.,11.,-58.));
#52 = VECTOR('',#53,1.);
#53 = DIRECTION('',(0.,0.,1.));
#54 = ORIENTED_EDGE('',*,*,#55,.T.);
#55 = EDGE_CURVE('',#48,#56,#58,.T.);
#56 = VERTEX_POINT('',#57);
#57 = CARTESIAN_POINT('',(-8.,11.,2.));
#58 = LINE('',#59,#60);
#59 = CARTESIAN_POINT('',(-8.,11.,-58.));
#60 = VECTOR('',#61,1.);
#61 = DIRECTION('',(0.,0.,1.));
#62 = ORIENTED_EDGE('',*,*,#63,.T.);
#63 = EDGE_CURVE('',#56,#64,#66,.T.);
#64 = VERTEX_POINT('',#65);
#65 = CARTESIAN_POINT('',(-8.,11.,54.));
#66 = LINE('',#67,#68);
#67 = CARTESIAN_POINT('',(-8.,11.,-58.));
#68 = VECTOR('',#69,1.);
#69 = DIRECTION('',(0.,0.,1.));
#70 = ORIENTED_EDGE('',*,*,#71,.T.);
#71 = EDGE_CURVE('',#64,#72,#74,.T.);
#72 = VERTEX_POINT('',#73);
#73 = CARTESIAN_POINT('',(-8.,11.,58.));
#74 = LINE('',#75,#76);
#75 = CARTESIAN_POINT('',(-8.,11.,-58.));
#76 = VECTOR('',#77,1.);
#77 = DIRECTION('',(0.,0.,1.));
#78 = ORIENTED_EDGE('',*,*,#79,.F.);
#79 = EDGE_CURVE('',#24,#72,#80,.T.);
#80 = LINE('',#81,#82);
#81 = CARTESIAN_POINT('',(-8.,4.,58.));
#82 = VECTOR('',#83,1.);
#83 = DIRECTION('',(-0.,1.,0.));
#84 = PLANE('',#85);
#85 = AXIS2_PLACEMENT_3D('',#86,#87,#88);
#86 = CARTESIAN_POINT('',(-8.,4.,-58.));
#87 = DIRECTION('',(1.,0.,-0.));
#88 = DIRECTION('',(0.,0.,1.));
#89 = ADVANCED_FACE('',(#90,#115,#126,#137,#148,#159,#170,#181,#192),
  #203,.F.);
#90 = FACE_BOUND('',#91,.F.);
#91 = EDGE_LOOP('',(#92,#100,#108,#114));
#92 = ORIENTED_EDGE('',*,*,#93,.F.);
#93 = EDGE_CURVE('',#94,#22,#96,.T.);
#94 = VERTEX_POINT('',#95);
#95 = CARTESIAN_POINT('',(-60.,4.,-58.));
#96 = LINE('',#97,#98);
#97 = CARTESIAN_POINT('',(-60.,4.,-58.));
#98 = VECTOR('',#99,1.);
#99 = DIRECTION('',(1.,0.,-0.));
#100 = ORIENTED_EDGE('',*,*,#101,.T.);
#101 = EDGE_CURVE('',#94,#102,#104,.T.);
#102 = VERTEX_POINT('',#103);
#103 = CARTESIAN_POINT('',(-60.,4.,58.));
#104 = LINE('',#105,#106);
#105 = CARTESIAN_POINT('',(-60.,4.,-58.));
#106 = VECTOR('',#107,1.);
#107 = DIRECTION('',(0.,0.,1.));
#108 = ORIENTED_EDGE('',*,*,#109,.T.);
#109 = EDGE_CURVE('',#102,#24,#110,.T.);
#110 = LINE('',#111,#112);
#111 = CARTESIAN_POINT('',(-60.,4.,58.));
#112 = VECTOR('',#113,1.);
#113 = DIRECTION('',(1.,0.,-0.));
#114 = ORIENTED_EDGE('',*,*,#21,.F.);
#115 = FACE_BOUND('',#116,.F.);
#116 = EDGE_LOOP('',(#117));
#117 = ORIENTED_EDGE('',*,*,#118,.F.);
#118 = EDGE_CURVE('',#119,#119,#121,.T.);
#119 = VERTEX_POINT('',#120);
#120 = CARTESIAN_POINT('',(-57.5,4.,-50.25));
#121 = CIRCLE('',#122,1.25);
#122 = AXIS2_PLACEMENT_3D('',#123,#124,#125);
#123 = CARTESIAN_POINT('',(-57.5,4.,-51.5));
#124 = DIRECTION('',(0.,1.,0.));
#125 = DIRECTION('',(0.,-0.,1.));
#126 = FACE_BOUND('',#127,.F.);
#127 = EDGE_LOOP('',(#128));
#128 = ORIENTED_EDGE('',*,*,#129,.F.);
#129 = EDGE_CURVE('',#130,#130,#132,.T.);
#130 = VERTEX_POINT('',#131);
#131 = CARTESIAN_POINT('',(-57.5,4.,-7.25));
#132 = CIRCLE('',#133,1.25);
#133 = AXIS2_PLACEMENT_3D('',#134,#135,#136);
#134 = CARTESIAN_POINT('',(-57.5,4.,-8.5));
#135 = DIRECTION('',(0.,1.,0.));
#136 = DIRECTION('',(0.,-0.,1.));
#137 = FACE_BOUND('',#138,.F.);
#138 = EDGE_LOOP('',(#139));
#139 = ORIENTED_EDGE('',*,*,#140,.F.);
#140 = EDGE_CURVE('',#141,#141,#143,.T.);
#141 = VERTEX_POINT('',#142);
#142 = CARTESIAN_POINT('',(-57.5,4.,9.75));
#143 = CIRCLE('',#144,1.25);
#144 = AXIS2_PLACEMENT_3D('',#145,#146,#147);
#145 = CARTESIAN_POINT('',(-57.5,4.,8.5));
#146 = DIRECTION('',(0.,1.,0.));
#147 = DIRECTION('',(0.,-0.,1.));
#148 = FACE_BOUND('',#149,.F.);
#149 = EDGE_LOOP('',(#150));
#150 = ORIENTED_EDGE('',*,*,#151,.F.);
#151 = EDGE_CURVE('',#152,#152,#154,.T.);
#152 = VERTEX_POINT('',#153);
#153 = CARTESIAN_POINT('',(-57.5,4.,52.75));
#154 = CIRCLE('',#155,1.25);
#155 = AXIS2_PLACEMENT_3D('',#156,#157,#158);
#156 = CARTESIAN_POINT('',(-57.5,4.,51.5));
#157 = DIRECTION('',(0.,1.,0.));
#158 = DIRECTION('',(0.,-0.,1.));
#159 = FACE_BOUND('',#160,.F.);
#160 = EDGE_LOOP('',(#161));
#161 = ORIENTED_EDGE('',*,*,#162,.F.);
#162 = EDGE_CURVE('',#163,#163,#165,.T.);
#163 = VERTEX_POINT('',#164);
#164 = CARTESIAN_POINT('',(-37.75,4.,-33.98));
#165 = CIRCLE('',#166,1.25);
#166 = AXIS2_PLACEMENT_3D('',#167,#168,#169);
#167 = CARTESIAN_POINT('',(-37.75,4.,-35.23));
#168 = DIRECTION('',(0.,1.,0.));
#169 = DIRECTION('',(0.,-0.,1.));
#170 = FACE_BOUND('',#171,.F.);
#171 = EDGE_LOOP('',(#172));
#172 = ORIENTED_EDGE('',*,*,#173,.F.);
#173 = EDGE_CURVE('',#174,#174,#176,.T.);
#174 = VERTEX_POINT('',#175);
#175 = CARTESIAN_POINT('',(-37.75,4.,-23.52));
#176 = CIRCLE('',#177,1.25);
#177 = AXIS2_PLACEMENT_3D('',#178,#179,#180);
#178 = CARTESIAN_POINT('',(-37.75,4.,-24.77));
#179 = DIRECTION('',(0.,1.,0.));
#180 = DIRECTION('',(0.,-0.,1.));
#181 = FACE_BOUND('',#182,.F.);
#182 = EDGE_LOOP('',(#183));
#183 = ORIENTED_EDGE('',*,*,#184,.F.);
#184 = EDGE_CURVE('',#185,#185,#187,.T.);
#185 = VERTEX_POINT('',#186);
#186 = CARTESIAN_POINT('',(-37.75,4.,26.02));
#187 = CIRCLE('',#188,1.25);
#188 = AXIS2_PLACEMENT_3D('',#189,#190,#191);
#189 = CARTESIAN_POINT('',(-37.75,4.,24.77));
#190 = DIRECTION('',(0.,1.,0.));
#191 = DIRECTION('',(0.,-0.,1.));
#192 = FACE_BOUND('',#193,.F.);
#193 = EDGE_LOOP('',(#194));
#194 = ORIENTED_EDGE('',*,*,#195,.F.);
#195 = EDGE_CURVE('',#196,#196,#198,.T.);
#196 = VERTEX_POINT('',#197);
#197 = CARTESIAN_POINT('',(-37.75,4.,36.48));
#198 = CIRCLE('',#199,1.25);
#199 = AXIS2_PLACEMENT_3D('',#200,#201,#202);
#200 = CARTESIAN_POINT('',(-37.75,4.,35.23));
#201 = DIRECTION('',(0.,1.,0.));
#202 = DIRECTION('',(0.,-0.,1.));
#203 = PLANE('',#204);
#204 = AXIS2_PLACEMENT_3D('',#205,#206,#207);
#205 = CARTESIAN_POINT('',(-60.,4.,-58.));
#206 = DIRECTION('',(-0.,1.,0.));
#207 = DIRECTION('',(0.,0.,1.));
#208 = ADVANCED_FACE('',(#209),#234,.F.);
#209 = FACE_BOUND('',#210,.F.);
#210 = EDGE_LOOP('',(#211,#212,#220,#228));
#211 = ORIENTED_EDGE('',*,*,#101,.F.);
#212 = ORIENTED_EDGE('',*,*,#213,.T.);
#213 = EDGE_CURVE('',#94,#214,#216,.T.);
#214 = VERTEX_POINT('',#215);
#215 = CARTESIAN_POINT('',(-60.,11.,-58.));
#216 = LINE('',#217,#218);
#217 = CARTESIAN_POINT('',(-60.,4.,-58.));
#218 = VECTOR('',#219,1.);
#219 = DIRECTION('',(-0.,1.,0.));
#220 = ORIENTED_EDGE('',*,*,#221,.T.);
#221 = EDGE_CURVE('',#214,#222,#224,.T.);
#222 = VERTEX_POINT('',#223);
#223 = CARTESIAN_POINT('',(-60.,11.,58.));
#224 = LINE('',#225,#226);
#225 = CARTESIAN_POINT('',(-60.,11.,-58.));
#226 = VECTOR('',#227,1.);
#227 = DIRECTION('',(0.,0.,1.));
#228 = ORIENTED_EDGE('',*,*,#229,.F.);
#229 = EDGE_CURVE('',#102,#222,#230,.T.);
#230 = LINE('',#231,#232);
#231 = CARTESIAN_POINT('',(-60.,4.,58.));
#232 = VECTOR('',#233,1.);
#233 = DIRECTION('',(-0.,1.,0.));
#234 = PLANE('',#235);
#235 = AXIS2_PLACEMENT_3D('',#236,#237,#238);
#236 = CARTESIAN_POINT('',(-60.,4.,-58.));
#237 = DIRECTION('',(1.,0.,-0.));
#238 = DIRECTION('',(0.,0.,1.));
#239 = ADVANCED_FACE('',(#240,#265,#276,#287,#298,#309,#320,#331,#342),
  #353,.T.);
#240 = FACE_BOUND('',#241,.T.);
#241 = EDGE_LOOP('',(#242,#250,#251,#259));
#242 = ORIENTED_EDGE('',*,*,#243,.F.);
#243 = EDGE_CURVE('',#214,#244,#246,.T.);
#244 = VERTEX_POINT('',#245);
#245 = CARTESIAN_POINT('',(-22.5,11.,-58.));
#246 = LINE('',#247,#248);
#247 = CARTESIAN_POINT('',(-60.,11.,-58.));
#248 = VECTOR('',#249,1.);
#249 = DIRECTION('',(1.,0.,-0.));
#250 = ORIENTED_EDGE('',*,*,#221,.T.);
#251 = ORIENTED_EDGE('',*,*,#252,.T.);
#252 = EDGE_CURVE('',#222,#253,#255,.T.);
#253 = VERTEX_POINT('',#254);
#254 = CARTESIAN_POINT('',(-22.5,11.,58.));
#255 = LINE('',#256,#257);
#256 = CARTESIAN_POINT('',(-60.,11.,58.));
#257 = VECTOR('',#258,1.);
#258 = DIRECTION('',(1.,0.,-0.));
#259 = ORIENTED_EDGE('',*,*,#260,.F.);
#260 = EDGE_CURVE('',#244,#253,#261,.T.);
#261 = LINE('',#262,#263);
#262 = CARTESIAN_POINT('',(-22.5,11.,-58.));
#263 = VECTOR('',#264,1.);
#264 = DIRECTION('',(0.,0.,1.));
#265 = FACE_BOUND('',#266,.T.);
#266 = EDGE_LOOP('',(#267));
#267 = ORIENTED_EDGE('',*,*,#268,.F.);
#268 = EDGE_CURVE('',#269,#269,#271,.T.);
#269 = VERTEX_POINT('',#270);
#270 = CARTESIAN_POINT('',(-57.5,11.,-50.25));
#271 = CIRCLE('',#272,1.25);
#272 = AXIS2_PLACEMENT_3D('',#273,#274,#275);
#273 = CARTESIAN_POINT('',(-57.5,11.,-51.5));
#274 = DIRECTION('',(0.,1.,0.));
#275 = DIRECTION('',(0.,-0.,1.));
#276 = FACE_BOUND('',#277,.T.);
#277 = EDGE_LOOP('',(#278));
#278 = ORIENTED_EDGE('',*,*,#279,.F.);
#279 = EDGE_CURVE('',#280,#280,#282,.T.);
#280 = VERTEX_POINT('',#281);
#281 = CARTESIAN_POINT('',(-57.5,11.,-7.25));
#282 = CIRCLE('',#283,1.25);
#283 = AXIS2_PLACEMENT_3D('',#284,#285,#286);
#284 = CARTESIAN_POINT('',(-57.5,11.,-8.5));
#285 = DIRECTION('',(0.,1.,0.));
#286 = DIRECTION('',(0.,-0.,1.));
#287 = FACE_BOUND('',#288,.T.);
#288 = EDGE_LOOP('',(#289));
#289 = ORIENTED_EDGE('',*,*,#290,.F.);
#290 = EDGE_CURVE('',#291,#291,#293,.T.);
#291 = VERTEX_POINT('',#292);
#292 = CARTESIAN_POINT('',(-57.5,11.,9.75));
#293 = CIRCLE('',#294,1.25);
#294 = AXIS2_PLACEMENT_3D('',#295,#296,#297);
#295 = CARTESIAN_POINT('',(-57.5,11.,8.5));
#296 = DIRECTION('',(0.,1.,0.));
#297 = DIRECTION('',(0.,-0.,1.));
#298 = FACE_BOUND('',#299,.T.);
#299 = EDGE_LOOP('',(#300));
#300 = ORIENTED_EDGE('',*,*,#301,.F.);
#301 = EDGE_CURVE('',#302,#302,#304,.T.);
#302 = VERTEX_POINT('',#303);
#303 = CARTESIAN_POINT('',(-57.5,11.,52.75));
#304 = CIRCLE('',#305,1.25);
#305 = AXIS2_PLACEMENT_3D('',#306,#307,#308);
#306 = CARTESIAN_POINT('',(-57.5,11.,51.5));
#307 = DIRECTION('',(0.,1.,0.));
#308 = DIRECTION('',(0.,-0.,1.));
#309 = FACE_BOUND('',#310,.T.);
#310 = EDGE_LOOP('',(#311));
#311 = ORIENTED_EDGE('',*,*,#312,.F.);
#312 = EDGE_CURVE('',#313,#313,#315,.T.);
#313 = VERTEX_POINT('',#314);
#314 = CARTESIAN_POINT('',(-37.75,11.,-33.98));
#315 = CIRCLE('',#316,1.25);
#316 = AXIS2_PLACEMENT_3D('',#317,#318,#319);
#317 = CARTESIAN_POINT('',(-37.75,11.,-35.23));
#318 = DIRECTION('',(0.,1.,0.));
#319 = DIRECTION('',(0.,-0.,1.));
#320 = FACE_BOUND('',#321,.T.);
#321 = EDGE_LOOP('',(#322));
#322 = ORIENTED_EDGE('',*,*,#323,.F.);
#323 = EDGE_CURVE('',#324,#324,#326,.T.);
#324 = VERTEX_POINT('',#325);
#325 = CARTESIAN_POINT('',(-37.75,11.,-23.52));
#326 = CIRCLE('',#327,1.25);
#327 = AXIS2_PLACEMENT_3D('',#328,#329,#330);
#328 = CARTESIAN_POINT('',(-37.75,11.,-24.77));
#329 = DIRECTION('',(0.,1.,0.));
#330 = DIRECTION('',(0.,-0.,1.));
#331 = FACE_BOUND('',#332,.T.);
#332 = EDGE_LOOP('',(#333));
#333 = ORIENTED_EDGE('',*,*,#334,.F.);
#334 = EDGE_CURVE('',#335,#335,#337,.T.);
#335 = VERTEX_POINT('',#336);
#336 = CARTESIAN_POINT('',(-37.75,11.,26.02));
#337 = CIRCLE('',#338,1.25);
#338 = AXIS2_PLACEMENT_3D('',#339,#340,#341);
#339 = CARTESIAN_POINT('',(-37.75,11.,24.77));
#340 = DIRECTION('',(0.,1.,0.));
#341 = DIRECTION('',(0.,-0.,1.));
#342 = FACE_BOUND('',#343,.T.);
#343 = EDGE_LOOP('',(#344));
#344 = ORIENTED_EDGE('',*,*,#345,.F.);
#345 = EDGE_CURVE('',#346,#346,#348,.T.);
#346 = VERTEX_POINT('',#347);
#347 = CARTESIAN_POINT('',(-37.75,11.,36.48));
#348 = CIRCLE('',#349,1.25);
#349 = AXIS2_PLACEMENT_3D('',#350,#351,#352);
#350 = CARTESIAN_POINT('',(-37.75,11.,35.23));
#351 = DIRECTION('',(0.,1.,0.));
#352 = DIRECTION('',(0.,-0.,1.));
#353 = PLANE('',#354);
#354 = AXIS2_PLACEMENT_3D('',#355,#356,#357);
#355 = CARTESIAN_POINT('',(-60.,11.,-58.));
#356 = DIRECTION('',(-0.,1.,0.));
#357 = DIRECTION('',(0.,0.,1.));
#358 = ADVANCED_FACE('',(#359,#384,#395,#406,#417,#428,#439,#450,#461),
  #472,.F.);
#359 = FACE_BOUND('',#360,.F.);
#360 = EDGE_LOOP('',(#361,#362,#370,#378));
#361 = ORIENTED_EDGE('',*,*,#260,.F.);
#362 = ORIENTED_EDGE('',*,*,#363,.T.);
#363 = EDGE_CURVE('',#244,#364,#366,.T.);
#364 = VERTEX_POINT('',#365);
#365 = CARTESIAN_POINT('',(-22.5,60.,-58.));
#366 = LINE('',#367,#368);
#367 = CARTESIAN_POINT('',(-22.5,8.,-58.));
#368 = VECTOR('',#369,1.);
#369 = DIRECTION('',(-0.,1.,0.));
#370 = ORIENTED_EDGE('',*,*,#371,.T.);
#371 = EDGE_CURVE('',#364,#372,#374,.T.);
#372 = VERTEX_POINT('',#373);
#373 = CARTESIAN_POINT('',(-22.5,60.,58.));
#374 = LINE('',#375,#376);
#375 = CARTESIAN_POINT('',(-22.5,60.,-58.));
#376 = VECTOR('',#377,1.);
#377 = DIRECTION('',(0.,0.,1.));
#378 = ORIENTED_EDGE('',*,*,#379,.F.);
#379 = EDGE_CURVE('',#253,#372,#380,.T.);
#380 = LINE('',#381,#382);
#381 = CARTESIAN_POINT('',(-22.5,8.,58.));
#382 = VECTOR('',#383,1.);
#383 = DIRECTION('',(-0.,1.,0.));
#384 = FACE_BOUND('',#385,.F.);
#385 = EDGE_LOOP('',(#386));
#386 = ORIENTED_EDGE('',*,*,#387,.F.);
#387 = EDGE_CURVE('',#388,#388,#390,.T.);
#388 = VERTEX_POINT('',#389);
#389 = CARTESIAN_POINT('',(-22.5,49.37373356841,-39.88493919567));
#390 = CIRCLE('',#391,1.7);
#391 = AXIS2_PLACEMENT_3D('',#392,#393,#394);
#392 = CARTESIAN_POINT('',(-22.5,49.37373356841,-41.58493919567));
#393 = DIRECTION('',(1.,0.,0.));
#394 = DIRECTION('',(-0.,0.,1.));
#395 = FACE_BOUND('',#396,.F.);
#396 = EDGE_LOOP('',(#397));
#397 = ORIENTED_EDGE('',*,*,#398,.F.);
#398 = EDGE_CURVE('',#399,#399,#401,.T.);
#399 = VERTEX_POINT('',#400);
#400 = CARTESIAN_POINT('',(-22.5,45.584939195677,-12.92626643159));
#401 = CIRCLE('',#402,1.7);
#402 = AXIS2_PLACEMENT_3D('',#403,#404,#405);
#403 = CARTESIAN_POINT('',(-22.5,45.584939195677,-14.62626643159));
#404 = DIRECTION('',(1.,0.,0.));
#405 = DIRECTION('',(-0.,0.,1.));
#406 = FACE_BOUND('',#407,.F.);
#407 = EDGE_LOOP('',(#408));
#408 = ORIENTED_EDGE('',*,*,#409,.F.);
#409 = EDGE_CURVE('',#410,#410,#412,.T.);
#410 = VERTEX_POINT('',#411);
#411 = CARTESIAN_POINT('',(-22.5,49.37373356841,20.115060804323));
#412 = CIRCLE('',#413,1.7);
#413 = AXIS2_PLACEMENT_3D('',#414,#415,#416);
#414 = CARTESIAN_POINT('',(-22.5,49.37373356841,18.415060804323));
#415 = DIRECTION('',(1.,0.,0.));
#416 = DIRECTION('',(-0.,0.,1.));
#417 = FACE_BOUND('',#418,.F.);
#418 = EDGE_LOOP('',(#419));
#419 = ORIENTED_EDGE('',*,*,#420,.F.);
#420 = EDGE_CURVE('',#421,#421,#423,.T.);
#421 = VERTEX_POINT('',#422);
#422 = CARTESIAN_POINT('',(-22.5,45.584939195677,47.07373356841));
#423 = CIRCLE('',#424,1.7);
#424 = AXIS2_PLACEMENT_3D('',#425,#426,#427);
#425 = CARTESIAN_POINT('',(-22.5,45.584939195677,45.37373356841));
#426 = DIRECTION('',(1.,0.,0.));
#427 = DIRECTION('',(-0.,0.,1.));
#428 = FACE_BOUND('',#429,.F.);
#429 = EDGE_LOOP('',(#430));
#430 = ORIENTED_EDGE('',*,*,#431,.F.);
#431 = EDGE_CURVE('',#432,#432,#434,.T.);
#432 = VERTEX_POINT('',#433);
#433 = CARTESIAN_POINT('',(-22.5,22.415060804323,-43.67373356841));
#434 = CIRCLE('',#435,1.7);
#435 = AXIS2_PLACEMENT_3D('',#436,#437,#438);
#436 = CARTESIAN_POINT('',(-22.5,22.415060804323,-45.37373356841));
#437 = DIRECTION('',(1.,0.,0.));
#438 = DIRECTION('',(-0.,0.,1.));
#439 = FACE_BOUND('',#440,.F.);
#440 = EDGE_LOOP('',(#441));
#441 = ORIENTED_EDGE('',*,*,#442,.F.);
#442 = EDGE_CURVE('',#443,#443,#445,.T.);
#443 = VERTEX_POINT('',#444);
#444 = CARTESIAN_POINT('',(-22.5,18.62626643159,-16.71506080432));
#445 = CIRCLE('',#446,1.7);
#446 = AXIS2_PLACEMENT_3D('',#447,#448,#449);
#447 = CARTESIAN_POINT('',(-22.5,18.62626643159,-18.41506080432));
#448 = DIRECTION('',(1.,0.,0.));
#449 = DIRECTION('',(-0.,0.,1.));
#450 = FACE_BOUND('',#451,.F.);
#451 = EDGE_LOOP('',(#452));
#452 = ORIENTED_EDGE('',*,*,#453,.F.);
#453 = EDGE_CURVE('',#454,#454,#456,.T.);
#454 = VERTEX_POINT('',#455);
#455 = CARTESIAN_POINT('',(-22.5,22.415060804323,16.32626643159));
#456 = CIRCLE('',#457,1.7);
#457 = AXIS2_PLACEMENT_3D('',#458,#459,#460);
#458 = CARTESIAN_POINT('',(-22.5,22.415060804323,14.62626643159));
#459 = DIRECTION('',(1.,0.,0.));
#460 = DIRECTION('',(-0.,0.,1.));
#461 = FACE_BOUND('',#462,.F.);
#462 = EDGE_LOOP('',(#463));
#463 = ORIENTED_EDGE('',*,*,#464,.F.);
#464 = EDGE_CURVE('',#465,#465,#467,.T.);
#465 = VERTEX_POINT('',#466);
#466 = CARTESIAN_POINT('',(-22.5,18.62626643159,43.284939195677));
#467 = CIRCLE('',#468,1.7);
#468 = AXIS2_PLACEMENT_3D('',#469,#470,#471);
#469 = CARTESIAN_POINT('',(-22.5,18.62626643159,41.584939195677));
#470 = DIRECTION('',(1.,0.,0.));
#471 = DIRECTION('',(-0.,0.,1.));
#472 = PLANE('',#473);
#473 = AXIS2_PLACEMENT_3D('',#474,#475,#476);
#474 = CARTESIAN_POINT('',(-22.5,8.,-58.));
#475 = DIRECTION('',(1.,0.,-0.));
#476 = DIRECTION('',(0.,0.,1.));
#477 = ADVANCED_FACE('',(#478),#503,.T.);
#478 = FACE_BOUND('',#479,.T.);
#479 = EDGE_LOOP('',(#480,#488,#489,#497));
#480 = ORIENTED_EDGE('',*,*,#481,.F.);
#481 = EDGE_CURVE('',#364,#482,#484,.T.);
#482 = VERTEX_POINT('',#483);
#483 = CARTESIAN_POINT('',(-18.5,60.,-58.));
#484 = LINE('',#485,#486);
#485 = CARTESIAN_POINT('',(-22.5,60.,-58.));
#486 = VECTOR('',#487,1.);
#487 = DIRECTION('',(1.,0.,-0.));
#488 = ORIENTED_EDGE('',*,*,#371,.T.);
#489 = ORIENTED_EDGE('',*,*,#490,.T.);
#490 = EDGE_CURVE('',#372,#491,#493,.T.);
#491 = VERTEX_POINT('',#492);
#492 = CARTESIAN_POINT('',(-18.5,60.,58.));
#493 = LINE('',#494,#495);
#494 = CARTESIAN_POINT('',(-22.5,60.,58.));
#495 = VECTOR('',#496,1.);
#496 = DIRECTION('',(1.,0.,-0.));
#497 = ORIENTED_EDGE('',*,*,#498,.F.);
#498 = EDGE_CURVE('',#482,#491,#499,.T.);
#499 = LINE('',#500,#501);
#500 = CARTESIAN_POINT('',(-18.5,60.,-58.));
#501 = VECTOR('',#502,1.);
#502 = DIRECTION('',(0.,0.,1.));
#503 = PLANE('',#504);
#504 = AXIS2_PLACEMENT_3D('',#505,#506,#507);
#505 = CARTESIAN_POINT('',(-22.5,60.,-58.));
#506 = DIRECTION('',(-0.,1.,0.));
#507 = DIRECTION('',(0.,0.,1.));
#508 = ADVANCED_FACE('',(#509,#598,#609,#620,#631,#642,#653,#664,#675),
  #686,.T.);
#509 = FACE_BOUND('',#510,.T.);
#510 = EDGE_LOOP('',(#511,#521,#529,#537,#543,#544,#552,#560,#568,#576,
    #584,#592));
#511 = ORIENTED_EDGE('',*,*,#512,.F.);
#512 = EDGE_CURVE('',#513,#515,#517,.T.);
#513 = VERTEX_POINT('',#514);
#514 = CARTESIAN_POINT('',(-18.5,11.,-54.));
#515 = VERTEX_POINT('',#516);
#516 = CARTESIAN_POINT('',(-18.5,11.,-2.));
#517 = LINE('',#518,#519);
#518 = CARTESIAN_POINT('',(-18.5,11.,-58.));
#519 = VECTOR('',#520,1.);
#520 = DIRECTION('',(0.,0.,1.));
#521 = ORIENTED_EDGE('',*,*,#522,.F.);
#522 = EDGE_CURVE('',#523,#513,#525,.T.);
#523 = VERTEX_POINT('',#524);
#524 = CARTESIAN_POINT('',(-18.5,24.,-54.));
#525 = LINE('',#526,#527);
#526 = CARTESIAN_POINT('',(-18.5,24.,-54.));
#527 = VECTOR('',#528,1.);
#528 = DIRECTION('',(0.,-1.,0.));
#529 = ORIENTED_EDGE('',*,*,#530,.F.);
#530 = EDGE_CURVE('',#531,#523,#533,.T.);
#531 = VERTEX_POINT('',#532);
#532 = CARTESIAN_POINT('',(-18.5,24.,-58.));
#533 = LINE('',#534,#535);
#534 = CARTESIAN_POINT('',(-18.5,24.,-58.));
#535 = VECTOR('',#536,1.);
#536 = DIRECTION('',(0.,0.,1.));
#537 = ORIENTED_EDGE('',*,*,#538,.T.);
#538 = EDGE_CURVE('',#531,#482,#539,.T.);
#539 = LINE('',#540,#541);
#540 = CARTESIAN_POINT('',(-18.5,8.,-58.));
#541 = VECTOR('',#542,1.);
#542 = DIRECTION('',(-0.,1.,0.));
#543 = ORIENTED_EDGE('',*,*,#498,.T.);
#544 = ORIENTED_EDGE('',*,*,#545,.F.);
#545 = EDGE_CURVE('',#546,#491,#548,.T.);
#546 = VERTEX_POINT('',#547);
#547 = CARTESIAN_POINT('',(-18.5,24.,58.));
#548 = LINE('',#549,#550);
#549 = CARTESIAN_POINT('',(-18.5,8.,58.));
#550 = VECTOR('',#551,1.);
#551 = DIRECTION('',(-0.,1.,0.));
#552 = ORIENTED_EDGE('',*,*,#553,.F.);
#553 = EDGE_CURVE('',#554,#546,#556,.T.);
#554 = VERTEX_POINT('',#555);
#555 = CARTESIAN_POINT('',(-18.5,24.,54.));
#556 = LINE('',#557,#558);
#557 = CARTESIAN_POINT('',(-18.5,24.,54.));
#558 = VECTOR('',#559,1.);
#559 = DIRECTION('',(0.,0.,1.));
#560 = ORIENTED_EDGE('',*,*,#561,.T.);
#561 = EDGE_CURVE('',#554,#562,#564,.T.);
#562 = VERTEX_POINT('',#563);
#563 = CARTESIAN_POINT('',(-18.5,11.,54.));
#564 = LINE('',#565,#566);
#565 = CARTESIAN_POINT('',(-18.5,24.,54.));
#566 = VECTOR('',#567,1.);
#567 = DIRECTION('',(0.,-1.,0.));
#568 = ORIENTED_EDGE('',*,*,#569,.F.);
#569 = EDGE_CURVE('',#570,#562,#572,.T.);
#570 = VERTEX_POINT('',#571);
#571 = CARTESIAN_POINT('',(-18.5,11.,2.));
#572 = LINE('',#573,#574);
#573 = CARTESIAN_POINT('',(-18.5,11.,-58.));
#574 = VECTOR('',#575,1.);
#575 = DIRECTION('',(0.,0.,1.));
#576 = ORIENTED_EDGE('',*,*,#577,.F.);
#577 = EDGE_CURVE('',#578,#570,#580,.T.);
#578 = VERTEX_POINT('',#579);
#579 = CARTESIAN_POINT('',(-18.5,24.,2.));
#580 = LINE('',#581,#582);
#581 = CARTESIAN_POINT('',(-18.5,24.,2.));
#582 = VECTOR('',#583,1.);
#583 = DIRECTION('',(0.,-1.,0.));
#584 = ORIENTED_EDGE('',*,*,#585,.F.);
#585 = EDGE_CURVE('',#586,#578,#588,.T.);
#586 = VERTEX_POINT('',#587);
#587 = CARTESIAN_POINT('',(-18.5,24.,-2.));
#588 = LINE('',#589,#590);
#589 = CARTESIAN_POINT('',(-18.5,24.,-2.));
#590 = VECTOR('',#591,1.);
#591 = DIRECTION('',(0.,0.,1.));
#592 = ORIENTED_EDGE('',*,*,#593,.T.);
#593 = EDGE_CURVE('',#586,#515,#594,.T.);
#594 = LINE('',#595,#596);
#595 = CARTESIAN_POINT('',(-18.5,24.,-2.));
#596 = VECTOR('',#597,1.);
#597 = DIRECTION('',(0.,-1.,0.));
#598 = FACE_BOUND('',#599,.T.);
#599 = EDGE_LOOP('',(#600));
#600 = ORIENTED_EDGE('',*,*,#601,.F.);
#601 = EDGE_CURVE('',#602,#602,#604,.T.);
#602 = VERTEX_POINT('',#603);
#603 = CARTESIAN_POINT('',(-18.5,49.37373356841,-39.88493919567));
#604 = CIRCLE('',#605,1.7);
#605 = AXIS2_PLACEMENT_3D('',#606,#607,#608);
#606 = CARTESIAN_POINT('',(-18.5,49.37373356841,-41.58493919567));
#607 = DIRECTION('',(1.,0.,0.));
#608 = DIRECTION('',(-0.,0.,1.));
#609 = FACE_BOUND('',#610,.T.);
#610 = EDGE_LOOP('',(#611));
#611 = ORIENTED_EDGE('',*,*,#612,.F.);
#612 = EDGE_CURVE('',#613,#613,#615,.T.);
#613 = VERTEX_POINT('',#614);
#614 = CARTESIAN_POINT('',(-18.5,45.584939195677,-12.92626643159));
#615 = CIRCLE('',#616,1.7);
#616 = AXIS2_PLACEMENT_3D('',#617,#618,#619);
#617 = CARTESIAN_POINT('',(-18.5,45.584939195677,-14.62626643159));
#618 = DIRECTION('',(1.,0.,0.));
#619 = DIRECTION('',(-0.,0.,1.));
#620 = FACE_BOUND('',#621,.T.);
#621 = EDGE_LOOP('',(#622));
#622 = ORIENTED_EDGE('',*,*,#623,.F.);
#623 = EDGE_CURVE('',#624,#624,#626,.T.);
#624 = VERTEX_POINT('',#625);
#625 = CARTESIAN_POINT('',(-18.5,49.37373356841,20.115060804323));
#626 = CIRCLE('',#627,1.7);
#627 = AXIS2_PLACEMENT_3D('',#628,#629,#630);
#628 = CARTESIAN_POINT('',(-18.5,49.37373356841,18.415060804323));
#629 = DIRECTION('',(1.,0.,0.));
#630 = DIRECTION('',(-0.,0.,1.));
#631 = FACE_BOUND('',#632,.T.);
#632 = EDGE_LOOP('',(#633));
#633 = ORIENTED_EDGE('',*,*,#634,.F.);
#634 = EDGE_CURVE('',#635,#635,#637,.T.);
#635 = VERTEX_POINT('',#636);
#636 = CARTESIAN_POINT('',(-18.5,45.584939195677,47.07373356841));
#637 = CIRCLE('',#638,1.7);
#638 = AXIS2_PLACEMENT_3D('',#639,#640,#641);
#639 = CARTESIAN_POINT('',(-18.5,45.584939195677,45.37373356841));
#640 = DIRECTION('',(1.,0.,0.));
#641 = DIRECTION('',(-0.,0.,1.));
#642 = FACE_BOUND('',#643,.T.);
#643 = EDGE_LOOP('',(#644));
#644 = ORIENTED_EDGE('',*,*,#645,.F.);
#645 = EDGE_CURVE('',#646,#646,#648,.T.);
#646 = VERTEX_POINT('',#647);
#647 = CARTESIAN_POINT('',(-18.5,22.415060804323,-43.67373356841));
#648 = CIRCLE('',#649,1.7);
#649 = AXIS2_PLACEMENT_3D('',#650,#651,#652);
#650 = CARTESIAN_POINT('',(-18.5,22.415060804323,-45.37373356841));
#651 = DIRECTION('',(1.,0.,0.));
#652 = DIRECTION('',(-0.,0.,1.));
#653 = FACE_BOUND('',#654,.T.);
#654 = EDGE_LOOP('',(#655));
#655 = ORIENTED_EDGE('',*,*,#656,.F.);
#656 = EDGE_CURVE('',#657,#657,#659,.T.);
#657 = VERTEX_POINT('',#658);
#658 = CARTESIAN_POINT('',(-18.5,18.62626643159,-16.71506080432));
#659 = CIRCLE('',#660,1.7);
#660 = AXIS2_PLACEMENT_3D('',#661,#662,#663);
#661 = CARTESIAN_POINT('',(-18.5,18.62626643159,-18.41506080432));
#662 = DIRECTION('',(1.,0.,0.));
#663 = DIRECTION('',(-0.,0.,1.));
#664 = FACE_BOUND('',#665,.T.);
#665 = EDGE_LOOP('',(#666));
#666 = ORIENTED_EDGE('',*,*,#667,.F.);
#667 = EDGE_CURVE('',#668,#668,#670,.T.);
#668 = VERTEX_POINT('',#669);
#669 = CARTESIAN_POINT('',(-18.5,22.415060804323,16.32626643159));
#670 = CIRCLE('',#671,1.7);
#671 = AXIS2_PLACEMENT_3D('',#672,#673,#674);
#672 = CARTESIAN_POINT('',(-18.5,22.415060804323,14.62626643159));
#673 = DIRECTION('',(1.,0.,0.));
#674 = DIRECTION('',(-0.,0.,1.));
#675 = FACE_BOUND('',#676,.T.);
#676 = EDGE_LOOP('',(#677));
#677 = ORIENTED_EDGE('',*,*,#678,.F.);
#678 = EDGE_CURVE('',#679,#679,#681,.T.);
#679 = VERTEX_POINT('',#680);
#680 = CARTESIAN_POINT('',(-18.5,18.62626643159,43.284939195677));
#681 = CIRCLE('',#682,1.7);
#682 = AXIS2_PLACEMENT_3D('',#683,#684,#685);
#683 = CARTESIAN_POINT('',(-18.5,18.62626643159,41.584939195677));
#684 = DIRECTION('',(1.,0.,0.));
#685 = DIRECTION('',(-0.,0.,1.));
#686 = PLANE('',#687);
#687 = AXIS2_PLACEMENT_3D('',#688,#689,#690);
#688 = CARTESIAN_POINT('',(-18.5,8.,-58.));
#689 = DIRECTION('',(1.,0.,-0.));
#690 = DIRECTION('',(0.,0.,1.));
#691 = ADVANCED_FACE('',(#692),#703,.F.);
#692 = FACE_BOUND('',#693,.F.);
#693 = EDGE_LOOP('',(#694,#695,#701,#702));
#694 = ORIENTED_EDGE('',*,*,#268,.F.);
#695 = ORIENTED_EDGE('',*,*,#696,.F.);
#696 = EDGE_CURVE('',#119,#269,#697,.T.);
#697 = LINE('',#698,#699);
#698 = CARTESIAN_POINT('',(-57.5,3.,-50.25));
#699 = VECTOR('',#700,1.);
#700 = DIRECTION('',(0.,1.,0.));
#701 = ORIENTED_EDGE('',*,*,#118,.T.);
#702 = ORIENTED_EDGE('',*,*,#696,.T.);
#703 = CYLINDRICAL_SURFACE('',#704,1.25);
#704 = AXIS2_PLACEMENT_3D('',#705,#706,#707);
#705 = CARTESIAN_POINT('',(-57.5,3.,-51.5));
#706 = DIRECTION('',(0.,1.,0.));
#707 = DIRECTION('',(0.,-0.,1.));
#708 = ADVANCED_FACE('',(#709),#720,.F.);
#709 = FACE_BOUND('',#710,.F.);
#710 = EDGE_LOOP('',(#711,#712,#718,#719));
#711 = ORIENTED_EDGE('',*,*,#279,.F.);
#712 = ORIENTED_EDGE('',*,*,#713,.F.);
#713 = EDGE_CURVE('',#130,#280,#714,.T.);
#714 = LINE('',#715,#716);
#715 = CARTESIAN_POINT('',(-57.5,3.,-7.25));
#716 = VECTOR('',#717,1.);
#717 = DIRECTION('',(0.,1.,0.));
#718 = ORIENTED_EDGE('',*,*,#129,.T.);
#719 = ORIENTED_EDGE('',*,*,#713,.T.);
#720 = CYLINDRICAL_SURFACE('',#721,1.25);
#721 = AXIS2_PLACEMENT_3D('',#722,#723,#724);
#722 = CARTESIAN_POINT('',(-57.5,3.,-8.5));
#723 = DIRECTION('',(0.,1.,0.));
#724 = DIRECTION('',(0.,-0.,1.));
#725 = ADVANCED_FACE('',(#726),#737,.F.);
#726 = FACE_BOUND('',#727,.F.);
#727 = EDGE_LOOP('',(#728,#729,#735,#736));
#728 = ORIENTED_EDGE('',*,*,#290,.F.);
#729 = ORIENTED_EDGE('',*,*,#730,.F.);
#730 = EDGE_CURVE('',#141,#291,#731,.T.);
#731 = LINE('',#732,#733);
#732 = CARTESIAN_POINT('',(-57.5,3.,9.75));
#733 = VECTOR('',#734,1.);
#734 = DIRECTION('',(0.,1.,0.));
#735 = ORIENTED_EDGE('',*,*,#140,.T.);
#736 = ORIENTED_EDGE('',*,*,#730,.T.);
#737 = CYLINDRICAL_SURFACE('',#738,1.25);
#738 = AXIS2_PLACEMENT_3D('',#739,#740,#741);
#739 = CARTESIAN_POINT('',(-57.5,3.,8.5));
#740 = DIRECTION('',(0.,1.,0.));
#741 = DIRECTION('',(0.,-0.,1.));
#742 = ADVANCED_FACE('',(#743),#754,.F.);
#743 = FACE_BOUND('',#744,.F.);
#744 = EDGE_LOOP('',(#745,#746,#752,#753));
#745 = ORIENTED_EDGE('',*,*,#301,.F.);
#746 = ORIENTED_EDGE('',*,*,#747,.F.);
#747 = EDGE_CURVE('',#152,#302,#748,.T.);
#748 = LINE('',#749,#750);
#749 = CARTESIAN_POINT('',(-57.5,3.,52.75));
#750 = VECTOR('',#751,1.);
#751 = DIRECTION('',(0.,1.,0.));
#752 = ORIENTED_EDGE('',*,*,#151,.T.);
#753 = ORIENTED_EDGE('',*,*,#747,.T.);
#754 = CYLINDRICAL_SURFACE('',#755,1.25);
#755 = AXIS2_PLACEMENT_3D('',#756,#757,#758);
#756 = CARTESIAN_POINT('',(-57.5,3.,51.5));
#757 = DIRECTION('',(0.,1.,0.));
#758 = DIRECTION('',(0.,-0.,1.));
#759 = ADVANCED_FACE('',(#760),#771,.F.);
#760 = FACE_BOUND('',#761,.F.);
#761 = EDGE_LOOP('',(#762,#763,#769,#770));
#762 = ORIENTED_EDGE('',*,*,#312,.F.);
#763 = ORIENTED_EDGE('',*,*,#764,.F.);
#764 = EDGE_CURVE('',#163,#313,#765,.T.);
#765 = LINE('',#766,#767);
#766 = CARTESIAN_POINT('',(-37.75,3.,-33.98));
#767 = VECTOR('',#768,1.);
#768 = DIRECTION('',(0.,1.,0.));
#769 = ORIENTED_EDGE('',*,*,#162,.T.);
#770 = ORIENTED_EDGE('',*,*,#764,.T.);
#771 = CYLINDRICAL_SURFACE('',#772,1.25);
#772 = AXIS2_PLACEMENT_3D('',#773,#774,#775);
#773 = CARTESIAN_POINT('',(-37.75,3.,-35.23));
#774 = DIRECTION('',(0.,1.,0.));
#775 = DIRECTION('',(0.,-0.,1.));
#776 = ADVANCED_FACE('',(#777),#788,.F.);
#777 = FACE_BOUND('',#778,.F.);
#778 = EDGE_LOOP('',(#779,#780,#786,#787));
#779 = ORIENTED_EDGE('',*,*,#323,.F.);
#780 = ORIENTED_EDGE('',*,*,#781,.F.);
#781 = EDGE_CURVE('',#174,#324,#782,.T.);
#782 = LINE('',#783,#784);
#783 = CARTESIAN_POINT('',(-37.75,3.,-23.52));
#784 = VECTOR('',#785,1.);
#785 = DIRECTION('',(0.,1.,0.));
#786 = ORIENTED_EDGE('',*,*,#173,.T.);
#787 = ORIENTED_EDGE('',*,*,#781,.T.);
#788 = CYLINDRICAL_SURFACE('',#789,1.25);
#789 = AXIS2_PLACEMENT_3D('',#790,#791,#792);
#790 = CARTESIAN_POINT('',(-37.75,3.,-24.77));
#791 = DIRECTION('',(0.,1.,0.));
#792 = DIRECTION('',(0.,-0.,1.));
#793 = ADVANCED_FACE('',(#794),#805,.F.);
#794 = FACE_BOUND('',#795,.F.);
#795 = EDGE_LOOP('',(#796,#797,#803,#804));
#796 = ORIENTED_EDGE('',*,*,#334,.F.);
#797 = ORIENTED_EDGE('',*,*,#798,.F.);
#798 = EDGE_CURVE('',#185,#335,#799,.T.);
#799 = LINE('',#800,#801);
#800 = CARTESIAN_POINT('',(-37.75,3.,26.02));
#801 = VECTOR('',#802,1.);
#802 = DIRECTION('',(0.,1.,0.));
#803 = ORIENTED_EDGE('',*,*,#184,.T.);
#804 = ORIENTED_EDGE('',*,*,#798,.T.);
#805 = CYLINDRICAL_SURFACE('',#806,1.25);
#806 = AXIS2_PLACEMENT_3D('',#807,#808,#809);
#807 = CARTESIAN_POINT('',(-37.75,3.,24.77));
#808 = DIRECTION('',(0.,1.,0.));
#809 = DIRECTION('',(0.,-0.,1.));
#810 = ADVANCED_FACE('',(#811),#822,.F.);
#811 = FACE_BOUND('',#812,.F.);
#812 = EDGE_LOOP('',(#813,#814,#820,#821));
#813 = ORIENTED_EDGE('',*,*,#345,.F.);
#814 = ORIENTED_EDGE('',*,*,#815,.F.);
#815 = EDGE_CURVE('',#196,#346,#816,.T.);
#816 = LINE('',#817,#818);
#817 = CARTESIAN_POINT('',(-37.75,3.,36.48));
#818 = VECTOR('',#819,1.);
#819 = DIRECTION('',(0.,1.,0.));
#820 = ORIENTED_EDGE('',*,*,#195,.T.);
#821 = ORIENTED_EDGE('',*,*,#815,.T.);
#822 = CYLINDRICAL_SURFACE('',#823,1.25);
#823 = AXIS2_PLACEMENT_3D('',#824,#825,#826);
#824 = CARTESIAN_POINT('',(-37.75,3.,35.23));
#825 = DIRECTION('',(0.,1.,0.));
#826 = DIRECTION('',(0.,-0.,1.));
#827 = ADVANCED_FACE('',(#828),#844,.F.);
#828 = FACE_BOUND('',#829,.F.);
#829 = EDGE_LOOP('',(#830,#831,#837,#838));
#830 = ORIENTED_EDGE('',*,*,#71,.T.);
#831 = ORIENTED_EDGE('',*,*,#832,.T.);
#832 = EDGE_CURVE('',#72,#546,#833,.T.);
#833 = LINE('',#834,#835);
#834 = CARTESIAN_POINT('',(-8.,11.,58.));
#835 = VECTOR('',#836,1.);
#836 = DIRECTION('',(-0.628337107088,0.777941180204,0.));
#837 = ORIENTED_EDGE('',*,*,#553,.F.);
#838 = ORIENTED_EDGE('',*,*,#839,.F.);
#839 = EDGE_CURVE('',#64,#554,#840,.T.);
#840 = LINE('',#841,#842);
#841 = CARTESIAN_POINT('',(-8.,11.,54.));
#842 = VECTOR('',#843,1.);
#843 = DIRECTION('',(-0.628337107088,0.777941180204,0.));
#844 = PLANE('',#845);
#845 = AXIS2_PLACEMENT_3D('',#846,#847,#848);
#846 = CARTESIAN_POINT('',(-8.,11.,54.));
#847 = DIRECTION('',(-0.777941180204,-0.628337107088,0.));
#848 = DIRECTION('',(-0.628337107088,0.777941180204,0.));
#849 = ADVANCED_FACE('',(#850),#866,.F.);
#850 = FACE_BOUND('',#851,.F.);
#851 = EDGE_LOOP('',(#852,#853,#859,#860));
#852 = ORIENTED_EDGE('',*,*,#39,.T.);
#853 = ORIENTED_EDGE('',*,*,#854,.T.);
#854 = EDGE_CURVE('',#40,#523,#855,.T.);
#855 = LINE('',#856,#857);
#856 = CARTESIAN_POINT('',(-8.,11.,-54.));
#857 = VECTOR('',#858,1.);
#858 = DIRECTION('',(-0.628337107088,0.777941180204,0.));
#859 = ORIENTED_EDGE('',*,*,#530,.F.);
#860 = ORIENTED_EDGE('',*,*,#861,.F.);
#861 = EDGE_CURVE('',#32,#531,#862,.T.);
#862 = LINE('',#863,#864);
#863 = CARTESIAN_POINT('',(-8.,11.,-58.));
#864 = VECTOR('',#865,1.);
#865 = DIRECTION('',(-0.628337107088,0.777941180204,0.));
#866 = PLANE('',#867);
#867 = AXIS2_PLACEMENT_3D('',#868,#869,#870);
#868 = CARTESIAN_POINT('',(-8.,11.,-58.));
#869 = DIRECTION('',(-0.777941180204,-0.628337107088,0.));
#870 = DIRECTION('',(-0.628337107088,0.777941180204,0.));
#871 = ADVANCED_FACE('',(#872),#888,.T.);
#872 = FACE_BOUND('',#873,.T.);
#873 = EDGE_LOOP('',(#874,#880,#881,#887));
#874 = ORIENTED_EDGE('',*,*,#875,.F.);
#875 = EDGE_CURVE('',#513,#40,#876,.T.);
#876 = LINE('',#877,#878);
#877 = CARTESIAN_POINT('',(-18.5,11.,-54.));
#878 = VECTOR('',#879,1.);
#879 = DIRECTION('',(1.,0.,0.));
#880 = ORIENTED_EDGE('',*,*,#512,.T.);
#881 = ORIENTED_EDGE('',*,*,#882,.T.);
#882 = EDGE_CURVE('',#515,#48,#883,.T.);
#883 = LINE('',#884,#885);
#884 = CARTESIAN_POINT('',(-18.5,11.,-2.));
#885 = VECTOR('',#886,1.);
#886 = DIRECTION('',(1.,0.,0.));
#887 = ORIENTED_EDGE('',*,*,#47,.F.);
#888 = PLANE('',#889);
#889 = AXIS2_PLACEMENT_3D('',#890,#891,#892);
#890 = CARTESIAN_POINT('',(-60.,11.,-58.));
#891 = DIRECTION('',(-0.,1.,0.));
#892 = DIRECTION('',(0.,0.,1.));
#893 = ADVANCED_FACE('',(#894),#910,.F.);
#894 = FACE_BOUND('',#895,.F.);
#895 = EDGE_LOOP('',(#896,#897,#903,#904));
#896 = ORIENTED_EDGE('',*,*,#55,.T.);
#897 = ORIENTED_EDGE('',*,*,#898,.T.);
#898 = EDGE_CURVE('',#56,#578,#899,.T.);
#899 = LINE('',#900,#901);
#900 = CARTESIAN_POINT('',(-8.,11.,2.));
#901 = VECTOR('',#902,1.);
#902 = DIRECTION('',(-0.628337107088,0.777941180204,0.));
#903 = ORIENTED_EDGE('',*,*,#585,.F.);
#904 = ORIENTED_EDGE('',*,*,#905,.F.);
#905 = EDGE_CURVE('',#48,#586,#906,.T.);
#906 = LINE('',#907,#908);
#907 = CARTESIAN_POINT('',(-8.,11.,-2.));
#908 = VECTOR('',#909,1.);
#909 = DIRECTION('',(-0.628337107088,0.777941180204,0.));
#910 = PLANE('',#911);
#911 = AXIS2_PLACEMENT_3D('',#912,#913,#914);
#912 = CARTESIAN_POINT('',(-8.,11.,-2.));
#913 = DIRECTION('',(-0.777941180204,-0.628337107088,0.));
#914 = DIRECTION('',(-0.628337107088,0.777941180204,0.));
#915 = ADVANCED_FACE('',(#916),#932,.T.);
#916 = FACE_BOUND('',#917,.T.);
#917 = EDGE_LOOP('',(#918,#924,#925,#931));
#918 = ORIENTED_EDGE('',*,*,#919,.F.);
#919 = EDGE_CURVE('',#570,#56,#920,.T.);
#920 = LINE('',#921,#922);
#921 = CARTESIAN_POINT('',(-18.5,11.,2.));
#922 = VECTOR('',#923,1.);
#923 = DIRECTION('',(1.,0.,0.));
#924 = ORIENTED_EDGE('',*,*,#569,.T.);
#925 = ORIENTED_EDGE('',*,*,#926,.T.);
#926 = EDGE_CURVE('',#562,#64,#927,.T.);
#927 = LINE('',#928,#929);
#928 = CARTESIAN_POINT('',(-18.5,11.,54.));
#929 = VECTOR('',#930,1.);
#930 = DIRECTION('',(1.,0.,0.));
#931 = ORIENTED_EDGE('',*,*,#63,.F.);
#932 = PLANE('',#933);
#933 = AXIS2_PLACEMENT_3D('',#934,#935,#936);
#934 = CARTESIAN_POINT('',(-60.,11.,-58.));
#935 = DIRECTION('',(-0.,1.,0.));
#936 = DIRECTION('',(0.,0.,1.));
#937 = ADVANCED_FACE('',(#938),#949,.F.);
#938 = FACE_BOUND('',#939,.F.);
#939 = EDGE_LOOP('',(#940,#941,#947,#948));
#940 = ORIENTED_EDGE('',*,*,#601,.F.);
#941 = ORIENTED_EDGE('',*,*,#942,.F.);
#942 = EDGE_CURVE('',#388,#602,#943,.T.);
#943 = LINE('',#944,#945);
#944 = CARTESIAN_POINT('',(-23.5,49.37373356841,-39.88493919567));
#945 = VECTOR('',#946,1.);
#946 = DIRECTION('',(1.,0.,0.));
#947 = ORIENTED_EDGE('',*,*,#387,.T.);
#948 = ORIENTED_EDGE('',*,*,#942,.T.);
#949 = CYLINDRICAL_SURFACE('',#950,1.7);
#950 = AXIS2_PLACEMENT_3D('',#951,#952,#953);
#951 = CARTESIAN_POINT('',(-23.5,49.37373356841,-41.58493919567));
#952 = DIRECTION('',(1.,0.,0.));
#953 = DIRECTION('',(-0.,0.,1.));
#954 = ADVANCED_FACE('',(#955),#966,.F.);
#955 = FACE_BOUND('',#956,.F.);
#956 = EDGE_LOOP('',(#957,#958,#964,#965));
#957 = ORIENTED_EDGE('',*,*,#612,.F.);
#958 = ORIENTED_EDGE('',*,*,#959,.F.);
#959 = EDGE_CURVE('',#399,#613,#960,.T.);
#960 = LINE('',#961,#962);
#961 = CARTESIAN_POINT('',(-23.5,45.584939195677,-12.92626643159));
#962 = VECTOR('',#963,1.);
#963 = DIRECTION('',(1.,0.,0.));
#964 = ORIENTED_EDGE('',*,*,#398,.T.);
#965 = ORIENTED_EDGE('',*,*,#959,.T.);
#966 = CYLINDRICAL_SURFACE('',#967,1.7);
#967 = AXIS2_PLACEMENT_3D('',#968,#969,#970);
#968 = CARTESIAN_POINT('',(-23.5,45.584939195677,-14.62626643159));
#969 = DIRECTION('',(1.,0.,0.));
#970 = DIRECTION('',(-0.,0.,1.));
#971 = ADVANCED_FACE('',(#972),#983,.F.);
#972 = FACE_BOUND('',#973,.F.);
#973 = EDGE_LOOP('',(#974,#975,#981,#982));
#974 = ORIENTED_EDGE('',*,*,#623,.F.);
#975 = ORIENTED_EDGE('',*,*,#976,.F.);
#976 = EDGE_CURVE('',#410,#624,#977,.T.);
#977 = LINE('',#978,#979);
#978 = CARTESIAN_POINT('',(-23.5,49.37373356841,20.115060804323));
#979 = VECTOR('',#980,1.);
#980 = DIRECTION('',(1.,0.,0.));
#981 = ORIENTED_EDGE('',*,*,#409,.T.);
#982 = ORIENTED_EDGE('',*,*,#976,.T.);
#983 = CYLINDRICAL_SURFACE('',#984,1.7);
#984 = AXIS2_PLACEMENT_3D('',#985,#986,#987);
#985 = CARTESIAN_POINT('',(-23.5,49.37373356841,18.415060804323));
#986 = DIRECTION('',(1.,0.,0.));
#987 = DIRECTION('',(-0.,0.,1.));
#988 = ADVANCED_FACE('',(#989),#1000,.F.);
#989 = FACE_BOUND('',#990,.F.);
#990 = EDGE_LOOP('',(#991,#992,#998,#999));
#991 = ORIENTED_EDGE('',*,*,#634,.F.);
#992 = ORIENTED_EDGE('',*,*,#993,.F.);
#993 = EDGE_CURVE('',#421,#635,#994,.T.);
#994 = LINE('',#995,#996);
#995 = CARTESIAN_POINT('',(-23.5,45.584939195677,47.07373356841));
#996 = VECTOR('',#997,1.);
#997 = DIRECTION('',(1.,0.,0.));
#998 = ORIENTED_EDGE('',*,*,#420,.T.);
#999 = ORIENTED_EDGE('',*,*,#993,.T.);
#1000 = CYLINDRICAL_SURFACE('',#1001,1.7);
#1001 = AXIS2_PLACEMENT_3D('',#1002,#1003,#1004);
#1002 = CARTESIAN_POINT('',(-23.5,45.584939195677,45.37373356841));
#1003 = DIRECTION('',(1.,0.,0.));
#1004 = DIRECTION('',(-0.,0.,1.));
#1005 = ADVANCED_FACE('',(#1006),#1017,.F.);
#1006 = FACE_BOUND('',#1007,.F.);
#1007 = EDGE_LOOP('',(#1008,#1009,#1015,#1016));
#1008 = ORIENTED_EDGE('',*,*,#645,.F.);
#1009 = ORIENTED_EDGE('',*,*,#1010,.F.);
#1010 = EDGE_CURVE('',#432,#646,#1011,.T.);
#1011 = LINE('',#1012,#1013);
#1012 = CARTESIAN_POINT('',(-23.5,22.415060804323,-43.67373356841));
#1013 = VECTOR('',#1014,1.);
#1014 = DIRECTION('',(1.,0.,0.));
#1015 = ORIENTED_EDGE('',*,*,#431,.T.);
#1016 = ORIENTED_EDGE('',*,*,#1010,.T.);
#1017 = CYLINDRICAL_SURFACE('',#1018,1.7);
#1018 = AXIS2_PLACEMENT_3D('',#1019,#1020,#1021);
#1019 = CARTESIAN_POINT('',(-23.5,22.415060804323,-45.37373356841));
#1020 = DIRECTION('',(1.,0.,0.));
#1021 = DIRECTION('',(-0.,0.,1.));
#1022 = ADVANCED_FACE('',(#1023),#1034,.F.);
#1023 = FACE_BOUND('',#1024,.F.);
#1024 = EDGE_LOOP('',(#1025,#1026,#1032,#1033));
#1025 = ORIENTED_EDGE('',*,*,#656,.F.);
#1026 = ORIENTED_EDGE('',*,*,#1027,.F.);
#1027 = EDGE_CURVE('',#443,#657,#1028,.T.);
#1028 = LINE('',#1029,#1030);
#1029 = CARTESIAN_POINT('',(-23.5,18.62626643159,-16.71506080432));
#1030 = VECTOR('',#1031,1.);
#1031 = DIRECTION('',(1.,0.,0.));
#1032 = ORIENTED_EDGE('',*,*,#442,.T.);
#1033 = ORIENTED_EDGE('',*,*,#1027,.T.);
#1034 = CYLINDRICAL_SURFACE('',#1035,1.7);
#1035 = AXIS2_PLACEMENT_3D('',#1036,#1037,#1038);
#1036 = CARTESIAN_POINT('',(-23.5,18.62626643159,-18.41506080432));
#1037 = DIRECTION('',(1.,0.,0.));
#1038 = DIRECTION('',(-0.,0.,1.));
#1039 = ADVANCED_FACE('',(#1040),#1051,.F.);
#1040 = FACE_BOUND('',#1041,.F.);
#1041 = EDGE_LOOP('',(#1042,#1043,#1049,#1050));
#1042 = ORIENTED_EDGE('',*,*,#667,.F.);
#1043 = ORIENTED_EDGE('',*,*,#1044,.F.);
#1044 = EDGE_CURVE('',#454,#668,#1045,.T.);
#1045 = LINE('',#1046,#1047);
#1046 = CARTESIAN_POINT('',(-23.5,22.415060804323,16.32626643159));
#1047 = VECTOR('',#1048,1.);
#1048 = DIRECTION('',(1.,0.,0.));
#1049 = ORIENTED_EDGE('',*,*,#453,.T.);
#1050 = ORIENTED_EDGE('',*,*,#1044,.T.);
#1051 = CYLINDRICAL_SURFACE('',#1052,1.7);
#1052 = AXIS2_PLACEMENT_3D('',#1053,#1054,#1055);
#1053 = CARTESIAN_POINT('',(-23.5,22.415060804323,14.62626643159));
#1054 = DIRECTION('',(1.,0.,0.));
#1055 = DIRECTION('',(-0.,0.,1.));
#1056 = ADVANCED_FACE('',(#1057),#1068,.F.);
#1057 = FACE_BOUND('',#1058,.F.);
#1058 = EDGE_LOOP('',(#1059,#1060,#1066,#1067));
#1059 = ORIENTED_EDGE('',*,*,#678,.F.);
#1060 = ORIENTED_EDGE('',*,*,#1061,.F.);
#1061 = EDGE_CURVE('',#465,#679,#1062,.T.);
#1062 = LINE('',#1063,#1064);
#1063 = CARTESIAN_POINT('',(-23.5,18.62626643159,43.284939195677));
#1064 = VECTOR('',#1065,1.);
#1065 = DIRECTION('',(1.,0.,0.));
#1066 = ORIENTED_EDGE('',*,*,#464,.T.);
#1067 = ORIENTED_EDGE('',*,*,#1061,.T.);
#1068 = CYLINDRICAL_SURFACE('',#1069,1.7);
#1069 = AXIS2_PLACEMENT_3D('',#1070,#1071,#1072);
#1070 = CARTESIAN_POINT('',(-23.5,18.62626643159,41.584939195677));
#1071 = DIRECTION('',(1.,0.,0.));
#1072 = DIRECTION('',(-0.,0.,1.));
#1073 = ADVANCED_FACE('',(#1074),#1079,.T.);
#1074 = FACE_BOUND('',#1075,.T.);
#1075 = EDGE_LOOP('',(#1076,#1077,#1078));
#1076 = ORIENTED_EDGE('',*,*,#875,.T.);
#1077 = ORIENTED_EDGE('',*,*,#854,.T.);
#1078 = ORIENTED_EDGE('',*,*,#522,.T.);
#1079 = PLANE('',#1080);
#1080 = AXIS2_PLACEMENT_3D('',#1081,#1082,#1083);
#1081 = CARTESIAN_POINT('',(-14.94730625823,15.802693741767,-54.));
#1082 = DIRECTION('',(0.,0.,1.));
#1083 = DIRECTION('',(1.,0.,-0.));
#1084 = ADVANCED_FACE('',(#1085),#1090,.F.);
#1085 = FACE_BOUND('',#1086,.F.);
#1086 = EDGE_LOOP('',(#1087,#1088,#1089));
#1087 = ORIENTED_EDGE('',*,*,#882,.T.);
#1088 = ORIENTED_EDGE('',*,*,#905,.T.);
#1089 = ORIENTED_EDGE('',*,*,#593,.T.);
#1090 = PLANE('',#1091);
#1091 = AXIS2_PLACEMENT_3D('',#1092,#1093,#1094);
#1092 = CARTESIAN_POINT('',(-14.94730625823,15.802693741767,-2.));
#1093 = DIRECTION('',(0.,0.,1.));
#1094 = DIRECTION('',(1.,0.,-0.));
#1095 = ADVANCED_FACE('',(#1096),#1101,.T.);
#1096 = FACE_BOUND('',#1097,.T.);
#1097 = EDGE_LOOP('',(#1098,#1099,#1100));
#1098 = ORIENTED_EDGE('',*,*,#919,.T.);
#1099 = ORIENTED_EDGE('',*,*,#898,.T.);
#1100 = ORIENTED_EDGE('',*,*,#577,.T.);
#1101 = PLANE('',#1102);
#1102 = AXIS2_PLACEMENT_3D('',#1103,#1104,#1105);
#1103 = CARTESIAN_POINT('',(-14.94730625823,15.802693741767,2.));
#1104 = DIRECTION('',(0.,0.,1.));
#1105 = DIRECTION('',(1.,0.,-0.));
#1106 = ADVANCED_FACE('',(#1107),#1112,.F.);
#1107 = FACE_BOUND('',#1108,.F.);
#1108 = EDGE_LOOP('',(#1109,#1110,#1111));
#1109 = ORIENTED_EDGE('',*,*,#926,.T.);
#1110 = ORIENTED_EDGE('',*,*,#839,.T.);
#1111 = ORIENTED_EDGE('',*,*,#561,.T.);
#1112 = PLANE('',#1113);
#1113 = AXIS2_PLACEMENT_3D('',#1114,#1115,#1116);
#1114 = CARTESIAN_POINT('',(-14.94730625823,15.802693741767,54.));
#1115 = DIRECTION('',(0.,0.,1.));
#1116 = DIRECTION('',(1.,0.,-0.));
#1117 = ADVANCED_FACE('',(#1118),#1128,.T.);
#1118 = FACE_BOUND('',#1119,.T.);
#1119 = EDGE_LOOP('',(#1120,#1121,#1122,#1123,#1124,#1125,#1126,#1127));
#1120 = ORIENTED_EDGE('',*,*,#252,.F.);
#1121 = ORIENTED_EDGE('',*,*,#229,.F.);
#1122 = ORIENTED_EDGE('',*,*,#109,.T.);
#1123 = ORIENTED_EDGE('',*,*,#79,.T.);
#1124 = ORIENTED_EDGE('',*,*,#832,.T.);
#1125 = ORIENTED_EDGE('',*,*,#545,.T.);
#1126 = ORIENTED_EDGE('',*,*,#490,.F.);
#1127 = ORIENTED_EDGE('',*,*,#379,.F.);
#1128 = PLANE('',#1129);
#1129 = AXIS2_PLACEMENT_3D('',#1130,#1131,#1132);
#1130 = CARTESIAN_POINT('',(-28.02337866793,21.554523482997,58.));
#1131 = DIRECTION('',(0.,0.,1.));
#1132 = DIRECTION('',(1.,0.,-0.));
#1133 = ADVANCED_FACE('',(#1134),#1144,.T.);
#1134 = FACE_BOUND('',#1135,.T.);
#1135 = EDGE_LOOP('',(#1136,#1137,#1138,#1139,#1140,#1141,#1142,#1143));
#1136 = ORIENTED_EDGE('',*,*,#243,.T.);
#1137 = ORIENTED_EDGE('',*,*,#363,.T.);
#1138 = ORIENTED_EDGE('',*,*,#481,.T.);
#1139 = ORIENTED_EDGE('',*,*,#538,.F.);
#1140 = ORIENTED_EDGE('',*,*,#861,.F.);
#1141 = ORIENTED_EDGE('',*,*,#31,.F.);
#1142 = ORIENTED_EDGE('',*,*,#93,.F.);
#1143 = ORIENTED_EDGE('',*,*,#213,.T.);
#1144 = PLANE('',#1145);
#1145 = AXIS2_PLACEMENT_3D('',#1146,#1147,#1148);
#1146 = CARTESIAN_POINT('',(-28.02337866793,21.554523482997,-58.));
#1147 = DIRECTION('',(-0.,-0.,-1.));
#1148 = DIRECTION('',(-1.,0.,0.));
#1149 = ( GEOMETRIC_REPRESENTATION_CONTEXT(3) 
GLOBAL_UNCERTAINTY_ASSIGNED_CONTEXT((#1153)) 
GLOBAL_UNIT_ASSIGNED_CONTEXT((#1150,#1151,#1152)) REPRESENTATION_CONTEXT
('Context #1','3D Context with UNIT and UNCERTAINTY') );
#1150 = ( LENGTH_UNIT() NAMED_UNIT(*) SI_UNIT(.MILLI.,.METRE.) );
#1151 = ( NAMED_UNIT(*) PLANE_ANGLE_UNIT() SI_UNIT($,.RADIAN.) );
#1152 = ( NAMED_UNIT(*) SI_UNIT($,.STERADIAN.) SOLID_ANGLE_UNIT() );
#1153 = UNCERTAINTY_MEASURE_WITH_UNIT(LENGTH_MEASURE(1.E-07),#1150,
  'distance_accuracy_value','confusion accuracy');
#1154 = PRODUCT_RELATED_PRODUCT_CATEGORY('part',$,(#7));
ENDSEC;
END-ISO-10303-21;
