ISO-10303-21;
HEADER;
FILE_DESCRIPTION(('FreeCAD Model'),'2;1');
FILE_NAME('Open CASCADE Shape Model','2026-08-25T08:36:44',('Author'),(
    ''),'Open CASCADE STEP processor 7.8','FreeCAD','Unknown');
FILE_SCHEMA(('AUTOMOTIVE_DESIGN { 1 0 10303 214 1 1 1 1 }'));
ENDSEC;
DATA;
#1 = APPLICATION_PROTOCOL_DEFINITION('international standard',
  'automotive_design',2000,#2);
#2 = APPLICATION_CONTEXT(
  'core data for automotive mechanical design processes');
#3 = SHAPE_DEFINITION_REPRESENTATION(#4,#10);
#4 = PRODUCT_DEFINITION_SHAPE('','',#5);
#5 = PRODUCT_DEFINITION('design','',#6,#9);
#6 = PRODUCT_DEFINITION_FORMATION('','',#7);
#7 = PRODUCT('EduLite_offset_proximal_link',
  'EduLite_offset_proximal_link','',(#8));
#8 = PRODUCT_CONTEXT('',#2,'mechanical');
#9 = PRODUCT_DEFINITION_CONTEXT('part definition',#2,'design');
#10 = ADVANCED_BREP_SHAPE_REPRESENTATION('',(#11,#15),#1727);
#11 = AXIS2_PLACEMENT_3D('',#12,#13,#14);
#12 = CARTESIAN_POINT('',(0.,0.,0.));
#13 = DIRECTION('',(0.,0.,1.));
#14 = DIRECTION('',(1.,0.,-0.));
#15 = MANIFOLD_SOLID_BREP('',#16);
#16 = CLOSED_SHELL('',(#17,#63,#97,#137,#170,#201,#225,#673,#704,#729,
    #754,#778,#802,#820,#851,#882,#907,#931,#956,#987,#1012,#1036,#1061,
    #1086,#1131,#1176,#1201,#1226,#1271,#1316,#1361,#1392,#1417,#1441,
    #1466,#1491,#1653,#1667,#1681,#1695,#1709));
#17 = ADVANCED_FACE('',(#18,#38),#58,.T.);
#18 = FACE_BOUND('',#19,.T.);
#19 = EDGE_LOOP('',(#20,#31));
#20 = ORIENTED_EDGE('',*,*,#21,.F.);
#21 = EDGE_CURVE('',#22,#24,#26,.T.);
#22 = VERTEX_POINT('',#23);
#23 = CARTESIAN_POINT('',(-74.5,22.014931708706,78.587736498555));
#24 = VERTEX_POINT('',#25);
#25 = CARTESIAN_POINT('',(-74.5,26.131323580255,79.421593776419));
#26 = CIRCLE('',#27,2.1);
#27 = AXIS2_PLACEMENT_3D('',#28,#29,#30);
#28 = CARTESIAN_POINT('',(-74.5,24.073127644481,79.004665137487));
#29 = DIRECTION('',(1.,-5.147528311179E-16,3.488356627965E-16));
#30 = DIRECTION('',(4.352488603975E-16,0.98009330275,0.19853744711));
#31 = ORIENTED_EDGE('',*,*,#32,.F.);
#32 = EDGE_CURVE('',#24,#22,#33,.T.);
#33 = CIRCLE('',#34,2.1);
#34 = AXIS2_PLACEMENT_3D('',#35,#36,#37);
#35 = CARTESIAN_POINT('',(-74.5,24.073127644481,79.004665137487));
#36 = DIRECTION('',(1.,-5.147528311179E-16,3.488356627965E-16));
#37 = DIRECTION('',(4.352488603975E-16,0.98009330275,0.19853744711));
#38 = FACE_BOUND('',#39,.T.);
#39 = EDGE_LOOP('',(#40,#51));
#40 = ORIENTED_EDGE('',*,*,#41,.T.);
#41 = EDGE_CURVE('',#42,#44,#46,.T.);
#42 = VERTEX_POINT('',#43);
#43 = CARTESIAN_POINT('',(-74.5,17.114465194958,77.595049263003));
#44 = VERTEX_POINT('',#45);
#45 = CARTESIAN_POINT('',(-74.5,31.031790094004,80.414281011971));
#46 = CIRCLE('',#47,7.1);
#47 = AXIS2_PLACEMENT_3D('',#48,#49,#50);
#48 = CARTESIAN_POINT('',(-74.5,24.073127644481,79.004665137487));
#49 = DIRECTION('',(1.,-5.147528311179E-16,3.488356627965E-16));
#50 = DIRECTION('',(4.352488603975E-16,0.98009330275,0.19853744711));
#51 = ORIENTED_EDGE('',*,*,#52,.T.);
#52 = EDGE_CURVE('',#44,#42,#53,.T.);
#53 = CIRCLE('',#54,7.1);
#54 = AXIS2_PLACEMENT_3D('',#55,#56,#57);
#55 = CARTESIAN_POINT('',(-74.5,24.073127644481,79.004665137487));
#56 = DIRECTION('',(1.,-5.147528311179E-16,3.488356627965E-16));
#57 = DIRECTION('',(4.352488603975E-16,0.98009330275,0.19853744711));
#58 = PLANE('',#59);
#59 = AXIS2_PLACEMENT_3D('',#60,#61,#62);
#60 = CARTESIAN_POINT('',(-74.5,34.,30.));
#61 = DIRECTION('',(1.,-5.147528311179E-16,3.488356627965E-16));
#62 = DIRECTION('',(4.352488603975E-16,0.98009330275,0.19853744711));
#63 = ADVANCED_FACE('',(#64),#92,.F.);
#64 = FACE_BOUND('',#65,.F.);
#65 = EDGE_LOOP('',(#66,#67,#74,#83,#90,#91));
#66 = ORIENTED_EDGE('',*,*,#21,.F.);
#67 = ORIENTED_EDGE('',*,*,#68,.T.);
#68 = EDGE_CURVE('',#22,#69,#71,.T.);
#69 = VERTEX_POINT('',#70);
#70 = CARTESIAN_POINT('',(-77.5,22.014931708706,78.587736498555));
#71 = B_SPLINE_CURVE_WITH_KNOTS('',1,(#72,#73),.UNSPECIFIED.,.F.,.F.,(2,
    2),(0.,3.),.PIECEWISE_BEZIER_KNOTS.);
#72 = CARTESIAN_POINT('',(-74.5,22.014931708706,78.587736498555));
#73 = CARTESIAN_POINT('',(-77.5,22.014931708706,78.587736498555));
#74 = ORIENTED_EDGE('',*,*,#75,.T.);
#75 = EDGE_CURVE('',#69,#76,#78,.T.);
#76 = VERTEX_POINT('',#77);
#77 = CARTESIAN_POINT('',(-77.5,26.131323580255,79.421593776419));
#78 = CIRCLE('',#79,2.1);
#79 = AXIS2_PLACEMENT_3D('',#80,#81,#82);
#80 = CARTESIAN_POINT('',(-77.5,24.073127644481,79.004665137487));
#81 = DIRECTION('',(1.,-5.147528311179E-16,3.488356627965E-16));
#82 = DIRECTION('',(4.352488603975E-16,0.98009330275,0.19853744711));
#83 = ORIENTED_EDGE('',*,*,#84,.T.);
#84 = EDGE_CURVE('',#76,#69,#85,.T.);
#85 = CIRCLE('',#86,2.1);
#86 = AXIS2_PLACEMENT_3D('',#87,#88,#89);
#87 = CARTESIAN_POINT('',(-77.5,24.073127644481,79.004665137487));
#88 = DIRECTION('',(1.,-5.147528311179E-16,3.488356627965E-16));
#89 = DIRECTION('',(4.352488603975E-16,0.98009330275,0.19853744711));
#90 = ORIENTED_EDGE('',*,*,#68,.F.);
#91 = ORIENTED_EDGE('',*,*,#32,.F.);
#92 = CYLINDRICAL_SURFACE('',#93,2.1);
#93 = AXIS2_PLACEMENT_3D('',#94,#95,#96);
#94 = CARTESIAN_POINT('',(-74.5,24.073127644481,79.004665137487));
#95 = DIRECTION('',(-1.,5.147528311179E-16,-3.488356627965E-16));
#96 = DIRECTION('',(-4.352488603975E-16,-0.98009330275,-0.19853744711));
#97 = ADVANCED_FACE('',(#98),#132,.T.);
#98 = FACE_BOUND('',#99,.T.);
#99 = EDGE_LOOP('',(#100,#110,#118,#126));
#100 = ORIENTED_EDGE('',*,*,#101,.F.);
#101 = EDGE_CURVE('',#102,#104,#106,.T.);
#102 = VERTEX_POINT('',#103);
#103 = CARTESIAN_POINT('',(-77.5,17.23608493572,38.942659096577));
#104 = VERTEX_POINT('',#105);
#105 = CARTESIAN_POINT('',(-77.5,14.104772284152,78.209749160668));
#106 = LINE('',#107,#108);
#107 = CARTESIAN_POINT('',(-77.5,18.050631423474,28.72813443709));
#108 = VECTOR('',#109,1.);
#109 = DIRECTION('',(-3.886503098679E-16,-7.949159768187E-02,
    0.996835536033));
#110 = ORIENTED_EDGE('',*,*,#111,.T.);
#111 = EDGE_CURVE('',#102,#112,#114,.T.);
#112 = VERTEX_POINT('',#113);
#113 = CARTESIAN_POINT('',(-72.5,17.23608493572,38.942659096577));
#114 = LINE('',#115,#116);
#115 = CARTESIAN_POINT('',(-77.5,17.23608493572,38.942659096578));
#116 = VECTOR('',#117,1.);
#117 = DIRECTION('',(1.,0.,0.));
#118 = ORIENTED_EDGE('',*,*,#119,.T.);
#119 = EDGE_CURVE('',#112,#120,#122,.T.);
#120 = VERTEX_POINT('',#121);
#121 = CARTESIAN_POINT('',(-72.5,14.104772284152,78.209749160668));
#122 = LINE('',#123,#124);
#123 = CARTESIAN_POINT('',(-72.5,18.050631423474,28.72813443709));
#124 = VECTOR('',#125,1.);
#125 = DIRECTION('',(-3.886503098679E-16,-7.949159768187E-02,
    0.996835536033));
#126 = ORIENTED_EDGE('',*,*,#127,.T.);
#127 = EDGE_CURVE('',#120,#104,#128,.T.);
#128 = LINE('',#129,#130);
#129 = CARTESIAN_POINT('',(-72.5,14.104772284152,78.209749160668));
#130 = VECTOR('',#131,1.);
#131 = DIRECTION('',(-1.,5.147528311179E-16,-3.488356627965E-16));
#132 = PLANE('',#133);
#133 = AXIS2_PLACEMENT_3D('',#134,#135,#136);
#134 = CARTESIAN_POINT('',(-72.5,18.050631423474,28.72813443709));
#135 = DIRECTION('',(-4.853944101678E-16,-0.996835536033,
    -7.949159768187E-02));
#136 = DIRECTION('',(3.886503098679E-16,7.949159768187E-02,
    -0.996835536033));
#137 = ADVANCED_FACE('',(#138),#165,.T.);
#138 = FACE_BOUND('',#139,.T.);
#139 = EDGE_LOOP('',(#140,#149,#150,#159));
#140 = ORIENTED_EDGE('',*,*,#141,.T.);
#141 = EDGE_CURVE('',#142,#104,#144,.T.);
#142 = VERTEX_POINT('',#143);
#143 = CARTESIAN_POINT('',(-77.5,33.564993131745,82.151805040905));
#144 = CIRCLE('',#145,10.);
#145 = AXIS2_PLACEMENT_3D('',#146,#147,#148);
#146 = CARTESIAN_POINT('',(-77.5,24.073127644481,79.004665137487));
#147 = DIRECTION('',(1.,-5.147528311179E-16,3.488356627965E-16));
#148 = DIRECTION('',(4.352488603975E-16,0.98009330275,0.19853744711));
#149 = ORIENTED_EDGE('',*,*,#127,.F.);
#150 = ORIENTED_EDGE('',*,*,#151,.F.);
#151 = EDGE_CURVE('',#152,#120,#154,.T.);
#152 = VERTEX_POINT('',#153);
#153 = CARTESIAN_POINT('',(-72.5,33.564993131745,82.151805040905));
#154 = CIRCLE('',#155,10.);
#155 = AXIS2_PLACEMENT_3D('',#156,#157,#158);
#156 = CARTESIAN_POINT('',(-72.5,24.073127644481,79.004665137487));
#157 = DIRECTION('',(1.,-5.147528311179E-16,3.488356627965E-16));
#158 = DIRECTION('',(4.352488603975E-16,0.98009330275,0.19853744711));
#159 = ORIENTED_EDGE('',*,*,#160,.T.);
#160 = EDGE_CURVE('',#152,#142,#161,.T.);
#161 = LINE('',#162,#163);
#162 = CARTESIAN_POINT('',(-72.5,33.564993131745,82.151805040905));
#163 = VECTOR('',#164,1.);
#164 = DIRECTION('',(-1.,5.147528311179E-16,-3.488356627965E-16));
#165 = CYLINDRICAL_SURFACE('',#166,10.);
#166 = AXIS2_PLACEMENT_3D('',#167,#168,#169);
#167 = CARTESIAN_POINT('',(-72.5,24.073127644481,79.004665137487));
#168 = DIRECTION('',(-1.,5.147528311179E-16,-3.488356627965E-16));
#169 = DIRECTION('',(-4.352488603975E-16,-0.98009330275,-0.19853744711)
  );
#170 = ADVANCED_FACE('',(#171),#196,.F.);
#171 = FACE_BOUND('',#172,.F.);
#172 = EDGE_LOOP('',(#173,#181,#189,#195));
#173 = ORIENTED_EDGE('',*,*,#174,.F.);
#174 = EDGE_CURVE('',#175,#142,#177,.T.);
#175 = VERTEX_POINT('',#176);
#176 = CARTESIAN_POINT('',(-77.5,45.962126015232,44.761691677979));
#177 = LINE('',#178,#179);
#178 = CARTESIAN_POINT('',(-77.5,49.186984779622,35.035423845469));
#179 = VECTOR('',#180,1.);
#180 = DIRECTION('',(-4.931100363633E-16,-0.314713990342,0.949186548726)
  );
#181 = ORIENTED_EDGE('',*,*,#182,.T.);
#182 = EDGE_CURVE('',#175,#183,#185,.T.);
#183 = VERTEX_POINT('',#184);
#184 = CARTESIAN_POINT('',(-72.5,45.962126015232,44.761691677979));
#185 = LINE('',#186,#187);
#186 = CARTESIAN_POINT('',(-77.5,45.962126015231,44.76169167798));
#187 = VECTOR('',#188,1.);
#188 = DIRECTION('',(1.,0.,0.));
#189 = ORIENTED_EDGE('',*,*,#190,.T.);
#190 = EDGE_CURVE('',#183,#152,#191,.T.);
#191 = LINE('',#192,#193);
#192 = CARTESIAN_POINT('',(-72.5,49.186984779622,35.035423845469));
#193 = VECTOR('',#194,1.);
#194 = DIRECTION('',(-4.931100363633E-16,-0.314713990342,0.949186548726)
  );
#195 = ORIENTED_EDGE('',*,*,#160,.T.);
#196 = PLANE('',#197);
#197 = AXIS2_PLACEMENT_3D('',#198,#199,#200);
#198 = CARTESIAN_POINT('',(-72.5,49.186984779622,35.035423845469));
#199 = DIRECTION('',(-3.788129998038E-16,-0.949186548726,-0.314713990342
    ));
#200 = DIRECTION('',(4.931100363633E-16,0.314713990342,-0.949186548726)
  );
#201 = ADVANCED_FACE('',(#202),#220,.T.);
#202 = FACE_BOUND('',#203,.T.);
#203 = EDGE_LOOP('',(#204,#211,#212,#219));
#204 = ORIENTED_EDGE('',*,*,#205,.F.);
#205 = EDGE_CURVE('',#112,#183,#206,.T.);
#206 = CIRCLE('',#207,19.);
#207 = AXIS2_PLACEMENT_3D('',#208,#209,#210);
#208 = CARTESIAN_POINT('',(-72.5,34.,30.));
#209 = DIRECTION('',(1.,0.,0.));
#210 = DIRECTION('',(-0.,0.,1.));
#211 = ORIENTED_EDGE('',*,*,#111,.F.);
#212 = ORIENTED_EDGE('',*,*,#213,.T.);
#213 = EDGE_CURVE('',#102,#175,#214,.T.);
#214 = CIRCLE('',#215,19.);
#215 = AXIS2_PLACEMENT_3D('',#216,#217,#218);
#216 = CARTESIAN_POINT('',(-77.5,34.,30.));
#217 = DIRECTION('',(1.,0.,0.));
#218 = DIRECTION('',(-0.,0.,1.));
#219 = ORIENTED_EDGE('',*,*,#182,.T.);
#220 = CYLINDRICAL_SURFACE('',#221,19.);
#221 = AXIS2_PLACEMENT_3D('',#222,#223,#224);
#222 = CARTESIAN_POINT('',(-77.5,34.,30.));
#223 = DIRECTION('',(1.,0.,0.));
#224 = DIRECTION('',(-0.,0.,1.));
#225 = ADVANCED_FACE('',(#226,#232,#285,#356,#367,#412,#423,#434,#463,
    #492,#503,#514,#543,#572,#601,#605),#668,.T.);
#226 = FACE_BOUND('',#227,.T.);
#227 = EDGE_LOOP('',(#228,#229,#230,#231));
#228 = ORIENTED_EDGE('',*,*,#101,.T.);
#229 = ORIENTED_EDGE('',*,*,#141,.F.);
#230 = ORIENTED_EDGE('',*,*,#174,.F.);
#231 = ORIENTED_EDGE('',*,*,#213,.F.);
#232 = FACE_BOUND('',#233,.T.);
#233 = EDGE_LOOP('',(#234,#244,#253,#261,#270,#278));
#234 = ORIENTED_EDGE('',*,*,#235,.F.);
#235 = EDGE_CURVE('',#236,#238,#240,.T.);
#236 = VERTEX_POINT('',#237);
#237 = CARTESIAN_POINT('',(-77.5,35.634347953376,53.882312581545));
#238 = VERTEX_POINT('',#239);
#239 = CARTESIAN_POINT('',(-77.5,30.457887935566,60.161953794312));
#240 = LINE('',#241,#242);
#241 = CARTESIAN_POINT('',(-77.5,46.694840258487,40.464663633479));
#242 = VECTOR('',#243,1.);
#243 = DIRECTION('',(-5.965919623548E-16,-0.636072606993,0.771629210588)
  );
#244 = ORIENTED_EDGE('',*,*,#245,.T.);
#245 = EDGE_CURVE('',#236,#246,#248,.T.);
#246 = VERTEX_POINT('',#247);
#247 = CARTESIAN_POINT('',(-77.5,37.355163712691,54.833099178879));
#248 = CIRCLE('',#249,1.);
#249 = AXIS2_PLACEMENT_3D('',#250,#251,#252);
#250 = CARTESIAN_POINT('',(-77.5,36.405977163964,54.518385188538));
#251 = DIRECTION('',(1.,-5.147528311179E-16,3.488356627965E-16));
#252 = DIRECTION('',(4.352488603975E-16,0.98009330275,0.19853744711));
#253 = ORIENTED_EDGE('',*,*,#254,.T.);
#254 = EDGE_CURVE('',#246,#255,#257,.T.);
#255 = VERTEX_POINT('',#256);
#256 = CARTESIAN_POINT('',(-77.5,33.643538673716,66.027468253747));
#257 = LINE('',#258,#259);
#258 = CARTESIAN_POINT('',(-77.5,44.44105203599,33.46185389376));
#259 = VECTOR('',#260,1.);
#260 = DIRECTION('',(-4.931100363633E-16,-0.314713990342,0.949186548726)
  );
#261 = ORIENTED_EDGE('',*,*,#262,.T.);
#262 = EDGE_CURVE('',#255,#263,#265,.T.);
#263 = VERTEX_POINT('',#264);
#264 = CARTESIAN_POINT('',(-77.5,31.736013054339,65.998387289619));
#265 = CIRCLE('',#266,1.);
#266 = AXIS2_PLACEMENT_3D('',#267,#268,#269);
#267 = CARTESIAN_POINT('',(-77.5,32.69435212499,65.712754263405));
#268 = DIRECTION('',(1.,-5.147528311179E-16,3.488356627965E-16));
#269 = DIRECTION('',(4.352488603975E-16,0.98009330275,0.19853744711));
#270 = ORIENTED_EDGE('',*,*,#271,.F.);
#271 = EDGE_CURVE('',#272,#263,#274,.T.);
#272 = VERTEX_POINT('',#273);
#273 = CARTESIAN_POINT('',(-77.5,30.271178075504,61.083659427519));
#274 = LINE('',#275,#276);
#275 = CARTESIAN_POINT('',(-77.5,22.066766256676,33.55670114161));
#276 = VECTOR('',#277,1.);
#277 = DIRECTION('',(-1.872724359893E-16,0.285633026215,0.958339070651)
  );
#278 = ORIENTED_EDGE('',*,*,#279,.T.);
#279 = EDGE_CURVE('',#272,#238,#280,.T.);
#280 = CIRCLE('',#281,1.);
#281 = AXIS2_PLACEMENT_3D('',#282,#283,#284);
#282 = CARTESIAN_POINT('',(-77.5,31.229517146155,60.798026401305));
#283 = DIRECTION('',(1.,-5.147528311179E-16,3.488356627965E-16));
#284 = DIRECTION('',(4.352488603975E-16,0.98009330275,0.19853744711));
#285 = FACE_BOUND('',#286,.T.);
#286 = EDGE_LOOP('',(#287,#297,#306,#315,#323,#332,#340,#349));
#287 = ORIENTED_EDGE('',*,*,#288,.T.);
#288 = EDGE_CURVE('',#289,#291,#293,.T.);
#289 = VERTEX_POINT('',#290);
#290 = CARTESIAN_POINT('',(-77.5,23.200204415151,51.363528800289));
#291 = VERTEX_POINT('',#292);
#292 = CARTESIAN_POINT('',(-77.5,25.524731401081,59.162644543035));
#293 = LINE('',#294,#295);
#294 = CARTESIAN_POINT('',(-77.5,18.233409974074,34.699233246469));
#295 = VECTOR('',#296,1.);
#296 = DIRECTION('',(-1.872724359893E-16,0.285633026215,0.958339070651)
  );
#297 = ORIENTED_EDGE('',*,*,#298,.T.);
#298 = EDGE_CURVE('',#291,#299,#301,.T.);
#299 = VERTEX_POINT('',#300);
#300 = CARTESIAN_POINT('',(-77.5,25.546485633181,59.64681501636));
#301 = CIRCLE('',#302,1.);
#302 = AXIS2_PLACEMENT_3D('',#303,#304,#305);
#303 = CARTESIAN_POINT('',(-77.5,24.566392330431,59.448277569249));
#304 = DIRECTION('',(1.,-5.147528311179E-16,3.488356627965E-16));
#305 = DIRECTION('',(4.352488603975E-16,0.98009330275,0.19853744711));
#306 = ORIENTED_EDGE('',*,*,#307,.T.);
#307 = EDGE_CURVE('',#299,#308,#310,.T.);
#308 = VERTEX_POINT('',#309);
#309 = CARTESIAN_POINT('',(-77.5,25.338021541019,60.084350176242));
#310 = CIRCLE('',#311,1.);
#311 = AXIS2_PLACEMENT_3D('',#312,#313,#314);
#312 = CARTESIAN_POINT('',(-77.5,24.566392330431,59.448277569249));
#313 = DIRECTION('',(1.,-5.147528311179E-16,3.488356627965E-16));
#314 = DIRECTION('',(4.352488603975E-16,0.98009330275,0.19853744711));
#315 = ORIENTED_EDGE('',*,*,#316,.T.);
#316 = EDGE_CURVE('',#308,#317,#319,.T.);
#317 = VERTEX_POINT('',#318);
#318 = CARTESIAN_POINT('',(-77.5,22.075998881561,64.041558743263));
#319 = LINE('',#320,#321);
#320 = CARTESIAN_POINT('',(-77.5,43.608323416133,37.920373205507));
#321 = VECTOR('',#322,1.);
#322 = DIRECTION('',(-5.965919623548E-16,-0.636072606993,0.771629210588)
  );
#323 = ORIENTED_EDGE('',*,*,#324,.T.);
#324 = EDGE_CURVE('',#317,#325,#327,.T.);
#325 = VERTEX_POINT('',#326);
#326 = CARTESIAN_POINT('',(-77.5,20.307534134939,63.325994538588));
#327 = CIRCLE('',#328,1.);
#328 = AXIS2_PLACEMENT_3D('',#329,#330,#331);
#329 = CARTESIAN_POINT('',(-77.5,21.304369670972,63.40548613627));
#330 = DIRECTION('',(1.,-5.147528311179E-16,3.488356627965E-16));
#331 = DIRECTION('',(4.352488603975E-16,0.98009330275,0.19853744711));
#332 = ORIENTED_EDGE('',*,*,#333,.F.);
#333 = EDGE_CURVE('',#334,#325,#336,.T.);
#334 = VERTEX_POINT('',#335);
#335 = CARTESIAN_POINT('',(-77.5,21.245029808467,51.569670228822));
#336 = LINE('',#337,#338);
#337 = CARTESIAN_POINT('',(-77.5,23.034809103638,29.125592425499));
#338 = VECTOR('',#339,1.);
#339 = DIRECTION('',(-3.886503098679E-16,-7.949159768187E-02,
    0.996835536033));
#340 = ORIENTED_EDGE('',*,*,#341,.T.);
#341 = EDGE_CURVE('',#334,#342,#344,.T.);
#342 = VERTEX_POINT('',#343);
#343 = CARTESIAN_POINT('',(-77.5,21.26177204175,51.450624379393));
#344 = CIRCLE('',#345,1.);
#345 = AXIS2_PLACEMENT_3D('',#346,#347,#348);
#346 = CARTESIAN_POINT('',(-77.5,22.2418653445,51.649161826504));
#347 = DIRECTION('',(1.,-5.147528311179E-16,3.488356627965E-16));
#348 = DIRECTION('',(4.352488603975E-16,0.98009330275,0.19853744711));
#349 = ORIENTED_EDGE('',*,*,#350,.T.);
#350 = EDGE_CURVE('',#342,#289,#351,.T.);
#351 = CIRCLE('',#352,1.);
#352 = AXIS2_PLACEMENT_3D('',#353,#354,#355);
#353 = CARTESIAN_POINT('',(-77.5,22.2418653445,51.649161826504));
#354 = DIRECTION('',(1.,-5.147528311179E-16,3.488356627965E-16));
#355 = DIRECTION('',(4.352488603975E-16,0.98009330275,0.19853744711));
#356 = FACE_BOUND('',#357,.T.);
#357 = EDGE_LOOP('',(#358));
#358 = ORIENTED_EDGE('',*,*,#359,.T.);
#359 = EDGE_CURVE('',#360,#360,#362,.T.);
#360 = VERTEX_POINT('',#361);
#361 = CARTESIAN_POINT('',(-77.5,34.,35.));
#362 = CIRCLE('',#363,5.);
#363 = AXIS2_PLACEMENT_3D('',#364,#365,#366);
#364 = CARTESIAN_POINT('',(-77.5,34.,30.));
#365 = DIRECTION('',(1.,0.,0.));
#366 = DIRECTION('',(-0.,0.,1.));
#367 = FACE_BOUND('',#368,.T.);
#368 = EDGE_LOOP('',(#369,#380,#388,#397,#405));
#369 = ORIENTED_EDGE('',*,*,#370,.F.);
#370 = EDGE_CURVE('',#371,#373,#375,.T.);
#371 = VERTEX_POINT('',#372);
#372 = CARTESIAN_POINT('',(-77.5,34.480120595266,48.993932826406));
#373 = VERTEX_POINT('',#374);
#374 = CARTESIAN_POINT('',(-77.5,34.,49.));
#375 = CIRCLE('',#376,19.);
#376 = AXIS2_PLACEMENT_3D('',#377,#378,#379);
#377 = CARTESIAN_POINT('',(-77.5,34.,30.));
#378 = DIRECTION('',(1.,0.,0.));
#379 = DIRECTION('',(-0.,0.,1.));
#380 = ORIENTED_EDGE('',*,*,#381,.T.);
#381 = EDGE_CURVE('',#371,#382,#384,.T.);
#382 = VERTEX_POINT('',#383);
#383 = CARTESIAN_POINT('',(-77.5,29.936269636246,54.506146510809));
#384 = LINE('',#385,#386);
#385 = CARTESIAN_POINT('',(-77.5,43.608323416133,37.920373205507));
#386 = VECTOR('',#387,1.);
#387 = DIRECTION('',(-5.965919623548E-16,-0.636072606993,0.771629210588)
  );
#388 = ORIENTED_EDGE('',*,*,#389,.T.);
#389 = EDGE_CURVE('',#382,#390,#392,.T.);
#390 = VERTEX_POINT('',#391);
#391 = CARTESIAN_POINT('',(-77.5,28.206301355007,54.155706930031));
#392 = CIRCLE('',#393,1.);
#393 = AXIS2_PLACEMENT_3D('',#394,#395,#396);
#394 = CARTESIAN_POINT('',(-77.5,29.164640425658,53.870073903816));
#395 = DIRECTION('',(1.,-5.147528311179E-16,3.488356627965E-16));
#396 = DIRECTION('',(4.352488603975E-16,0.98009330275,0.19853744711));
#397 = ORIENTED_EDGE('',*,*,#398,.F.);
#398 = EDGE_CURVE('',#399,#390,#401,.T.);
#399 = VERTEX_POINT('',#400);
#400 = CARTESIAN_POINT('',(-77.5,26.165852063802,47.309711901524));
#401 = LINE('',#402,#403);
#402 = CARTESIAN_POINT('',(-77.5,22.066766256676,33.55670114161));
#403 = VECTOR('',#404,1.);
#404 = DIRECTION('',(-1.872724359893E-16,0.285633026215,0.958339070651)
  );
#405 = ORIENTED_EDGE('',*,*,#406,.F.);
#406 = EDGE_CURVE('',#373,#399,#407,.T.);
#407 = CIRCLE('',#408,19.);
#408 = AXIS2_PLACEMENT_3D('',#409,#410,#411);
#409 = CARTESIAN_POINT('',(-77.5,34.,30.));
#410 = DIRECTION('',(1.,0.,0.));
#411 = DIRECTION('',(-0.,0.,1.));
#412 = FACE_BOUND('',#413,.T.);
#413 = EDGE_LOOP('',(#414));
#414 = ORIENTED_EDGE('',*,*,#415,.T.);
#415 = EDGE_CURVE('',#416,#416,#418,.T.);
#416 = VERTEX_POINT('',#417);
#417 = CARTESIAN_POINT('',(-77.5,28.,21.757695154587));
#418 = CIRCLE('',#419,2.15);
#419 = AXIS2_PLACEMENT_3D('',#420,#421,#422);
#420 = CARTESIAN_POINT('',(-77.5,28.,19.607695154587));
#421 = DIRECTION('',(1.,0.,0.));
#422 = DIRECTION('',(-0.,0.,1.));
#423 = FACE_BOUND('',#424,.T.);
#424 = EDGE_LOOP('',(#425));
#425 = ORIENTED_EDGE('',*,*,#426,.T.);
#426 = EDGE_CURVE('',#427,#427,#429,.T.);
#427 = VERTEX_POINT('',#428);
#428 = CARTESIAN_POINT('',(-77.5,40.,21.757695154587));
#429 = CIRCLE('',#430,2.15);
#430 = AXIS2_PLACEMENT_3D('',#431,#432,#433);
#431 = CARTESIAN_POINT('',(-77.5,40.,19.607695154587));
#432 = DIRECTION('',(1.,0.,0.));
#433 = DIRECTION('',(-0.,0.,1.));
#434 = FACE_BOUND('',#435,.T.);
#435 = EDGE_LOOP('',(#436,#447,#456));
#436 = ORIENTED_EDGE('',*,*,#437,.T.);
#437 = EDGE_CURVE('',#438,#440,#442,.T.);
#438 = VERTEX_POINT('',#439);
#439 = CARTESIAN_POINT('',(-77.5,44.440151124924,31.479652488568));
#440 = VERTEX_POINT('',#441);
#441 = CARTESIAN_POINT('',(-77.5,47.235031008073,31.759885907978));
#442 = CIRCLE('',#443,2.15);
#443 = AXIS2_PLACEMENT_3D('',#444,#445,#446);
#444 = CARTESIAN_POINT('',(-77.5,46.,30.));
#445 = DIRECTION('',(1.,0.,0.));
#446 = DIRECTION('',(-0.,0.,1.));
#447 = ORIENTED_EDGE('',*,*,#448,.T.);
#448 = EDGE_CURVE('',#440,#449,#451,.T.);
#449 = VERTEX_POINT('',#450);
#450 = CARTESIAN_POINT('',(-77.5,46.,32.15));
#451 = CIRCLE('',#452,2.15);
#452 = AXIS2_PLACEMENT_3D('',#453,#454,#455);
#453 = CARTESIAN_POINT('',(-77.5,46.,30.));
#454 = DIRECTION('',(1.,0.,0.));
#455 = DIRECTION('',(-0.,0.,1.));
#456 = ORIENTED_EDGE('',*,*,#457,.T.);
#457 = EDGE_CURVE('',#449,#438,#458,.T.);
#458 = CIRCLE('',#459,2.15);
#459 = AXIS2_PLACEMENT_3D('',#460,#461,#462);
#460 = CARTESIAN_POINT('',(-77.5,46.,30.));
#461 = DIRECTION('',(1.,0.,0.));
#462 = DIRECTION('',(-0.,0.,1.));
#463 = FACE_BOUND('',#464,.T.);
#464 = EDGE_LOOP('',(#465,#476,#485));
#465 = ORIENTED_EDGE('',*,*,#466,.T.);
#466 = EDGE_CURVE('',#467,#469,#471,.T.);
#467 = VERTEX_POINT('',#468);
#468 = CARTESIAN_POINT('',(-77.5,23.559848875075,28.520347511432));
#469 = VERTEX_POINT('',#470);
#470 = CARTESIAN_POINT('',(-77.5,22.,32.15));
#471 = CIRCLE('',#472,2.15);
#472 = AXIS2_PLACEMENT_3D('',#473,#474,#475);
#473 = CARTESIAN_POINT('',(-77.5,22.,30.));
#474 = DIRECTION('',(1.,0.,0.));
#475 = DIRECTION('',(-0.,0.,1.));
#476 = ORIENTED_EDGE('',*,*,#477,.T.);
#477 = EDGE_CURVE('',#469,#478,#480,.T.);
#478 = VERTEX_POINT('',#479);
#479 = CARTESIAN_POINT('',(-77.5,20.764968991928,28.240114092022));
#480 = CIRCLE('',#481,2.15);
#481 = AXIS2_PLACEMENT_3D('',#482,#483,#484);
#482 = CARTESIAN_POINT('',(-77.5,22.,30.));
#483 = DIRECTION('',(1.,0.,0.));
#484 = DIRECTION('',(-0.,0.,1.));
#485 = ORIENTED_EDGE('',*,*,#486,.T.);
#486 = EDGE_CURVE('',#478,#467,#487,.T.);
#487 = CIRCLE('',#488,2.15);
#488 = AXIS2_PLACEMENT_3D('',#489,#490,#491);
#489 = CARTESIAN_POINT('',(-77.5,22.,30.));
#490 = DIRECTION('',(1.,0.,0.));
#491 = DIRECTION('',(-0.,0.,1.));
#492 = FACE_BOUND('',#493,.T.);
#493 = EDGE_LOOP('',(#494));
#494 = ORIENTED_EDGE('',*,*,#495,.T.);
#495 = EDGE_CURVE('',#496,#496,#498,.T.);
#496 = VERTEX_POINT('',#497);
#497 = CARTESIAN_POINT('',(-77.5,28.,42.542304845413));
#498 = CIRCLE('',#499,2.15);
#499 = AXIS2_PLACEMENT_3D('',#500,#501,#502);
#500 = CARTESIAN_POINT('',(-77.5,28.,40.392304845413));
#501 = DIRECTION('',(1.,0.,0.));
#502 = DIRECTION('',(-0.,0.,1.));
#503 = FACE_BOUND('',#504,.T.);
#504 = EDGE_LOOP('',(#505));
#505 = ORIENTED_EDGE('',*,*,#506,.T.);
#506 = EDGE_CURVE('',#507,#507,#509,.T.);
#507 = VERTEX_POINT('',#508);
#508 = CARTESIAN_POINT('',(-77.5,40.,42.542304845413));
#509 = CIRCLE('',#510,2.15);
#510 = AXIS2_PLACEMENT_3D('',#511,#512,#513);
#511 = CARTESIAN_POINT('',(-77.5,40.,40.392304845413));
#512 = DIRECTION('',(1.,0.,0.));
#513 = DIRECTION('',(-0.,0.,1.));
#514 = FACE_BOUND('',#515,.T.);
#515 = EDGE_LOOP('',(#516,#527,#536));
#516 = ORIENTED_EDGE('',*,*,#517,.T.);
#517 = EDGE_CURVE('',#518,#520,#522,.T.);
#518 = VERTEX_POINT('',#519);
#519 = CARTESIAN_POINT('',(-77.5,32.18618342836,22.208333333333));
#520 = VERTEX_POINT('',#521);
#521 = CARTESIAN_POINT('',(-77.5,35.81381657164,22.208333333333));
#522 = CIRCLE('',#523,2.1);
#523 = AXIS2_PLACEMENT_3D('',#524,#525,#526);
#524 = CARTESIAN_POINT('',(-77.5,34.,21.15));
#525 = DIRECTION('',(1.,0.,0.));
#526 = DIRECTION('',(-0.,0.,1.));
#527 = ORIENTED_EDGE('',*,*,#528,.T.);
#528 = EDGE_CURVE('',#520,#529,#531,.T.);
#529 = VERTEX_POINT('',#530);
#530 = CARTESIAN_POINT('',(-77.5,34.,23.25));
#531 = CIRCLE('',#532,2.1);
#532 = AXIS2_PLACEMENT_3D('',#533,#534,#535);
#533 = CARTESIAN_POINT('',(-77.5,34.,21.15));
#534 = DIRECTION('',(1.,0.,0.));
#535 = DIRECTION('',(-0.,0.,1.));
#536 = ORIENTED_EDGE('',*,*,#537,.T.);
#537 = EDGE_CURVE('',#529,#518,#538,.T.);
#538 = CIRCLE('',#539,2.1);
#539 = AXIS2_PLACEMENT_3D('',#540,#541,#542);
#540 = CARTESIAN_POINT('',(-77.5,34.,21.15));
#541 = DIRECTION('',(1.,0.,0.));
#542 = DIRECTION('',(-0.,0.,1.));
#543 = FACE_BOUND('',#544,.T.);
#544 = EDGE_LOOP('',(#545,#556,#565));
#545 = ORIENTED_EDGE('',*,*,#546,.T.);
#546 = EDGE_CURVE('',#547,#549,#551,.T.);
#547 = VERTEX_POINT('',#548);
#548 = CARTESIAN_POINT('',(-77.5,41.654689556974,32.325022104488));
#549 = VERTEX_POINT('',#550);
#550 = CARTESIAN_POINT('',(-77.5,41.664324823492,36.525));
#551 = CIRCLE('',#552,2.1);
#552 = AXIS2_PLACEMENT_3D('',#553,#554,#555);
#553 = CARTESIAN_POINT('',(-77.5,41.664324823492,34.425));
#554 = DIRECTION('',(1.,0.,0.));
#555 = DIRECTION('',(-0.,0.,1.));
#556 = ORIENTED_EDGE('',*,*,#557,.T.);
#557 = EDGE_CURVE('',#549,#558,#560,.T.);
#558 = VERTEX_POINT('',#559);
#559 = CARTESIAN_POINT('',(-77.5,39.840872985334,35.466644562179));
#560 = CIRCLE('',#561,2.1);
#561 = AXIS2_PLACEMENT_3D('',#562,#563,#564);
#562 = CARTESIAN_POINT('',(-77.5,41.664324823492,34.425));
#563 = DIRECTION('',(1.,0.,0.));
#564 = DIRECTION('',(-0.,0.,1.));
#565 = ORIENTED_EDGE('',*,*,#566,.T.);
#566 = EDGE_CURVE('',#558,#547,#567,.T.);
#567 = CIRCLE('',#568,2.1);
#568 = AXIS2_PLACEMENT_3D('',#569,#570,#571);
#569 = CARTESIAN_POINT('',(-77.5,41.664324823492,34.425));
#570 = DIRECTION('',(1.,0.,0.));
#571 = DIRECTION('',(-0.,0.,1.));
#572 = FACE_BOUND('',#573,.T.);
#573 = EDGE_LOOP('',(#574,#585,#594));
#574 = ORIENTED_EDGE('',*,*,#575,.T.);
#575 = EDGE_CURVE('',#576,#578,#580,.T.);
#576 = VERTEX_POINT('',#577);
#577 = CARTESIAN_POINT('',(-77.5,28.159127014666,35.466644562178));
#578 = VERTEX_POINT('',#579);
#579 = CARTESIAN_POINT('',(-77.5,26.335675176508,36.525));
#580 = CIRCLE('',#581,2.1);
#581 = AXIS2_PLACEMENT_3D('',#582,#583,#584);
#582 = CARTESIAN_POINT('',(-77.5,26.335675176508,34.425));
#583 = DIRECTION('',(1.,0.,0.));
#584 = DIRECTION('',(-0.,0.,1.));
#585 = ORIENTED_EDGE('',*,*,#586,.T.);
#586 = EDGE_CURVE('',#578,#587,#589,.T.);
#587 = VERTEX_POINT('',#588);
#588 = CARTESIAN_POINT('',(-77.5,26.345310443026,32.325022104488));
#589 = CIRCLE('',#590,2.1);
#590 = AXIS2_PLACEMENT_3D('',#591,#592,#593);
#591 = CARTESIAN_POINT('',(-77.5,26.335675176508,34.425));
#592 = DIRECTION('',(1.,0.,0.));
#593 = DIRECTION('',(-0.,0.,1.));
#594 = ORIENTED_EDGE('',*,*,#595,.T.);
#595 = EDGE_CURVE('',#587,#576,#596,.T.);
#596 = CIRCLE('',#597,2.1);
#597 = AXIS2_PLACEMENT_3D('',#598,#599,#600);
#598 = CARTESIAN_POINT('',(-77.5,26.335675176508,34.425));
#599 = DIRECTION('',(1.,0.,0.));
#600 = DIRECTION('',(-0.,0.,1.));
#601 = FACE_BOUND('',#602,.T.);
#602 = EDGE_LOOP('',(#603,#604));
#603 = ORIENTED_EDGE('',*,*,#75,.T.);
#604 = ORIENTED_EDGE('',*,*,#84,.T.);
#605 = FACE_BOUND('',#606,.T.);
#606 = EDGE_LOOP('',(#607,#617,#626,#634,#643,#652,#661));
#607 = ORIENTED_EDGE('',*,*,#608,.F.);
#608 = EDGE_CURVE('',#609,#611,#613,.T.);
#609 = VERTEX_POINT('',#610);
#610 = CARTESIAN_POINT('',(-77.5,25.85963984034,65.740157459745));
#611 = VERTEX_POINT('',#612);
#612 = CARTESIAN_POINT('',(-77.5,24.466301123282,67.430437535487));
#613 = LINE('',#614,#615);
#614 = CARTESIAN_POINT('',(-77.5,46.694840258487,40.464663633478));
#615 = VECTOR('',#616,1.);
#616 = DIRECTION('',(-5.965919623548E-16,-0.636072606993,0.771629210588)
  );
#617 = ORIENTED_EDGE('',*,*,#618,.T.);
#618 = EDGE_CURVE('',#609,#619,#621,.T.);
#619 = VERTEX_POINT('',#620);
#620 = CARTESIAN_POINT('',(-77.5,27.589608121579,66.090597040523));
#621 = CIRCLE('',#622,1.);
#622 = AXIS2_PLACEMENT_3D('',#623,#624,#625);
#623 = CARTESIAN_POINT('',(-77.5,26.631269050928,66.376230066738));
#624 = DIRECTION('',(1.,-5.147528311179E-16,3.488356627965E-16));
#625 = DIRECTION('',(4.352488603975E-16,0.98009330275,0.19853744711));
#626 = ORIENTED_EDGE('',*,*,#627,.T.);
#627 = EDGE_CURVE('',#619,#628,#630,.T.);
#628 = VERTEX_POINT('',#629);
#629 = CARTESIAN_POINT('',(-77.5,28.21529699722,68.189871426068));
#630 = LINE('',#631,#632);
#631 = CARTESIAN_POINT('',(-77.5,18.233409974074,34.699233246469));
#632 = VECTOR('',#633,1.);
#633 = DIRECTION('',(-1.872724359893E-16,0.285633026215,0.958339070651)
  );
#634 = ORIENTED_EDGE('',*,*,#635,.T.);
#635 = EDGE_CURVE('',#628,#636,#638,.T.);
#636 = VERTEX_POINT('',#637);
#637 = CARTESIAN_POINT('',(-77.5,26.967518810016,69.43270087821));
#638 = CIRCLE('',#639,1.);
#639 = AXIS2_PLACEMENT_3D('',#640,#641,#642);
#640 = CARTESIAN_POINT('',(-77.5,27.256957926569,68.475504452282));
#641 = DIRECTION('',(1.,-5.147528311179E-16,3.488356627965E-16));
#642 = DIRECTION('',(4.352488603975E-16,0.98009330275,0.19853744711));
#643 = ORIENTED_EDGE('',*,*,#644,.F.);
#644 = EDGE_CURVE('',#645,#636,#647,.T.);
#645 = VERTEX_POINT('',#646);
#646 = CARTESIAN_POINT('',(-77.5,25.132039180289,69.060887869299));
#647 = CIRCLE('',#648,10.);
#648 = AXIS2_PLACEMENT_3D('',#649,#650,#651);
#649 = CARTESIAN_POINT('',(-77.5,24.073127644481,79.004665137487));
#650 = DIRECTION('',(1.,-5.147528311179E-16,3.488356627965E-16));
#651 = DIRECTION('',(4.352488603975E-16,0.98009330275,0.19853744711));
#652 = ORIENTED_EDGE('',*,*,#653,.T.);
#653 = EDGE_CURVE('',#645,#654,#656,.T.);
#654 = VERTEX_POINT('',#655);
#655 = CARTESIAN_POINT('',(-77.5,24.25783703112,67.86797269537));
#656 = CIRCLE('',#657,1.);
#657 = AXIS2_PLACEMENT_3D('',#658,#659,#660);
#658 = CARTESIAN_POINT('',(-77.5,25.23793033387,68.06651014248));
#659 = DIRECTION('',(1.,-5.147528311179E-16,3.488356627965E-16));
#660 = DIRECTION('',(4.352488603975E-16,0.98009330275,0.19853744711));
#661 = ORIENTED_EDGE('',*,*,#662,.T.);
#662 = EDGE_CURVE('',#654,#611,#663,.T.);
#663 = CIRCLE('',#664,1.);
#664 = AXIS2_PLACEMENT_3D('',#665,#666,#667);
#665 = CARTESIAN_POINT('',(-77.5,25.23793033387,68.06651014248));
#666 = DIRECTION('',(1.,-5.147528311179E-16,3.488356627965E-16));
#667 = DIRECTION('',(4.352488603975E-16,0.98009330275,0.19853744711));
#668 = PLANE('',#669);
#669 = AXIS2_PLACEMENT_3D('',#670,#671,#672);
#670 = CARTESIAN_POINT('',(-77.5,30.068010887418,49.410525580012));
#671 = DIRECTION('',(-1.,2.572211483705E-16,-0.));
#672 = DIRECTION('',(-2.572211483705E-16,-1.,0.));
#673 = ADVANCED_FACE('',(#674),#699,.F.);
#674 = FACE_BOUND('',#675,.T.);
#675 = EDGE_LOOP('',(#676,#677,#685,#693));
#676 = ORIENTED_EDGE('',*,*,#235,.T.);
#677 = ORIENTED_EDGE('',*,*,#678,.T.);
#678 = EDGE_CURVE('',#238,#679,#681,.T.);
#679 = VERTEX_POINT('',#680);
#680 = CARTESIAN_POINT('',(-72.5,30.457887935566,60.161953794312));
#681 = LINE('',#682,#683);
#682 = CARTESIAN_POINT('',(-72.5,30.457887935566,60.161953794312));
#683 = VECTOR('',#684,1.);
#684 = DIRECTION('',(1.,-5.147528311179E-16,3.488356627965E-16));
#685 = ORIENTED_EDGE('',*,*,#686,.F.);
#686 = EDGE_CURVE('',#687,#679,#689,.T.);
#687 = VERTEX_POINT('',#688);
#688 = CARTESIAN_POINT('',(-72.5,35.634347953376,53.882312581545));
#689 = LINE('',#690,#691);
#690 = CARTESIAN_POINT('',(-72.5,46.694840258487,40.464663633479));
#691 = VECTOR('',#692,1.);
#692 = DIRECTION('',(-5.965919623548E-16,-0.636072606993,0.771629210588)
  );
#693 = ORIENTED_EDGE('',*,*,#694,.T.);
#694 = EDGE_CURVE('',#687,#236,#695,.T.);
#695 = LINE('',#696,#697);
#696 = CARTESIAN_POINT('',(-72.5,35.634347953376,53.882312581545));
#697 = VECTOR('',#698,1.);
#698 = DIRECTION('',(-1.,5.147528311179E-16,-3.488356627965E-16));
#699 = PLANE('',#700);
#700 = AXIS2_PLACEMENT_3D('',#701,#702,#703);
#701 = CARTESIAN_POINT('',(-72.5,46.694840258487,40.464663633479));
#702 = DIRECTION('',(-1.753135112766E-16,-0.771629210588,-0.636072606993
    ));
#703 = DIRECTION('',(5.965919623548E-16,0.636072606993,-0.771629210588)
  );
#704 = ADVANCED_FACE('',(#705),#724,.F.);
#705 = FACE_BOUND('',#706,.F.);
#706 = EDGE_LOOP('',(#707,#708,#709,#717));
#707 = ORIENTED_EDGE('',*,*,#694,.T.);
#708 = ORIENTED_EDGE('',*,*,#245,.T.);
#709 = ORIENTED_EDGE('',*,*,#710,.T.);
#710 = EDGE_CURVE('',#246,#711,#713,.T.);
#711 = VERTEX_POINT('',#712);
#712 = CARTESIAN_POINT('',(-72.5,37.355163712691,54.833099178879));
#713 = LINE('',#714,#715);
#714 = CARTESIAN_POINT('',(-72.5,37.355163712691,54.833099178879));
#715 = VECTOR('',#716,1.);
#716 = DIRECTION('',(1.,-5.147528311179E-16,3.488356627965E-16));
#717 = ORIENTED_EDGE('',*,*,#718,.T.);
#718 = EDGE_CURVE('',#711,#687,#719,.T.);
#719 = CIRCLE('',#720,1.);
#720 = AXIS2_PLACEMENT_3D('',#721,#722,#723);
#721 = CARTESIAN_POINT('',(-72.5,36.405977163964,54.518385188538));
#722 = DIRECTION('',(-1.,5.147528311179E-16,-3.488356627965E-16));
#723 = DIRECTION('',(4.352488603975E-16,0.98009330275,0.19853744711));
#724 = CYLINDRICAL_SURFACE('',#725,1.);
#725 = AXIS2_PLACEMENT_3D('',#726,#727,#728);
#726 = CARTESIAN_POINT('',(-72.5,36.405977163964,54.518385188538));
#727 = DIRECTION('',(-1.,5.147528311179E-16,-3.488356627965E-16));
#728 = DIRECTION('',(-4.352488603975E-16,-0.98009330275,-0.19853744711)
  );
#729 = ADVANCED_FACE('',(#730),#749,.F.);
#730 = FACE_BOUND('',#731,.F.);
#731 = EDGE_LOOP('',(#732,#740,#741,#742));
#732 = ORIENTED_EDGE('',*,*,#733,.T.);
#733 = EDGE_CURVE('',#734,#272,#736,.T.);
#734 = VERTEX_POINT('',#735);
#735 = CARTESIAN_POINT('',(-72.5,30.271178075504,61.083659427519));
#736 = LINE('',#737,#738);
#737 = CARTESIAN_POINT('',(-77.5,30.271178075504,61.083659427519));
#738 = VECTOR('',#739,1.);
#739 = DIRECTION('',(-1.,5.147528311179E-16,-3.488356627965E-16));
#740 = ORIENTED_EDGE('',*,*,#279,.T.);
#741 = ORIENTED_EDGE('',*,*,#678,.T.);
#742 = ORIENTED_EDGE('',*,*,#743,.T.);
#743 = EDGE_CURVE('',#679,#734,#744,.T.);
#744 = CIRCLE('',#745,1.);
#745 = AXIS2_PLACEMENT_3D('',#746,#747,#748);
#746 = CARTESIAN_POINT('',(-72.5,31.229517146155,60.798026401305));
#747 = DIRECTION('',(-1.,5.147528311179E-16,-3.488356627965E-16));
#748 = DIRECTION('',(4.352488603975E-16,0.98009330275,0.19853744711));
#749 = CYLINDRICAL_SURFACE('',#750,1.);
#750 = AXIS2_PLACEMENT_3D('',#751,#752,#753);
#751 = CARTESIAN_POINT('',(-72.5,31.229517146155,60.798026401305));
#752 = DIRECTION('',(1.,-5.147528311179E-16,3.488356627965E-16));
#753 = DIRECTION('',(4.352488603975E-16,0.98009330275,0.19853744711));
#754 = ADVANCED_FACE('',(#755),#773,.T.);
#755 = FACE_BOUND('',#756,.T.);
#756 = EDGE_LOOP('',(#757,#758,#759,#767));
#757 = ORIENTED_EDGE('',*,*,#254,.F.);
#758 = ORIENTED_EDGE('',*,*,#710,.T.);
#759 = ORIENTED_EDGE('',*,*,#760,.T.);
#760 = EDGE_CURVE('',#711,#761,#763,.T.);
#761 = VERTEX_POINT('',#762);
#762 = CARTESIAN_POINT('',(-72.5,33.643538673716,66.027468253747));
#763 = LINE('',#764,#765);
#764 = CARTESIAN_POINT('',(-72.5,44.44105203599,33.46185389376));
#765 = VECTOR('',#766,1.);
#766 = DIRECTION('',(-4.931100363633E-16,-0.314713990342,0.949186548726)
  );
#767 = ORIENTED_EDGE('',*,*,#768,.T.);
#768 = EDGE_CURVE('',#761,#255,#769,.T.);
#769 = LINE('',#770,#771);
#770 = CARTESIAN_POINT('',(-72.5,33.643538673716,66.027468253747));
#771 = VECTOR('',#772,1.);
#772 = DIRECTION('',(-1.,5.147528311179E-16,-3.488356627965E-16));
#773 = PLANE('',#774);
#774 = AXIS2_PLACEMENT_3D('',#775,#776,#777);
#775 = CARTESIAN_POINT('',(-72.5,44.44105203599,33.46185389376));
#776 = DIRECTION('',(-3.788129998038E-16,-0.949186548726,-0.314713990342
    ));
#777 = DIRECTION('',(4.931100363633E-16,0.314713990342,-0.949186548726)
  );
#778 = ADVANCED_FACE('',(#779),#797,.F.);
#779 = FACE_BOUND('',#780,.T.);
#780 = EDGE_LOOP('',(#781,#789,#790,#791));
#781 = ORIENTED_EDGE('',*,*,#782,.F.);
#782 = EDGE_CURVE('',#734,#783,#785,.T.);
#783 = VERTEX_POINT('',#784);
#784 = CARTESIAN_POINT('',(-72.5,31.736013054339,65.998387289619));
#785 = LINE('',#786,#787);
#786 = CARTESIAN_POINT('',(-72.5,22.066766256676,33.55670114161));
#787 = VECTOR('',#788,1.);
#788 = DIRECTION('',(-1.872724359893E-16,0.285633026215,0.958339070651)
  );
#789 = ORIENTED_EDGE('',*,*,#733,.T.);
#790 = ORIENTED_EDGE('',*,*,#271,.T.);
#791 = ORIENTED_EDGE('',*,*,#792,.T.);
#792 = EDGE_CURVE('',#263,#783,#793,.T.);
#793 = LINE('',#794,#795);
#794 = CARTESIAN_POINT('',(-72.5,31.736013054339,65.998387289619));
#795 = VECTOR('',#796,1.);
#796 = DIRECTION('',(1.,-5.147528311179E-16,3.488356627965E-16));
#797 = PLANE('',#798);
#798 = AXIS2_PLACEMENT_3D('',#799,#800,#801);
#799 = CARTESIAN_POINT('',(-72.5,22.066766256676,33.55670114161));
#800 = DIRECTION('',(-5.929467358045E-16,-0.958339070651,0.285633026215)
  );
#801 = DIRECTION('',(1.872724359893E-16,-0.285633026215,-0.958339070651)
  );
#802 = ADVANCED_FACE('',(#803),#815,.F.);
#803 = FACE_BOUND('',#804,.F.);
#804 = EDGE_LOOP('',(#805,#806,#807,#808));
#805 = ORIENTED_EDGE('',*,*,#768,.T.);
#806 = ORIENTED_EDGE('',*,*,#262,.T.);
#807 = ORIENTED_EDGE('',*,*,#792,.T.);
#808 = ORIENTED_EDGE('',*,*,#809,.T.);
#809 = EDGE_CURVE('',#783,#761,#810,.T.);
#810 = CIRCLE('',#811,1.);
#811 = AXIS2_PLACEMENT_3D('',#812,#813,#814);
#812 = CARTESIAN_POINT('',(-72.5,32.69435212499,65.712754263405));
#813 = DIRECTION('',(-1.,5.147528311179E-16,-3.488356627965E-16));
#814 = DIRECTION('',(4.352488603975E-16,0.98009330275,0.19853744711));
#815 = CYLINDRICAL_SURFACE('',#816,1.);
#816 = AXIS2_PLACEMENT_3D('',#817,#818,#819);
#817 = CARTESIAN_POINT('',(-72.5,32.69435212499,65.712754263405));
#818 = DIRECTION('',(-1.,5.147528311179E-16,-3.488356627965E-16));
#819 = DIRECTION('',(-4.352488603975E-16,-0.98009330275,-0.19853744711)
  );
#820 = ADVANCED_FACE('',(#821),#846,.T.);
#821 = FACE_BOUND('',#822,.T.);
#822 = EDGE_LOOP('',(#823,#824,#832,#840));
#823 = ORIENTED_EDGE('',*,*,#288,.F.);
#824 = ORIENTED_EDGE('',*,*,#825,.T.);
#825 = EDGE_CURVE('',#289,#826,#828,.T.);
#826 = VERTEX_POINT('',#827);
#827 = CARTESIAN_POINT('',(-72.5,23.200204415151,51.363528800289));
#828 = LINE('',#829,#830);
#829 = CARTESIAN_POINT('',(-72.5,23.200204415151,51.363528800289));
#830 = VECTOR('',#831,1.);
#831 = DIRECTION('',(1.,-5.147528311179E-16,3.488356627965E-16));
#832 = ORIENTED_EDGE('',*,*,#833,.T.);
#833 = EDGE_CURVE('',#826,#834,#836,.T.);
#834 = VERTEX_POINT('',#835);
#835 = CARTESIAN_POINT('',(-72.5,25.524731401081,59.162644543035));
#836 = LINE('',#837,#838);
#837 = CARTESIAN_POINT('',(-72.5,18.233409974074,34.699233246469));
#838 = VECTOR('',#839,1.);
#839 = DIRECTION('',(-1.872724359893E-16,0.285633026215,0.958339070651)
  );
#840 = ORIENTED_EDGE('',*,*,#841,.T.);
#841 = EDGE_CURVE('',#834,#291,#842,.T.);
#842 = LINE('',#843,#844);
#843 = CARTESIAN_POINT('',(-77.5,25.524731401081,59.162644543035));
#844 = VECTOR('',#845,1.);
#845 = DIRECTION('',(-1.,5.147528311179E-16,-3.488356627965E-16));
#846 = PLANE('',#847);
#847 = AXIS2_PLACEMENT_3D('',#848,#849,#850);
#848 = CARTESIAN_POINT('',(-72.5,18.233409974074,34.699233246469));
#849 = DIRECTION('',(-5.929467358045E-16,-0.958339070651,0.285633026215)
  );
#850 = DIRECTION('',(1.872724359893E-16,-0.285633026215,-0.958339070651)
  );
#851 = ADVANCED_FACE('',(#852),#877,.T.);
#852 = FACE_BOUND('',#853,.T.);
#853 = EDGE_LOOP('',(#854,#855,#863,#871));
#854 = ORIENTED_EDGE('',*,*,#316,.F.);
#855 = ORIENTED_EDGE('',*,*,#856,.T.);
#856 = EDGE_CURVE('',#308,#857,#859,.T.);
#857 = VERTEX_POINT('',#858);
#858 = CARTESIAN_POINT('',(-72.5,25.338021541019,60.084350176242));
#859 = LINE('',#860,#861);
#860 = CARTESIAN_POINT('',(-72.5,25.338021541019,60.084350176242));
#861 = VECTOR('',#862,1.);
#862 = DIRECTION('',(1.,-5.147528311179E-16,3.488356627965E-16));
#863 = ORIENTED_EDGE('',*,*,#864,.T.);
#864 = EDGE_CURVE('',#857,#865,#867,.T.);
#865 = VERTEX_POINT('',#866);
#866 = CARTESIAN_POINT('',(-72.5,22.075998881561,64.041558743263));
#867 = LINE('',#868,#869);
#868 = CARTESIAN_POINT('',(-72.5,43.608323416133,37.920373205507));
#869 = VECTOR('',#870,1.);
#870 = DIRECTION('',(-5.965919623548E-16,-0.636072606993,0.771629210588)
  );
#871 = ORIENTED_EDGE('',*,*,#872,.T.);
#872 = EDGE_CURVE('',#865,#317,#873,.T.);
#873 = LINE('',#874,#875);
#874 = CARTESIAN_POINT('',(-72.5,22.075998881561,64.041558743263));
#875 = VECTOR('',#876,1.);
#876 = DIRECTION('',(-1.,5.147528311179E-16,-3.488356627965E-16));
#877 = PLANE('',#878);
#878 = AXIS2_PLACEMENT_3D('',#879,#880,#881);
#879 = CARTESIAN_POINT('',(-72.5,43.608323416133,37.920373205507));
#880 = DIRECTION('',(-1.753135112766E-16,-0.771629210588,-0.636072606993
    ));
#881 = DIRECTION('',(5.965919623548E-16,0.636072606993,-0.771629210588)
  );
#882 = ADVANCED_FACE('',(#883),#902,.F.);
#883 = FACE_BOUND('',#884,.F.);
#884 = EDGE_LOOP('',(#885,#886,#887,#895));
#885 = ORIENTED_EDGE('',*,*,#872,.T.);
#886 = ORIENTED_EDGE('',*,*,#324,.T.);
#887 = ORIENTED_EDGE('',*,*,#888,.T.);
#888 = EDGE_CURVE('',#325,#889,#891,.T.);
#889 = VERTEX_POINT('',#890);
#890 = CARTESIAN_POINT('',(-72.5,20.307534134939,63.325994538588));
#891 = LINE('',#892,#893);
#892 = CARTESIAN_POINT('',(-72.5,20.307534134939,63.325994538588));
#893 = VECTOR('',#894,1.);
#894 = DIRECTION('',(1.,-5.147528311179E-16,3.488356627965E-16));
#895 = ORIENTED_EDGE('',*,*,#896,.T.);
#896 = EDGE_CURVE('',#889,#865,#897,.T.);
#897 = CIRCLE('',#898,1.);
#898 = AXIS2_PLACEMENT_3D('',#899,#900,#901);
#899 = CARTESIAN_POINT('',(-72.5,21.304369670972,63.40548613627));
#900 = DIRECTION('',(-1.,5.147528311179E-16,-3.488356627965E-16));
#901 = DIRECTION('',(4.352488603975E-16,0.98009330275,0.19853744711));
#902 = CYLINDRICAL_SURFACE('',#903,1.);
#903 = AXIS2_PLACEMENT_3D('',#904,#905,#906);
#904 = CARTESIAN_POINT('',(-72.5,21.304369670972,63.40548613627));
#905 = DIRECTION('',(-1.,5.147528311179E-16,-3.488356627965E-16));
#906 = DIRECTION('',(-4.352488603975E-16,-0.98009330275,-0.19853744711)
  );
#907 = ADVANCED_FACE('',(#908),#926,.F.);
#908 = FACE_BOUND('',#909,.T.);
#909 = EDGE_LOOP('',(#910,#918,#924,#925));
#910 = ORIENTED_EDGE('',*,*,#911,.F.);
#911 = EDGE_CURVE('',#912,#889,#914,.T.);
#912 = VERTEX_POINT('',#913);
#913 = CARTESIAN_POINT('',(-72.5,21.245029808467,51.569670228822));
#914 = LINE('',#915,#916);
#915 = CARTESIAN_POINT('',(-72.5,23.034809103638,29.125592425499));
#916 = VECTOR('',#917,1.);
#917 = DIRECTION('',(-3.886503098679E-16,-7.949159768187E-02,
    0.996835536033));
#918 = ORIENTED_EDGE('',*,*,#919,.T.);
#919 = EDGE_CURVE('',#912,#334,#920,.T.);
#920 = LINE('',#921,#922);
#921 = CARTESIAN_POINT('',(-72.5,21.245029808467,51.569670228822));
#922 = VECTOR('',#923,1.);
#923 = DIRECTION('',(-1.,5.147528311179E-16,-3.488356627965E-16));
#924 = ORIENTED_EDGE('',*,*,#333,.T.);
#925 = ORIENTED_EDGE('',*,*,#888,.T.);
#926 = PLANE('',#927);
#927 = AXIS2_PLACEMENT_3D('',#928,#929,#930);
#928 = CARTESIAN_POINT('',(-72.5,23.034809103638,29.125592425499));
#929 = DIRECTION('',(-4.853944101678E-16,-0.996835536033,
    -7.949159768187E-02));
#930 = DIRECTION('',(3.886503098679E-16,7.949159768187E-02,
    -0.996835536033));
#931 = ADVANCED_FACE('',(#932),#951,.F.);
#932 = FACE_BOUND('',#933,.F.);
#933 = EDGE_LOOP('',(#934,#943,#949,#950));
#934 = ORIENTED_EDGE('',*,*,#935,.F.);
#935 = EDGE_CURVE('',#936,#936,#938,.T.);
#936 = VERTEX_POINT('',#937);
#937 = CARTESIAN_POINT('',(-72.5,34.,35.));
#938 = CIRCLE('',#939,5.);
#939 = AXIS2_PLACEMENT_3D('',#940,#941,#942);
#940 = CARTESIAN_POINT('',(-72.5,34.,30.));
#941 = DIRECTION('',(1.,0.,0.));
#942 = DIRECTION('',(-0.,0.,1.));
#943 = ORIENTED_EDGE('',*,*,#944,.F.);
#944 = EDGE_CURVE('',#360,#936,#945,.T.);
#945 = LINE('',#946,#947);
#946 = CARTESIAN_POINT('',(-78.5,34.,35.));
#947 = VECTOR('',#948,1.);
#948 = DIRECTION('',(1.,0.,0.));
#949 = ORIENTED_EDGE('',*,*,#359,.T.);
#950 = ORIENTED_EDGE('',*,*,#944,.T.);
#951 = CYLINDRICAL_SURFACE('',#952,5.);
#952 = AXIS2_PLACEMENT_3D('',#953,#954,#955);
#953 = CARTESIAN_POINT('',(-78.5,34.,30.));
#954 = DIRECTION('',(1.,0.,0.));
#955 = DIRECTION('',(-0.,0.,1.));
#956 = ADVANCED_FACE('',(#957),#982,.T.);
#957 = FACE_BOUND('',#958,.T.);
#958 = EDGE_LOOP('',(#959,#967,#975,#981));
#959 = ORIENTED_EDGE('',*,*,#960,.T.);
#960 = EDGE_CURVE('',#371,#961,#963,.T.);
#961 = VERTEX_POINT('',#962);
#962 = CARTESIAN_POINT('',(-72.5,34.480120595266,48.993932826406));
#963 = LINE('',#964,#965);
#964 = CARTESIAN_POINT('',(-77.5,34.480120595267,48.993932826405));
#965 = VECTOR('',#966,1.);
#966 = DIRECTION('',(1.,0.,0.));
#967 = ORIENTED_EDGE('',*,*,#968,.T.);
#968 = EDGE_CURVE('',#961,#969,#971,.T.);
#969 = VERTEX_POINT('',#970);
#970 = CARTESIAN_POINT('',(-72.5,29.936269636246,54.506146510809));
#971 = LINE('',#972,#973);
#972 = CARTESIAN_POINT('',(-72.5,43.608323416133,37.920373205507));
#973 = VECTOR('',#974,1.);
#974 = DIRECTION('',(-5.965919623548E-16,-0.636072606993,0.771629210588)
  );
#975 = ORIENTED_EDGE('',*,*,#976,.T.);
#976 = EDGE_CURVE('',#969,#382,#977,.T.);
#977 = LINE('',#978,#979);
#978 = CARTESIAN_POINT('',(-72.5,29.936269636246,54.506146510809));
#979 = VECTOR('',#980,1.);
#980 = DIRECTION('',(-1.,5.147528311179E-16,-3.488356627965E-16));
#981 = ORIENTED_EDGE('',*,*,#381,.F.);
#982 = PLANE('',#983);
#983 = AXIS2_PLACEMENT_3D('',#984,#985,#986);
#984 = CARTESIAN_POINT('',(-72.5,43.608323416133,37.920373205507));
#985 = DIRECTION('',(-1.753135112766E-16,-0.771629210588,-0.636072606993
    ));
#986 = DIRECTION('',(5.965919623548E-16,0.636072606993,-0.771629210588)
  );
#987 = ADVANCED_FACE('',(#988),#1007,.F.);
#988 = FACE_BOUND('',#989,.F.);
#989 = EDGE_LOOP('',(#990,#991,#992,#1000));
#990 = ORIENTED_EDGE('',*,*,#976,.T.);
#991 = ORIENTED_EDGE('',*,*,#389,.T.);
#992 = ORIENTED_EDGE('',*,*,#993,.T.);
#993 = EDGE_CURVE('',#390,#994,#996,.T.);
#994 = VERTEX_POINT('',#995);
#995 = CARTESIAN_POINT('',(-72.5,28.206301355007,54.155706930031));
#996 = LINE('',#997,#998);
#997 = CARTESIAN_POINT('',(-72.5,28.206301355007,54.155706930031));
#998 = VECTOR('',#999,1.);
#999 = DIRECTION('',(1.,-5.147528311179E-16,3.488356627965E-16));
#1000 = ORIENTED_EDGE('',*,*,#1001,.T.);
#1001 = EDGE_CURVE('',#994,#969,#1002,.T.);
#1002 = CIRCLE('',#1003,1.);
#1003 = AXIS2_PLACEMENT_3D('',#1004,#1005,#1006);
#1004 = CARTESIAN_POINT('',(-72.5,29.164640425658,53.870073903816));
#1005 = DIRECTION('',(-1.,5.147528311179E-16,-3.488356627965E-16));
#1006 = DIRECTION('',(4.352488603975E-16,0.98009330275,0.19853744711));
#1007 = CYLINDRICAL_SURFACE('',#1008,1.);
#1008 = AXIS2_PLACEMENT_3D('',#1009,#1010,#1011);
#1009 = CARTESIAN_POINT('',(-72.5,29.164640425658,53.870073903816));
#1010 = DIRECTION('',(-1.,5.147528311179E-16,-3.488356627965E-16));
#1011 = DIRECTION('',(-4.352488603975E-16,-0.98009330275,-0.19853744711)
  );
#1012 = ADVANCED_FACE('',(#1013),#1031,.F.);
#1013 = FACE_BOUND('',#1014,.F.);
#1014 = EDGE_LOOP('',(#1015,#1023,#1029,#1030));
#1015 = ORIENTED_EDGE('',*,*,#1016,.T.);
#1016 = EDGE_CURVE('',#399,#1017,#1019,.T.);
#1017 = VERTEX_POINT('',#1018);
#1018 = CARTESIAN_POINT('',(-72.5,26.165852063802,47.309711901524));
#1019 = LINE('',#1020,#1021);
#1020 = CARTESIAN_POINT('',(-77.5,26.165852063802,47.309711901524));
#1021 = VECTOR('',#1022,1.);
#1022 = DIRECTION('',(1.,0.,0.));
#1023 = ORIENTED_EDGE('',*,*,#1024,.T.);
#1024 = EDGE_CURVE('',#1017,#994,#1025,.T.);
#1025 = LINE('',#1026,#1027);
#1026 = CARTESIAN_POINT('',(-72.5,22.066766256676,33.55670114161));
#1027 = VECTOR('',#1028,1.);
#1028 = DIRECTION('',(-1.872724359893E-16,0.285633026215,0.958339070651)
  );
#1029 = ORIENTED_EDGE('',*,*,#993,.F.);
#1030 = ORIENTED_EDGE('',*,*,#398,.F.);
#1031 = PLANE('',#1032);
#1032 = AXIS2_PLACEMENT_3D('',#1033,#1034,#1035);
#1033 = CARTESIAN_POINT('',(-72.5,22.066766256676,33.55670114161));
#1034 = DIRECTION('',(-5.929467358045E-16,-0.958339070651,0.285633026215
    ));
#1035 = DIRECTION('',(1.872724359893E-16,-0.285633026215,-0.958339070651
    ));
#1036 = ADVANCED_FACE('',(#1037),#1056,.F.);
#1037 = FACE_BOUND('',#1038,.F.);
#1038 = EDGE_LOOP('',(#1039,#1048,#1054,#1055));
#1039 = ORIENTED_EDGE('',*,*,#1040,.F.);
#1040 = EDGE_CURVE('',#1041,#1041,#1043,.T.);
#1041 = VERTEX_POINT('',#1042);
#1042 = CARTESIAN_POINT('',(-72.5,28.,21.757695154587));
#1043 = CIRCLE('',#1044,2.15);
#1044 = AXIS2_PLACEMENT_3D('',#1045,#1046,#1047);
#1045 = CARTESIAN_POINT('',(-72.5,28.,19.607695154587));
#1046 = DIRECTION('',(1.,0.,0.));
#1047 = DIRECTION('',(-0.,0.,1.));
#1048 = ORIENTED_EDGE('',*,*,#1049,.F.);
#1049 = EDGE_CURVE('',#416,#1041,#1050,.T.);
#1050 = LINE('',#1051,#1052);
#1051 = CARTESIAN_POINT('',(-78.5,28.,21.757695154587));
#1052 = VECTOR('',#1053,1.);
#1053 = DIRECTION('',(1.,0.,0.));
#1054 = ORIENTED_EDGE('',*,*,#415,.T.);
#1055 = ORIENTED_EDGE('',*,*,#1049,.T.);
#1056 = CYLINDRICAL_SURFACE('',#1057,2.15);
#1057 = AXIS2_PLACEMENT_3D('',#1058,#1059,#1060);
#1058 = CARTESIAN_POINT('',(-78.5,28.,19.607695154587));
#1059 = DIRECTION('',(1.,0.,0.));
#1060 = DIRECTION('',(-0.,0.,1.));
#1061 = ADVANCED_FACE('',(#1062),#1081,.F.);
#1062 = FACE_BOUND('',#1063,.F.);
#1063 = EDGE_LOOP('',(#1064,#1073,#1079,#1080));
#1064 = ORIENTED_EDGE('',*,*,#1065,.F.);
#1065 = EDGE_CURVE('',#1066,#1066,#1068,.T.);
#1066 = VERTEX_POINT('',#1067);
#1067 = CARTESIAN_POINT('',(-72.5,40.,21.757695154587));
#1068 = CIRCLE('',#1069,2.15);
#1069 = AXIS2_PLACEMENT_3D('',#1070,#1071,#1072);
#1070 = CARTESIAN_POINT('',(-72.5,40.,19.607695154587));
#1071 = DIRECTION('',(1.,0.,0.));
#1072 = DIRECTION('',(-0.,0.,1.));
#1073 = ORIENTED_EDGE('',*,*,#1074,.F.);
#1074 = EDGE_CURVE('',#427,#1066,#1075,.T.);
#1075 = LINE('',#1076,#1077);
#1076 = CARTESIAN_POINT('',(-78.5,40.,21.757695154587));
#1077 = VECTOR('',#1078,1.);
#1078 = DIRECTION('',(1.,0.,0.));
#1079 = ORIENTED_EDGE('',*,*,#426,.T.);
#1080 = ORIENTED_EDGE('',*,*,#1074,.T.);
#1081 = CYLINDRICAL_SURFACE('',#1082,2.15);
#1082 = AXIS2_PLACEMENT_3D('',#1083,#1084,#1085);
#1083 = CARTESIAN_POINT('',(-78.5,40.,19.607695154587));
#1084 = DIRECTION('',(1.,0.,0.));
#1085 = DIRECTION('',(-0.,0.,1.));
#1086 = ADVANCED_FACE('',(#1087),#1126,.F.);
#1087 = FACE_BOUND('',#1088,.F.);
#1088 = EDGE_LOOP('',(#1089,#1100,#1106,#1107,#1108,#1109,#1110,#1119));
#1089 = ORIENTED_EDGE('',*,*,#1090,.F.);
#1090 = EDGE_CURVE('',#1091,#1093,#1095,.T.);
#1091 = VERTEX_POINT('',#1092);
#1092 = CARTESIAN_POINT('',(-72.5,46.,32.15));
#1093 = VERTEX_POINT('',#1094);
#1094 = CARTESIAN_POINT('',(-72.5,44.440151124924,31.479652488568));
#1095 = CIRCLE('',#1096,2.15);
#1096 = AXIS2_PLACEMENT_3D('',#1097,#1098,#1099);
#1097 = CARTESIAN_POINT('',(-72.5,46.,30.));
#1098 = DIRECTION('',(1.,0.,0.));
#1099 = DIRECTION('',(-0.,0.,1.));
#1100 = ORIENTED_EDGE('',*,*,#1101,.F.);
#1101 = EDGE_CURVE('',#449,#1091,#1102,.T.);
#1102 = LINE('',#1103,#1104);
#1103 = CARTESIAN_POINT('',(-78.5,46.,32.15));
#1104 = VECTOR('',#1105,1.);
#1105 = DIRECTION('',(1.,0.,0.));
#1106 = ORIENTED_EDGE('',*,*,#457,.T.);
#1107 = ORIENTED_EDGE('',*,*,#437,.T.);
#1108 = ORIENTED_EDGE('',*,*,#448,.T.);
#1109 = ORIENTED_EDGE('',*,*,#1101,.T.);
#1110 = ORIENTED_EDGE('',*,*,#1111,.F.);
#1111 = EDGE_CURVE('',#1112,#1091,#1114,.T.);
#1112 = VERTEX_POINT('',#1113);
#1113 = CARTESIAN_POINT('',(-72.5,47.235031008073,31.759885907978));
#1114 = CIRCLE('',#1115,2.15);
#1115 = AXIS2_PLACEMENT_3D('',#1116,#1117,#1118);
#1116 = CARTESIAN_POINT('',(-72.5,46.,30.));
#1117 = DIRECTION('',(1.,0.,0.));
#1118 = DIRECTION('',(-0.,0.,1.));
#1119 = ORIENTED_EDGE('',*,*,#1120,.F.);
#1120 = EDGE_CURVE('',#1093,#1112,#1121,.T.);
#1121 = CIRCLE('',#1122,2.15);
#1122 = AXIS2_PLACEMENT_3D('',#1123,#1124,#1125);
#1123 = CARTESIAN_POINT('',(-72.5,46.,30.));
#1124 = DIRECTION('',(1.,0.,0.));
#1125 = DIRECTION('',(-0.,0.,1.));
#1126 = CYLINDRICAL_SURFACE('',#1127,2.15);
#1127 = AXIS2_PLACEMENT_3D('',#1128,#1129,#1130);
#1128 = CARTESIAN_POINT('',(-78.5,46.,30.));
#1129 = DIRECTION('',(1.,0.,0.));
#1130 = DIRECTION('',(-0.,0.,1.));
#1131 = ADVANCED_FACE('',(#1132),#1171,.F.);
#1132 = FACE_BOUND('',#1133,.F.);
#1133 = EDGE_LOOP('',(#1134,#1145,#1151,#1152,#1153,#1154,#1155,#1164));
#1134 = ORIENTED_EDGE('',*,*,#1135,.F.);
#1135 = EDGE_CURVE('',#1136,#1138,#1140,.T.);
#1136 = VERTEX_POINT('',#1137);
#1137 = CARTESIAN_POINT('',(-72.5,22.,32.15));
#1138 = VERTEX_POINT('',#1139);
#1139 = CARTESIAN_POINT('',(-72.5,20.764968991928,28.240114092022));
#1140 = CIRCLE('',#1141,2.15);
#1141 = AXIS2_PLACEMENT_3D('',#1142,#1143,#1144);
#1142 = CARTESIAN_POINT('',(-72.5,22.,30.));
#1143 = DIRECTION('',(1.,0.,0.));
#1144 = DIRECTION('',(-0.,0.,1.));
#1145 = ORIENTED_EDGE('',*,*,#1146,.F.);
#1146 = EDGE_CURVE('',#469,#1136,#1147,.T.);
#1147 = LINE('',#1148,#1149);
#1148 = CARTESIAN_POINT('',(-78.5,22.,32.15));
#1149 = VECTOR('',#1150,1.);
#1150 = DIRECTION('',(1.,0.,0.));
#1151 = ORIENTED_EDGE('',*,*,#477,.T.);
#1152 = ORIENTED_EDGE('',*,*,#486,.T.);
#1153 = ORIENTED_EDGE('',*,*,#466,.T.);
#1154 = ORIENTED_EDGE('',*,*,#1146,.T.);
#1155 = ORIENTED_EDGE('',*,*,#1156,.F.);
#1156 = EDGE_CURVE('',#1157,#1136,#1159,.T.);
#1157 = VERTEX_POINT('',#1158);
#1158 = CARTESIAN_POINT('',(-72.5,23.559848875075,28.520347511432));
#1159 = CIRCLE('',#1160,2.15);
#1160 = AXIS2_PLACEMENT_3D('',#1161,#1162,#1163);
#1161 = CARTESIAN_POINT('',(-72.5,22.,30.));
#1162 = DIRECTION('',(1.,0.,0.));
#1163 = DIRECTION('',(-0.,0.,1.));
#1164 = ORIENTED_EDGE('',*,*,#1165,.F.);
#1165 = EDGE_CURVE('',#1138,#1157,#1166,.T.);
#1166 = CIRCLE('',#1167,2.15);
#1167 = AXIS2_PLACEMENT_3D('',#1168,#1169,#1170);
#1168 = CARTESIAN_POINT('',(-72.5,22.,30.));
#1169 = DIRECTION('',(1.,0.,0.));
#1170 = DIRECTION('',(-0.,0.,1.));
#1171 = CYLINDRICAL_SURFACE('',#1172,2.15);
#1172 = AXIS2_PLACEMENT_3D('',#1173,#1174,#1175);
#1173 = CARTESIAN_POINT('',(-78.5,22.,30.));
#1174 = DIRECTION('',(1.,0.,0.));
#1175 = DIRECTION('',(-0.,0.,1.));
#1176 = ADVANCED_FACE('',(#1177),#1196,.F.);
#1177 = FACE_BOUND('',#1178,.F.);
#1178 = EDGE_LOOP('',(#1179,#1188,#1194,#1195));
#1179 = ORIENTED_EDGE('',*,*,#1180,.F.);
#1180 = EDGE_CURVE('',#1181,#1181,#1183,.T.);
#1181 = VERTEX_POINT('',#1182);
#1182 = CARTESIAN_POINT('',(-72.5,28.,42.542304845413));
#1183 = CIRCLE('',#1184,2.15);
#1184 = AXIS2_PLACEMENT_3D('',#1185,#1186,#1187);
#1185 = CARTESIAN_POINT('',(-72.5,28.,40.392304845413));
#1186 = DIRECTION('',(1.,0.,0.));
#1187 = DIRECTION('',(-0.,0.,1.));
#1188 = ORIENTED_EDGE('',*,*,#1189,.F.);
#1189 = EDGE_CURVE('',#496,#1181,#1190,.T.);
#1190 = LINE('',#1191,#1192);
#1191 = CARTESIAN_POINT('',(-78.5,28.,42.542304845413));
#1192 = VECTOR('',#1193,1.);
#1193 = DIRECTION('',(1.,0.,0.));
#1194 = ORIENTED_EDGE('',*,*,#495,.T.);
#1195 = ORIENTED_EDGE('',*,*,#1189,.T.);
#1196 = CYLINDRICAL_SURFACE('',#1197,2.15);
#1197 = AXIS2_PLACEMENT_3D('',#1198,#1199,#1200);
#1198 = CARTESIAN_POINT('',(-78.5,28.,40.392304845413));
#1199 = DIRECTION('',(1.,0.,0.));
#1200 = DIRECTION('',(-0.,0.,1.));
#1201 = ADVANCED_FACE('',(#1202),#1221,.F.);
#1202 = FACE_BOUND('',#1203,.F.);
#1203 = EDGE_LOOP('',(#1204,#1213,#1219,#1220));
#1204 = ORIENTED_EDGE('',*,*,#1205,.F.);
#1205 = EDGE_CURVE('',#1206,#1206,#1208,.T.);
#1206 = VERTEX_POINT('',#1207);
#1207 = CARTESIAN_POINT('',(-72.5,40.,42.542304845413));
#1208 = CIRCLE('',#1209,2.15);
#1209 = AXIS2_PLACEMENT_3D('',#1210,#1211,#1212);
#1210 = CARTESIAN_POINT('',(-72.5,40.,40.392304845413));
#1211 = DIRECTION('',(1.,0.,0.));
#1212 = DIRECTION('',(-0.,0.,1.));
#1213 = ORIENTED_EDGE('',*,*,#1214,.F.);
#1214 = EDGE_CURVE('',#507,#1206,#1215,.T.);
#1215 = LINE('',#1216,#1217);
#1216 = CARTESIAN_POINT('',(-78.5,40.,42.542304845413));
#1217 = VECTOR('',#1218,1.);
#1218 = DIRECTION('',(1.,0.,0.));
#1219 = ORIENTED_EDGE('',*,*,#506,.T.);
#1220 = ORIENTED_EDGE('',*,*,#1214,.T.);
#1221 = CYLINDRICAL_SURFACE('',#1222,2.15);
#1222 = AXIS2_PLACEMENT_3D('',#1223,#1224,#1225);
#1223 = CARTESIAN_POINT('',(-78.5,40.,40.392304845413));
#1224 = DIRECTION('',(1.,0.,0.));
#1225 = DIRECTION('',(-0.,0.,1.));
#1226 = ADVANCED_FACE('',(#1227),#1266,.F.);
#1227 = FACE_BOUND('',#1228,.F.);
#1228 = EDGE_LOOP('',(#1229,#1240,#1246,#1247,#1248,#1249,#1250,#1259));
#1229 = ORIENTED_EDGE('',*,*,#1230,.F.);
#1230 = EDGE_CURVE('',#1231,#1233,#1235,.T.);
#1231 = VERTEX_POINT('',#1232);
#1232 = CARTESIAN_POINT('',(-72.5,34.,23.25));
#1233 = VERTEX_POINT('',#1234);
#1234 = CARTESIAN_POINT('',(-72.5,32.18618342836,22.208333333333));
#1235 = CIRCLE('',#1236,2.1);
#1236 = AXIS2_PLACEMENT_3D('',#1237,#1238,#1239);
#1237 = CARTESIAN_POINT('',(-72.5,34.,21.15));
#1238 = DIRECTION('',(1.,0.,0.));
#1239 = DIRECTION('',(-0.,0.,1.));
#1240 = ORIENTED_EDGE('',*,*,#1241,.F.);
#1241 = EDGE_CURVE('',#529,#1231,#1242,.T.);
#1242 = LINE('',#1243,#1244);
#1243 = CARTESIAN_POINT('',(-78.5,34.,23.25));
#1244 = VECTOR('',#1245,1.);
#1245 = DIRECTION('',(1.,0.,0.));
#1246 = ORIENTED_EDGE('',*,*,#537,.T.);
#1247 = ORIENTED_EDGE('',*,*,#517,.T.);
#1248 = ORIENTED_EDGE('',*,*,#528,.T.);
#1249 = ORIENTED_EDGE('',*,*,#1241,.T.);
#1250 = ORIENTED_EDGE('',*,*,#1251,.F.);
#1251 = EDGE_CURVE('',#1252,#1231,#1254,.T.);
#1252 = VERTEX_POINT('',#1253);
#1253 = CARTESIAN_POINT('',(-72.5,35.81381657164,22.208333333333));
#1254 = CIRCLE('',#1255,2.1);
#1255 = AXIS2_PLACEMENT_3D('',#1256,#1257,#1258);
#1256 = CARTESIAN_POINT('',(-72.5,34.,21.15));
#1257 = DIRECTION('',(1.,0.,0.));
#1258 = DIRECTION('',(-0.,0.,1.));
#1259 = ORIENTED_EDGE('',*,*,#1260,.F.);
#1260 = EDGE_CURVE('',#1233,#1252,#1261,.T.);
#1261 = CIRCLE('',#1262,2.1);
#1262 = AXIS2_PLACEMENT_3D('',#1263,#1264,#1265);
#1263 = CARTESIAN_POINT('',(-72.5,34.,21.15));
#1264 = DIRECTION('',(1.,0.,0.));
#1265 = DIRECTION('',(-0.,0.,1.));
#1266 = CYLINDRICAL_SURFACE('',#1267,2.1);
#1267 = AXIS2_PLACEMENT_3D('',#1268,#1269,#1270);
#1268 = CARTESIAN_POINT('',(-78.5,34.,21.15));
#1269 = DIRECTION('',(1.,0.,0.));
#1270 = DIRECTION('',(-0.,0.,1.));
#1271 = ADVANCED_FACE('',(#1272),#1311,.F.);
#1272 = FACE_BOUND('',#1273,.F.);
#1273 = EDGE_LOOP('',(#1274,#1285,#1291,#1292,#1293,#1294,#1295,#1304));
#1274 = ORIENTED_EDGE('',*,*,#1275,.F.);
#1275 = EDGE_CURVE('',#1276,#1278,#1280,.T.);
#1276 = VERTEX_POINT('',#1277);
#1277 = CARTESIAN_POINT('',(-72.5,41.664324823492,36.525));
#1278 = VERTEX_POINT('',#1279);
#1279 = CARTESIAN_POINT('',(-72.5,39.840872985334,35.466644562179));
#1280 = CIRCLE('',#1281,2.1);
#1281 = AXIS2_PLACEMENT_3D('',#1282,#1283,#1284);
#1282 = CARTESIAN_POINT('',(-72.5,41.664324823492,34.425));
#1283 = DIRECTION('',(1.,0.,0.));
#1284 = DIRECTION('',(-0.,0.,1.));
#1285 = ORIENTED_EDGE('',*,*,#1286,.F.);
#1286 = EDGE_CURVE('',#549,#1276,#1287,.T.);
#1287 = LINE('',#1288,#1289);
#1288 = CARTESIAN_POINT('',(-78.5,41.664324823492,36.525));
#1289 = VECTOR('',#1290,1.);
#1290 = DIRECTION('',(1.,0.,0.));
#1291 = ORIENTED_EDGE('',*,*,#557,.T.);
#1292 = ORIENTED_EDGE('',*,*,#566,.T.);
#1293 = ORIENTED_EDGE('',*,*,#546,.T.);
#1294 = ORIENTED_EDGE('',*,*,#1286,.T.);
#1295 = ORIENTED_EDGE('',*,*,#1296,.F.);
#1296 = EDGE_CURVE('',#1297,#1276,#1299,.T.);
#1297 = VERTEX_POINT('',#1298);
#1298 = CARTESIAN_POINT('',(-72.5,41.654689556974,32.325022104488));
#1299 = CIRCLE('',#1300,2.1);
#1300 = AXIS2_PLACEMENT_3D('',#1301,#1302,#1303);
#1301 = CARTESIAN_POINT('',(-72.5,41.664324823492,34.425));
#1302 = DIRECTION('',(1.,0.,0.));
#1303 = DIRECTION('',(-0.,0.,1.));
#1304 = ORIENTED_EDGE('',*,*,#1305,.F.);
#1305 = EDGE_CURVE('',#1278,#1297,#1306,.T.);
#1306 = CIRCLE('',#1307,2.1);
#1307 = AXIS2_PLACEMENT_3D('',#1308,#1309,#1310);
#1308 = CARTESIAN_POINT('',(-72.5,41.664324823492,34.425));
#1309 = DIRECTION('',(1.,0.,0.));
#1310 = DIRECTION('',(-0.,0.,1.));
#1311 = CYLINDRICAL_SURFACE('',#1312,2.1);
#1312 = AXIS2_PLACEMENT_3D('',#1313,#1314,#1315);
#1313 = CARTESIAN_POINT('',(-78.5,41.664324823492,34.425));
#1314 = DIRECTION('',(1.,0.,0.));
#1315 = DIRECTION('',(-0.,0.,1.));
#1316 = ADVANCED_FACE('',(#1317),#1356,.F.);
#1317 = FACE_BOUND('',#1318,.F.);
#1318 = EDGE_LOOP('',(#1319,#1330,#1336,#1337,#1338,#1339,#1340,#1349));
#1319 = ORIENTED_EDGE('',*,*,#1320,.F.);
#1320 = EDGE_CURVE('',#1321,#1323,#1325,.T.);
#1321 = VERTEX_POINT('',#1322);
#1322 = CARTESIAN_POINT('',(-72.5,26.335675176508,36.525));
#1323 = VERTEX_POINT('',#1324);
#1324 = CARTESIAN_POINT('',(-72.5,26.345310443026,32.325022104488));
#1325 = CIRCLE('',#1326,2.1);
#1326 = AXIS2_PLACEMENT_3D('',#1327,#1328,#1329);
#1327 = CARTESIAN_POINT('',(-72.5,26.335675176508,34.425));
#1328 = DIRECTION('',(1.,0.,0.));
#1329 = DIRECTION('',(-0.,0.,1.));
#1330 = ORIENTED_EDGE('',*,*,#1331,.F.);
#1331 = EDGE_CURVE('',#578,#1321,#1332,.T.);
#1332 = LINE('',#1333,#1334);
#1333 = CARTESIAN_POINT('',(-78.5,26.335675176508,36.525));
#1334 = VECTOR('',#1335,1.);
#1335 = DIRECTION('',(1.,0.,0.));
#1336 = ORIENTED_EDGE('',*,*,#586,.T.);
#1337 = ORIENTED_EDGE('',*,*,#595,.T.);
#1338 = ORIENTED_EDGE('',*,*,#575,.T.);
#1339 = ORIENTED_EDGE('',*,*,#1331,.T.);
#1340 = ORIENTED_EDGE('',*,*,#1341,.F.);
#1341 = EDGE_CURVE('',#1342,#1321,#1344,.T.);
#1342 = VERTEX_POINT('',#1343);
#1343 = CARTESIAN_POINT('',(-72.5,28.159127014666,35.466644562179));
#1344 = CIRCLE('',#1345,2.1);
#1345 = AXIS2_PLACEMENT_3D('',#1346,#1347,#1348);
#1346 = CARTESIAN_POINT('',(-72.5,26.335675176508,34.425));
#1347 = DIRECTION('',(1.,0.,0.));
#1348 = DIRECTION('',(-0.,0.,1.));
#1349 = ORIENTED_EDGE('',*,*,#1350,.F.);
#1350 = EDGE_CURVE('',#1323,#1342,#1351,.T.);
#1351 = CIRCLE('',#1352,2.1);
#1352 = AXIS2_PLACEMENT_3D('',#1353,#1354,#1355);
#1353 = CARTESIAN_POINT('',(-72.5,26.335675176508,34.425));
#1354 = DIRECTION('',(1.,0.,0.));
#1355 = DIRECTION('',(-0.,0.,1.));
#1356 = CYLINDRICAL_SURFACE('',#1357,2.1);
#1357 = AXIS2_PLACEMENT_3D('',#1358,#1359,#1360);
#1358 = CARTESIAN_POINT('',(-78.5,26.335675176508,34.425));
#1359 = DIRECTION('',(1.,0.,0.));
#1360 = DIRECTION('',(-0.,0.,1.));
#1361 = ADVANCED_FACE('',(#1362),#1387,.F.);
#1362 = FACE_BOUND('',#1363,.T.);
#1363 = EDGE_LOOP('',(#1364,#1374,#1380,#1381));
#1364 = ORIENTED_EDGE('',*,*,#1365,.F.);
#1365 = EDGE_CURVE('',#1366,#1368,#1370,.T.);
#1366 = VERTEX_POINT('',#1367);
#1367 = CARTESIAN_POINT('',(-72.5,25.85963984034,65.740157459745));
#1368 = VERTEX_POINT('',#1369);
#1369 = CARTESIAN_POINT('',(-72.5,24.466301123282,67.430437535487));
#1370 = LINE('',#1371,#1372);
#1371 = CARTESIAN_POINT('',(-72.5,46.694840258487,40.464663633478));
#1372 = VECTOR('',#1373,1.);
#1373 = DIRECTION('',(-5.965919623548E-16,-0.636072606993,0.771629210588
    ));
#1374 = ORIENTED_EDGE('',*,*,#1375,.T.);
#1375 = EDGE_CURVE('',#1366,#609,#1376,.T.);
#1376 = LINE('',#1377,#1378);
#1377 = CARTESIAN_POINT('',(-72.5,25.85963984034,65.740157459745));
#1378 = VECTOR('',#1379,1.);
#1379 = DIRECTION('',(-1.,5.147528311179E-16,-3.488356627965E-16));
#1380 = ORIENTED_EDGE('',*,*,#608,.T.);
#1381 = ORIENTED_EDGE('',*,*,#1382,.T.);
#1382 = EDGE_CURVE('',#611,#1368,#1383,.T.);
#1383 = LINE('',#1384,#1385);
#1384 = CARTESIAN_POINT('',(-72.5,24.466301123282,67.430437535487));
#1385 = VECTOR('',#1386,1.);
#1386 = DIRECTION('',(1.,-5.147528311179E-16,3.488356627965E-16));
#1387 = PLANE('',#1388);
#1388 = AXIS2_PLACEMENT_3D('',#1389,#1390,#1391);
#1389 = CARTESIAN_POINT('',(-72.5,46.694840258487,40.464663633478));
#1390 = DIRECTION('',(-1.753135112766E-16,-0.771629210588,
    -0.636072606993));
#1391 = DIRECTION('',(5.965919623548E-16,0.636072606993,-0.771629210588)
  );
#1392 = ADVANCED_FACE('',(#1393),#1412,.F.);
#1393 = FACE_BOUND('',#1394,.F.);
#1394 = EDGE_LOOP('',(#1395,#1396,#1397,#1405));
#1395 = ORIENTED_EDGE('',*,*,#1375,.T.);
#1396 = ORIENTED_EDGE('',*,*,#618,.T.);
#1397 = ORIENTED_EDGE('',*,*,#1398,.T.);
#1398 = EDGE_CURVE('',#619,#1399,#1401,.T.);
#1399 = VERTEX_POINT('',#1400);
#1400 = CARTESIAN_POINT('',(-72.5,27.589608121579,66.090597040523));
#1401 = LINE('',#1402,#1403);
#1402 = CARTESIAN_POINT('',(-72.5,27.589608121579,66.090597040523));
#1403 = VECTOR('',#1404,1.);
#1404 = DIRECTION('',(1.,-5.147528311179E-16,3.488356627965E-16));
#1405 = ORIENTED_EDGE('',*,*,#1406,.T.);
#1406 = EDGE_CURVE('',#1399,#1366,#1407,.T.);
#1407 = CIRCLE('',#1408,1.);
#1408 = AXIS2_PLACEMENT_3D('',#1409,#1410,#1411);
#1409 = CARTESIAN_POINT('',(-72.5,26.631269050928,66.376230066738));
#1410 = DIRECTION('',(-1.,5.147528311179E-16,-3.488356627965E-16));
#1411 = DIRECTION('',(4.352488603975E-16,0.98009330275,0.19853744711));
#1412 = CYLINDRICAL_SURFACE('',#1413,1.);
#1413 = AXIS2_PLACEMENT_3D('',#1414,#1415,#1416);
#1414 = CARTESIAN_POINT('',(-72.5,26.631269050928,66.376230066738));
#1415 = DIRECTION('',(-1.,5.147528311179E-16,-3.488356627965E-16));
#1416 = DIRECTION('',(-4.352488603975E-16,-0.98009330275,-0.19853744711)
  );
#1417 = ADVANCED_FACE('',(#1418),#1436,.T.);
#1418 = FACE_BOUND('',#1419,.T.);
#1419 = EDGE_LOOP('',(#1420,#1421,#1422,#1430));
#1420 = ORIENTED_EDGE('',*,*,#627,.F.);
#1421 = ORIENTED_EDGE('',*,*,#1398,.T.);
#1422 = ORIENTED_EDGE('',*,*,#1423,.T.);
#1423 = EDGE_CURVE('',#1399,#1424,#1426,.T.);
#1424 = VERTEX_POINT('',#1425);
#1425 = CARTESIAN_POINT('',(-72.5,28.21529699722,68.189871426068));
#1426 = LINE('',#1427,#1428);
#1427 = CARTESIAN_POINT('',(-72.5,18.233409974074,34.699233246469));
#1428 = VECTOR('',#1429,1.);
#1429 = DIRECTION('',(-1.872724359893E-16,0.285633026215,0.958339070651)
  );
#1430 = ORIENTED_EDGE('',*,*,#1431,.T.);
#1431 = EDGE_CURVE('',#1424,#628,#1432,.T.);
#1432 = LINE('',#1433,#1434);
#1433 = CARTESIAN_POINT('',(-72.5,28.21529699722,68.189871426067));
#1434 = VECTOR('',#1435,1.);
#1435 = DIRECTION('',(-1.,5.147528311179E-16,-3.488356627965E-16));
#1436 = PLANE('',#1437);
#1437 = AXIS2_PLACEMENT_3D('',#1438,#1439,#1440);
#1438 = CARTESIAN_POINT('',(-72.5,18.233409974074,34.699233246469));
#1439 = DIRECTION('',(-5.929467358045E-16,-0.958339070651,0.285633026215
    ));
#1440 = DIRECTION('',(1.872724359893E-16,-0.285633026215,-0.958339070651
    ));
#1441 = ADVANCED_FACE('',(#1442),#1461,.F.);
#1442 = FACE_BOUND('',#1443,.F.);
#1443 = EDGE_LOOP('',(#1444,#1445,#1446,#1454));
#1444 = ORIENTED_EDGE('',*,*,#1431,.T.);
#1445 = ORIENTED_EDGE('',*,*,#635,.T.);
#1446 = ORIENTED_EDGE('',*,*,#1447,.T.);
#1447 = EDGE_CURVE('',#636,#1448,#1450,.T.);
#1448 = VERTEX_POINT('',#1449);
#1449 = CARTESIAN_POINT('',(-72.5,26.967518810016,69.43270087821));
#1450 = LINE('',#1451,#1452);
#1451 = CARTESIAN_POINT('',(-72.5,26.967518810016,69.43270087821));
#1452 = VECTOR('',#1453,1.);
#1453 = DIRECTION('',(1.,-5.147528311179E-16,3.488356627965E-16));
#1454 = ORIENTED_EDGE('',*,*,#1455,.T.);
#1455 = EDGE_CURVE('',#1448,#1424,#1456,.T.);
#1456 = CIRCLE('',#1457,1.);
#1457 = AXIS2_PLACEMENT_3D('',#1458,#1459,#1460);
#1458 = CARTESIAN_POINT('',(-72.5,27.256957926569,68.475504452282));
#1459 = DIRECTION('',(-1.,5.147528311179E-16,-3.488356627965E-16));
#1460 = DIRECTION('',(4.352488603975E-16,0.98009330275,0.19853744711));
#1461 = CYLINDRICAL_SURFACE('',#1462,1.);
#1462 = AXIS2_PLACEMENT_3D('',#1463,#1464,#1465);
#1463 = CARTESIAN_POINT('',(-72.5,27.256957926569,68.475504452282));
#1464 = DIRECTION('',(-1.,5.147528311179E-16,-3.488356627965E-16));
#1465 = DIRECTION('',(-4.352488603975E-16,-0.98009330275,-0.19853744711)
  );
#1466 = ADVANCED_FACE('',(#1467),#1486,.T.);
#1467 = FACE_BOUND('',#1468,.T.);
#1468 = EDGE_LOOP('',(#1469,#1478,#1484,#1485));
#1469 = ORIENTED_EDGE('',*,*,#1470,.F.);
#1470 = EDGE_CURVE('',#1471,#1448,#1473,.T.);
#1471 = VERTEX_POINT('',#1472);
#1472 = CARTESIAN_POINT('',(-72.5,25.132039180289,69.060887869299));
#1473 = CIRCLE('',#1474,10.);
#1474 = AXIS2_PLACEMENT_3D('',#1475,#1476,#1477);
#1475 = CARTESIAN_POINT('',(-72.5,24.073127644481,79.004665137487));
#1476 = DIRECTION('',(1.,-5.147528311179E-16,3.488356627965E-16));
#1477 = DIRECTION('',(4.352488603975E-16,0.98009330275,0.19853744711));
#1478 = ORIENTED_EDGE('',*,*,#1479,.T.);
#1479 = EDGE_CURVE('',#1471,#645,#1480,.T.);
#1480 = LINE('',#1481,#1482);
#1481 = CARTESIAN_POINT('',(-72.5,25.132039180289,69.060887869299));
#1482 = VECTOR('',#1483,1.);
#1483 = DIRECTION('',(-1.,5.147528311179E-16,-3.488356627965E-16));
#1484 = ORIENTED_EDGE('',*,*,#644,.T.);
#1485 = ORIENTED_EDGE('',*,*,#1447,.T.);
#1486 = CYLINDRICAL_SURFACE('',#1487,10.);
#1487 = AXIS2_PLACEMENT_3D('',#1488,#1489,#1490);
#1488 = CARTESIAN_POINT('',(-72.5,24.073127644481,79.004665137487));
#1489 = DIRECTION('',(-1.,5.147528311179E-16,-3.488356627965E-16));
#1490 = DIRECTION('',(-4.352488603975E-16,-0.98009330275,-0.19853744711)
  );
#1491 = ADVANCED_FACE('',(#1492,#1498,#1518,#1526,#1564,#1567,#1588,
    #1591,#1594,#1599,#1604,#1607,#1610,#1615,#1620,#1625),#1648,.T.);
#1492 = FACE_BOUND('',#1493,.T.);
#1493 = EDGE_LOOP('',(#1494,#1495,#1496,#1497));
#1494 = ORIENTED_EDGE('',*,*,#119,.F.);
#1495 = ORIENTED_EDGE('',*,*,#205,.T.);
#1496 = ORIENTED_EDGE('',*,*,#190,.T.);
#1497 = ORIENTED_EDGE('',*,*,#151,.T.);
#1498 = FACE_BOUND('',#1499,.T.);
#1499 = EDGE_LOOP('',(#1500,#1511));
#1500 = ORIENTED_EDGE('',*,*,#1501,.F.);
#1501 = EDGE_CURVE('',#1502,#1504,#1506,.T.);
#1502 = VERTEX_POINT('',#1503);
#1503 = CARTESIAN_POINT('',(-72.5,17.114465194958,77.595049263003));
#1504 = VERTEX_POINT('',#1505);
#1505 = CARTESIAN_POINT('',(-72.5,31.031790094004,80.414281011971));
#1506 = CIRCLE('',#1507,7.1);
#1507 = AXIS2_PLACEMENT_3D('',#1508,#1509,#1510);
#1508 = CARTESIAN_POINT('',(-72.5,24.073127644481,79.004665137487));
#1509 = DIRECTION('',(1.,-5.147528311179E-16,3.488356627965E-16));
#1510 = DIRECTION('',(4.352488603975E-16,0.98009330275,0.19853744711));
#1511 = ORIENTED_EDGE('',*,*,#1512,.F.);
#1512 = EDGE_CURVE('',#1504,#1502,#1513,.T.);
#1513 = CIRCLE('',#1514,7.1);
#1514 = AXIS2_PLACEMENT_3D('',#1515,#1516,#1517);
#1515 = CARTESIAN_POINT('',(-72.5,24.073127644481,79.004665137487));
#1516 = DIRECTION('',(1.,-5.147528311179E-16,3.488356627965E-16));
#1517 = DIRECTION('',(4.352488603975E-16,0.98009330275,0.19853744711));
#1518 = FACE_BOUND('',#1519,.T.);
#1519 = EDGE_LOOP('',(#1520,#1521,#1522,#1523,#1524,#1525));
#1520 = ORIENTED_EDGE('',*,*,#760,.F.);
#1521 = ORIENTED_EDGE('',*,*,#718,.T.);
#1522 = ORIENTED_EDGE('',*,*,#686,.T.);
#1523 = ORIENTED_EDGE('',*,*,#743,.T.);
#1524 = ORIENTED_EDGE('',*,*,#782,.T.);
#1525 = ORIENTED_EDGE('',*,*,#809,.T.);
#1526 = FACE_BOUND('',#1527,.T.);
#1527 = EDGE_LOOP('',(#1528,#1529,#1538,#1545,#1546,#1555,#1562,#1563));
#1528 = ORIENTED_EDGE('',*,*,#864,.F.);
#1529 = ORIENTED_EDGE('',*,*,#1530,.T.);
#1530 = EDGE_CURVE('',#857,#1531,#1533,.T.);
#1531 = VERTEX_POINT('',#1532);
#1532 = CARTESIAN_POINT('',(-72.5,25.546485633181,59.64681501636));
#1533 = CIRCLE('',#1534,1.);
#1534 = AXIS2_PLACEMENT_3D('',#1535,#1536,#1537);
#1535 = CARTESIAN_POINT('',(-72.5,24.566392330431,59.448277569249));
#1536 = DIRECTION('',(-1.,5.147528311179E-16,-3.488356627965E-16));
#1537 = DIRECTION('',(4.352488603975E-16,0.98009330275,0.19853744711));
#1538 = ORIENTED_EDGE('',*,*,#1539,.T.);
#1539 = EDGE_CURVE('',#1531,#834,#1540,.T.);
#1540 = CIRCLE('',#1541,1.);
#1541 = AXIS2_PLACEMENT_3D('',#1542,#1543,#1544);
#1542 = CARTESIAN_POINT('',(-72.5,24.566392330431,59.448277569249));
#1543 = DIRECTION('',(-1.,5.147528311179E-16,-3.488356627965E-16));
#1544 = DIRECTION('',(4.352488603975E-16,0.98009330275,0.19853744711));
#1545 = ORIENTED_EDGE('',*,*,#833,.F.);
#1546 = ORIENTED_EDGE('',*,*,#1547,.T.);
#1547 = EDGE_CURVE('',#826,#1548,#1550,.T.);
#1548 = VERTEX_POINT('',#1549);
#1549 = CARTESIAN_POINT('',(-72.5,21.26177204175,51.450624379393));
#1550 = CIRCLE('',#1551,1.);
#1551 = AXIS2_PLACEMENT_3D('',#1552,#1553,#1554);
#1552 = CARTESIAN_POINT('',(-72.5,22.2418653445,51.649161826504));
#1553 = DIRECTION('',(-1.,5.147528311179E-16,-3.488356627965E-16));
#1554 = DIRECTION('',(4.352488603975E-16,0.98009330275,0.19853744711));
#1555 = ORIENTED_EDGE('',*,*,#1556,.T.);
#1556 = EDGE_CURVE('',#1548,#912,#1557,.T.);
#1557 = CIRCLE('',#1558,1.);
#1558 = AXIS2_PLACEMENT_3D('',#1559,#1560,#1561);
#1559 = CARTESIAN_POINT('',(-72.5,22.2418653445,51.649161826504));
#1560 = DIRECTION('',(-1.,5.147528311179E-16,-3.488356627965E-16));
#1561 = DIRECTION('',(4.352488603975E-16,0.98009330275,0.19853744711));
#1562 = ORIENTED_EDGE('',*,*,#911,.T.);
#1563 = ORIENTED_EDGE('',*,*,#896,.T.);
#1564 = FACE_BOUND('',#1565,.T.);
#1565 = EDGE_LOOP('',(#1566));
#1566 = ORIENTED_EDGE('',*,*,#935,.F.);
#1567 = FACE_BOUND('',#1568,.T.);
#1568 = EDGE_LOOP('',(#1569,#1578,#1585,#1586,#1587));
#1569 = ORIENTED_EDGE('',*,*,#1570,.T.);
#1570 = EDGE_CURVE('',#961,#1571,#1573,.T.);
#1571 = VERTEX_POINT('',#1572);
#1572 = CARTESIAN_POINT('',(-72.5,34.,49.));
#1573 = CIRCLE('',#1574,19.);
#1574 = AXIS2_PLACEMENT_3D('',#1575,#1576,#1577);
#1575 = CARTESIAN_POINT('',(-72.5,34.,30.));
#1576 = DIRECTION('',(1.,0.,0.));
#1577 = DIRECTION('',(-0.,0.,1.));
#1578 = ORIENTED_EDGE('',*,*,#1579,.T.);
#1579 = EDGE_CURVE('',#1571,#1017,#1580,.T.);
#1580 = CIRCLE('',#1581,19.);
#1581 = AXIS2_PLACEMENT_3D('',#1582,#1583,#1584);
#1582 = CARTESIAN_POINT('',(-72.5,34.,30.));
#1583 = DIRECTION('',(1.,0.,0.));
#1584 = DIRECTION('',(-0.,0.,1.));
#1585 = ORIENTED_EDGE('',*,*,#1024,.T.);
#1586 = ORIENTED_EDGE('',*,*,#1001,.T.);
#1587 = ORIENTED_EDGE('',*,*,#968,.F.);
#1588 = FACE_BOUND('',#1589,.T.);
#1589 = EDGE_LOOP('',(#1590));
#1590 = ORIENTED_EDGE('',*,*,#1040,.F.);
#1591 = FACE_BOUND('',#1592,.T.);
#1592 = EDGE_LOOP('',(#1593));
#1593 = ORIENTED_EDGE('',*,*,#1065,.F.);
#1594 = FACE_BOUND('',#1595,.T.);
#1595 = EDGE_LOOP('',(#1596,#1597,#1598));
#1596 = ORIENTED_EDGE('',*,*,#1120,.F.);
#1597 = ORIENTED_EDGE('',*,*,#1090,.F.);
#1598 = ORIENTED_EDGE('',*,*,#1111,.F.);
#1599 = FACE_BOUND('',#1600,.T.);
#1600 = EDGE_LOOP('',(#1601,#1602,#1603));
#1601 = ORIENTED_EDGE('',*,*,#1156,.F.);
#1602 = ORIENTED_EDGE('',*,*,#1165,.F.);
#1603 = ORIENTED_EDGE('',*,*,#1135,.F.);
#1604 = FACE_BOUND('',#1605,.T.);
#1605 = EDGE_LOOP('',(#1606));
#1606 = ORIENTED_EDGE('',*,*,#1180,.F.);
#1607 = FACE_BOUND('',#1608,.T.);
#1608 = EDGE_LOOP('',(#1609));
#1609 = ORIENTED_EDGE('',*,*,#1205,.F.);
#1610 = FACE_BOUND('',#1611,.T.);
#1611 = EDGE_LOOP('',(#1612,#1613,#1614));
#1612 = ORIENTED_EDGE('',*,*,#1260,.F.);
#1613 = ORIENTED_EDGE('',*,*,#1230,.F.);
#1614 = ORIENTED_EDGE('',*,*,#1251,.F.);
#1615 = FACE_BOUND('',#1616,.T.);
#1616 = EDGE_LOOP('',(#1617,#1618,#1619));
#1617 = ORIENTED_EDGE('',*,*,#1296,.F.);
#1618 = ORIENTED_EDGE('',*,*,#1305,.F.);
#1619 = ORIENTED_EDGE('',*,*,#1275,.F.);
#1620 = FACE_BOUND('',#1621,.T.);
#1621 = EDGE_LOOP('',(#1622,#1623,#1624));
#1622 = ORIENTED_EDGE('',*,*,#1341,.F.);
#1623 = ORIENTED_EDGE('',*,*,#1350,.F.);
#1624 = ORIENTED_EDGE('',*,*,#1320,.F.);
#1625 = FACE_BOUND('',#1626,.T.);
#1626 = EDGE_LOOP('',(#1627,#1628,#1629,#1630,#1639,#1646,#1647));
#1627 = ORIENTED_EDGE('',*,*,#1423,.F.);
#1628 = ORIENTED_EDGE('',*,*,#1406,.T.);
#1629 = ORIENTED_EDGE('',*,*,#1365,.T.);
#1630 = ORIENTED_EDGE('',*,*,#1631,.T.);
#1631 = EDGE_CURVE('',#1368,#1632,#1634,.T.);
#1632 = VERTEX_POINT('',#1633);
#1633 = CARTESIAN_POINT('',(-72.5,24.25783703112,67.86797269537));
#1634 = CIRCLE('',#1635,1.);
#1635 = AXIS2_PLACEMENT_3D('',#1636,#1637,#1638);
#1636 = CARTESIAN_POINT('',(-72.5,25.23793033387,68.06651014248));
#1637 = DIRECTION('',(-1.,5.147528311179E-16,-3.488356627965E-16));
#1638 = DIRECTION('',(4.352488603975E-16,0.98009330275,0.19853744711));
#1639 = ORIENTED_EDGE('',*,*,#1640,.T.);
#1640 = EDGE_CURVE('',#1632,#1471,#1641,.T.);
#1641 = CIRCLE('',#1642,1.);
#1642 = AXIS2_PLACEMENT_3D('',#1643,#1644,#1645);
#1643 = CARTESIAN_POINT('',(-72.5,25.23793033387,68.06651014248));
#1644 = DIRECTION('',(-1.,5.147528311179E-16,-3.488356627965E-16));
#1645 = DIRECTION('',(4.352488603975E-16,0.98009330275,0.19853744711));
#1646 = ORIENTED_EDGE('',*,*,#1470,.T.);
#1647 = ORIENTED_EDGE('',*,*,#1455,.T.);
#1648 = PLANE('',#1649);
#1649 = AXIS2_PLACEMENT_3D('',#1650,#1651,#1652);
#1650 = CARTESIAN_POINT('',(-72.5,30.068010887418,49.410525580012));
#1651 = DIRECTION('',(1.,-3.758884929119E-16,5.015457116608E-16));
#1652 = DIRECTION('',(-5.015457116608E-16,0.,1.));
#1653 = ADVANCED_FACE('',(#1654),#1662,.T.);
#1654 = FACE_BOUND('',#1655,.T.);
#1655 = EDGE_LOOP('',(#1656,#1657,#1658,#1659,#1660,#1661));
#1656 = ORIENTED_EDGE('',*,*,#406,.T.);
#1657 = ORIENTED_EDGE('',*,*,#1016,.T.);
#1658 = ORIENTED_EDGE('',*,*,#1579,.F.);
#1659 = ORIENTED_EDGE('',*,*,#1570,.F.);
#1660 = ORIENTED_EDGE('',*,*,#960,.F.);
#1661 = ORIENTED_EDGE('',*,*,#370,.T.);
#1662 = CYLINDRICAL_SURFACE('',#1663,19.);
#1663 = AXIS2_PLACEMENT_3D('',#1664,#1665,#1666);
#1664 = CARTESIAN_POINT('',(-77.5,34.,30.));
#1665 = DIRECTION('',(1.,0.,0.));
#1666 = DIRECTION('',(-0.,0.,1.));
#1667 = ADVANCED_FACE('',(#1668),#1676,.F.);
#1668 = FACE_BOUND('',#1669,.F.);
#1669 = EDGE_LOOP('',(#1670,#1671,#1672,#1673,#1674,#1675));
#1670 = ORIENTED_EDGE('',*,*,#919,.T.);
#1671 = ORIENTED_EDGE('',*,*,#341,.T.);
#1672 = ORIENTED_EDGE('',*,*,#350,.T.);
#1673 = ORIENTED_EDGE('',*,*,#825,.T.);
#1674 = ORIENTED_EDGE('',*,*,#1547,.T.);
#1675 = ORIENTED_EDGE('',*,*,#1556,.T.);
#1676 = CYLINDRICAL_SURFACE('',#1677,1.);
#1677 = AXIS2_PLACEMENT_3D('',#1678,#1679,#1680);
#1678 = CARTESIAN_POINT('',(-72.5,22.2418653445,51.649161826504));
#1679 = DIRECTION('',(-1.,5.147528311179E-16,-3.488356627965E-16));
#1680 = DIRECTION('',(-4.352488603975E-16,-0.98009330275,-0.19853744711)
  );
#1681 = ADVANCED_FACE('',(#1682),#1690,.F.);
#1682 = FACE_BOUND('',#1683,.F.);
#1683 = EDGE_LOOP('',(#1684,#1685,#1686,#1687,#1688,#1689));
#1684 = ORIENTED_EDGE('',*,*,#856,.T.);
#1685 = ORIENTED_EDGE('',*,*,#1530,.T.);
#1686 = ORIENTED_EDGE('',*,*,#1539,.T.);
#1687 = ORIENTED_EDGE('',*,*,#841,.T.);
#1688 = ORIENTED_EDGE('',*,*,#298,.T.);
#1689 = ORIENTED_EDGE('',*,*,#307,.T.);
#1690 = CYLINDRICAL_SURFACE('',#1691,1.);
#1691 = AXIS2_PLACEMENT_3D('',#1692,#1693,#1694);
#1692 = CARTESIAN_POINT('',(-72.5,24.566392330431,59.448277569249));
#1693 = DIRECTION('',(1.,-5.147528311179E-16,3.488356627965E-16));
#1694 = DIRECTION('',(4.352488603975E-16,0.98009330275,0.19853744711));
#1695 = ADVANCED_FACE('',(#1696),#1704,.F.);
#1696 = FACE_BOUND('',#1697,.F.);
#1697 = EDGE_LOOP('',(#1698,#1699,#1700,#1701,#1702,#1703));
#1698 = ORIENTED_EDGE('',*,*,#1479,.T.);
#1699 = ORIENTED_EDGE('',*,*,#653,.T.);
#1700 = ORIENTED_EDGE('',*,*,#662,.T.);
#1701 = ORIENTED_EDGE('',*,*,#1382,.T.);
#1702 = ORIENTED_EDGE('',*,*,#1631,.T.);
#1703 = ORIENTED_EDGE('',*,*,#1640,.T.);
#1704 = CYLINDRICAL_SURFACE('',#1705,1.);
#1705 = AXIS2_PLACEMENT_3D('',#1706,#1707,#1708);
#1706 = CARTESIAN_POINT('',(-72.5,25.23793033387,68.06651014248));
#1707 = DIRECTION('',(-1.,5.147528311179E-16,-3.488356627965E-16));
#1708 = DIRECTION('',(-4.352488603975E-16,-0.98009330275,-0.19853744711)
  );
#1709 = ADVANCED_FACE('',(#1710),#1722,.F.);
#1710 = FACE_BOUND('',#1711,.F.);
#1711 = EDGE_LOOP('',(#1712,#1713,#1718,#1719,#1720,#1721));
#1712 = ORIENTED_EDGE('',*,*,#1501,.F.);
#1713 = ORIENTED_EDGE('',*,*,#1714,.T.);
#1714 = EDGE_CURVE('',#1502,#42,#1715,.T.);
#1715 = B_SPLINE_CURVE_WITH_KNOTS('',1,(#1716,#1717),.UNSPECIFIED.,.F.,
  .F.,(2,2),(0.,2.),.PIECEWISE_BEZIER_KNOTS.);
#1716 = CARTESIAN_POINT('',(-72.5,17.114465194958,77.595049263003));
#1717 = CARTESIAN_POINT('',(-74.5,17.114465194958,77.595049263003));
#1718 = ORIENTED_EDGE('',*,*,#41,.T.);
#1719 = ORIENTED_EDGE('',*,*,#52,.T.);
#1720 = ORIENTED_EDGE('',*,*,#1714,.F.);
#1721 = ORIENTED_EDGE('',*,*,#1512,.F.);
#1722 = CYLINDRICAL_SURFACE('',#1723,7.1);
#1723 = AXIS2_PLACEMENT_3D('',#1724,#1725,#1726);
#1724 = CARTESIAN_POINT('',(-72.5,24.073127644481,79.004665137487));
#1725 = DIRECTION('',(-1.,5.147528311179E-16,-3.488356627965E-16));
#1726 = DIRECTION('',(-4.352488603975E-16,-0.98009330275,-0.19853744711)
  );
#1727 = ( GEOMETRIC_REPRESENTATION_CONTEXT(3) 
GLOBAL_UNCERTAINTY_ASSIGNED_CONTEXT((#1731)) 
GLOBAL_UNIT_ASSIGNED_CONTEXT((#1728,#1729,#1730)) REPRESENTATION_CONTEXT
('Context #1','3D Context with UNIT and UNCERTAINTY') );
#1728 = ( LENGTH_UNIT() NAMED_UNIT(*) SI_UNIT(.MILLI.,.METRE.) );
#1729 = ( NAMED_UNIT(*) PLANE_ANGLE_UNIT() SI_UNIT($,.RADIAN.) );
#1730 = ( NAMED_UNIT(*) SI_UNIT($,.STERADIAN.) SOLID_ANGLE_UNIT() );
#1731 = UNCERTAINTY_MEASURE_WITH_UNIT(LENGTH_MEASURE(5.E-07),#1728,
  'distance_accuracy_value','confusion accuracy');
#1732 = PRODUCT_RELATED_PRODUCT_CATEGORY('part',$,(#7));
ENDSEC;
END-ISO-10303-21;
