ISO-10303-21;
HEADER;
FILE_DESCRIPTION(('FreeCAD Model'),'2;1');
FILE_NAME('Open CASCADE Shape Model','2026-08-28T01:43:53',('Author'),(
    ''),'Open CASCADE STEP processor 7.8','FreeCAD','Unknown');
FILE_SCHEMA(('AUTOMOTIVE_DESIGN { 1 0 10303 214 1 1 1 1 }'));
ENDSEC;
DATA;
#1 = APPLICATION_PROTOCOL_DEFINITION('international standard',
  'automotive_design',2000,#2);
#2 = APPLICATION_CONTEXT(
  'core data for automotive mechanical design processes');
#3 = SHAPE_DEFINITION_REPRESENTATION(#4,#10);
#4 = PRODUCT_DEFINITION_SHAPE('','',#5);
#5 = PRODUCT_DEFINITION('design','',#6,#9);
#6 = PRODUCT_DEFINITION_FORMATION('','',#7);
#7 = PRODUCT('EduLite_direct_proximal_link',
  'EduLite_direct_proximal_link','',(#8));
#8 = PRODUCT_CONTEXT('',#2,'mechanical');
#9 = PRODUCT_DEFINITION_CONTEXT('part definition',#2,'design');
#10 = ADVANCED_BREP_SHAPE_REPRESENTATION('',(#11,#15),#1767);
#11 = AXIS2_PLACEMENT_3D('',#12,#13,#14);
#12 = CARTESIAN_POINT('',(0.,0.,0.));
#13 = DIRECTION('',(0.,0.,1.));
#14 = DIRECTION('',(1.,0.,-0.));
#15 = MANIFOLD_SOLID_BREP('',#16);
#16 = CLOSED_SHELL('',(#17,#63,#97,#137,#170,#201,#673,#704,#729,#754,
    #778,#802,#820,#851,#882,#907,#931,#956,#988,#1012,#1037,#1054,#1079
    ,#1104,#1149,#1194,#1219,#1244,#1289,#1334,#1399,#1430,#1455,#1479,
    #1504,#1529,#1693,#1707,#1721,#1735,#1749));
#17 = ADVANCED_FACE('',(#18,#38),#58,.T.);
#18 = FACE_BOUND('',#19,.T.);
#19 = EDGE_LOOP('',(#20,#31));
#20 = ORIENTED_EDGE('',*,*,#21,.F.);
#21 = EDGE_CURVE('',#22,#24,#26,.T.);
#22 = VERTEX_POINT('',#23);
#23 = CARTESIAN_POINT('',(-69.5,23.869265484455,-79.00794035843));
#24 = VERTEX_POINT('',#25);
#25 = CARTESIAN_POINT('',(-69.5,28.014361756111,-79.68482801432));
#26 = CIRCLE('',#27,2.1);
#27 = AXIS2_PLACEMENT_3D('',#28,#29,#30);
#28 = CARTESIAN_POINT('',(-69.5,25.941813620283,-79.34638418637));
#29 = DIRECTION('',(-1.,-8.823001663939E-16,3.690639087379E-16));
#30 = DIRECTION('',(-9.302461748244E-16,0.986927683728,-0.161163727594)
  );
#31 = ORIENTED_EDGE('',*,*,#32,.F.);
#32 = EDGE_CURVE('',#24,#22,#33,.T.);
#33 = CIRCLE('',#34,2.1);
#34 = AXIS2_PLACEMENT_3D('',#35,#36,#37);
#35 = CARTESIAN_POINT('',(-69.5,25.941813620283,-79.34638418637));
#36 = DIRECTION('',(-1.,-8.823001663939E-16,3.690639087379E-16));
#37 = DIRECTION('',(-9.302461748244E-16,0.986927683728,-0.161163727594)
  );
#38 = FACE_BOUND('',#39,.T.);
#39 = EDGE_LOOP('',(#40,#51));
#40 = ORIENTED_EDGE('',*,*,#41,.T.);
#41 = EDGE_CURVE('',#42,#44,#46,.T.);
#42 = VERTEX_POINT('',#43);
#43 = CARTESIAN_POINT('',(-69.5,18.934627065817,-78.20212172046));
#44 = VERTEX_POINT('',#45);
#45 = CARTESIAN_POINT('',(-69.5,32.949000174749,-80.49064665229));
#46 = CIRCLE('',#47,7.1);
#47 = AXIS2_PLACEMENT_3D('',#48,#49,#50);
#48 = CARTESIAN_POINT('',(-69.5,25.941813620283,-79.34638418637));
#49 = DIRECTION('',(-1.,-8.823001663939E-16,3.690639087379E-16));
#50 = DIRECTION('',(-9.302461748244E-16,0.986927683728,-0.161163727594)
  );
#51 = ORIENTED_EDGE('',*,*,#52,.T.);
#52 = EDGE_CURVE('',#44,#42,#53,.T.);
#53 = CIRCLE('',#54,7.1);
#54 = AXIS2_PLACEMENT_3D('',#55,#56,#57);
#55 = CARTESIAN_POINT('',(-69.5,25.941813620283,-79.34638418637));
#56 = DIRECTION('',(-1.,-8.823001663939E-16,3.690639087379E-16));
#57 = DIRECTION('',(-9.302461748244E-16,0.986927683728,-0.161163727594)
  );
#58 = PLANE('',#59);
#59 = AXIS2_PLACEMENT_3D('',#60,#61,#62);
#60 = CARTESIAN_POINT('',(-69.5,34.,-30.));
#61 = DIRECTION('',(-1.,-8.823001663939E-16,3.690639087379E-16));
#62 = DIRECTION('',(-9.302461748244E-16,0.986927683728,-0.161163727594)
  );
#63 = ADVANCED_FACE('',(#64),#92,.F.);
#64 = FACE_BOUND('',#65,.F.);
#65 = EDGE_LOOP('',(#66,#67,#74,#83,#90,#91));
#66 = ORIENTED_EDGE('',*,*,#21,.F.);
#67 = ORIENTED_EDGE('',*,*,#68,.T.);
#68 = EDGE_CURVE('',#22,#69,#71,.T.);
#69 = VERTEX_POINT('',#70);
#70 = CARTESIAN_POINT('',(-66.5,23.869265484455,-79.00794035843));
#71 = B_SPLINE_CURVE_WITH_KNOTS('',1,(#72,#73),.UNSPECIFIED.,.F.,.F.,(2,
    2),(-1.42108547152E-14,3.),.PIECEWISE_BEZIER_KNOTS.);
#72 = CARTESIAN_POINT('',(-69.5,23.869265484455,-79.00794035843));
#73 = CARTESIAN_POINT('',(-66.5,23.869265484455,-79.00794035843));
#74 = ORIENTED_EDGE('',*,*,#75,.T.);
#75 = EDGE_CURVE('',#69,#76,#78,.T.);
#76 = VERTEX_POINT('',#77);
#77 = CARTESIAN_POINT('',(-66.5,28.014361756111,-79.68482801432));
#78 = CIRCLE('',#79,2.1);
#79 = AXIS2_PLACEMENT_3D('',#80,#81,#82);
#80 = CARTESIAN_POINT('',(-66.5,25.941813620283,-79.34638418637));
#81 = DIRECTION('',(-1.,-8.823001663939E-16,3.690639087379E-16));
#82 = DIRECTION('',(-9.302461748244E-16,0.986927683728,-0.161163727594)
  );
#83 = ORIENTED_EDGE('',*,*,#84,.T.);
#84 = EDGE_CURVE('',#76,#69,#85,.T.);
#85 = CIRCLE('',#86,2.1);
#86 = AXIS2_PLACEMENT_3D('',#87,#88,#89);
#87 = CARTESIAN_POINT('',(-66.5,25.941813620283,-79.34638418637));
#88 = DIRECTION('',(-1.,-8.823001663939E-16,3.690639087379E-16));
#89 = DIRECTION('',(-9.302461748244E-16,0.986927683728,-0.161163727594)
  );
#90 = ORIENTED_EDGE('',*,*,#68,.F.);
#91 = ORIENTED_EDGE('',*,*,#32,.F.);
#92 = CYLINDRICAL_SURFACE('',#93,2.1);
#93 = AXIS2_PLACEMENT_3D('',#94,#95,#96);
#94 = CARTESIAN_POINT('',(-69.5,25.941813620283,-79.34638418637));
#95 = DIRECTION('',(1.,8.823001663939E-16,-3.690639087379E-16));
#96 = DIRECTION('',(9.302461748244E-16,-0.986927683728,0.161163727594));
#97 = ADVANCED_FACE('',(#98),#132,.T.);
#98 = FACE_BOUND('',#99,.T.);
#99 = EDGE_LOOP('',(#100,#110,#118,#126));
#100 = ORIENTED_EDGE('',*,*,#101,.F.);
#101 = EDGE_CURVE('',#102,#104,#106,.T.);
#102 = VERTEX_POINT('',#103);
#103 = CARTESIAN_POINT('',(-66.5,17.587885650254,-39.57300906564));
#104 = VERTEX_POINT('',#105);
#105 = CARTESIAN_POINT('',(-66.5,15.950456773367,-78.93070599643));
#106 = LINE('',#107,#108);
#107 = CARTESIAN_POINT('',(-66.5,18.013829044935,-29.33491489609));
#108 = VECTOR('',#109,1.);
#109 = DIRECTION('',(-3.320696275367E-16,-4.156781899406E-02,
    -0.999135684692));
#110 = ORIENTED_EDGE('',*,*,#111,.F.);
#111 = EDGE_CURVE('',#112,#102,#114,.T.);
#112 = VERTEX_POINT('',#113);
#113 = CARTESIAN_POINT('',(-71.5,17.587885650254,-39.57300906564));
#114 = LINE('',#115,#116);
#115 = CARTESIAN_POINT('',(-71.5,17.587885650254,-39.57300906564));
#116 = VECTOR('',#117,1.);
#117 = DIRECTION('',(1.,0.,0.));
#118 = ORIENTED_EDGE('',*,*,#119,.T.);
#119 = EDGE_CURVE('',#112,#120,#122,.T.);
#120 = VERTEX_POINT('',#121);
#121 = CARTESIAN_POINT('',(-71.5,15.950456773367,-78.93070599643));
#122 = LINE('',#123,#124);
#123 = CARTESIAN_POINT('',(-71.5,18.013829044935,-29.33491489609));
#124 = VECTOR('',#125,1.);
#125 = DIRECTION('',(-3.320696275367E-16,-4.156781899406E-02,
    -0.999135684692));
#126 = ORIENTED_EDGE('',*,*,#127,.T.);
#127 = EDGE_CURVE('',#120,#104,#128,.T.);
#128 = LINE('',#129,#130);
#129 = CARTESIAN_POINT('',(-71.5,15.950456773367,-78.93070599643));
#130 = VECTOR('',#131,1.);
#131 = DIRECTION('',(1.,8.823001663939E-16,-3.690639087379E-16));
#132 = PLANE('',#133);
#133 = AXIS2_PLACEMENT_3D('',#134,#135,#136);
#134 = CARTESIAN_POINT('',(-71.5,18.013829044935,-29.33491489609));
#135 = DIRECTION('',(8.968787626091E-16,-0.999135684692,
    4.156781899406E-02));
#136 = DIRECTION('',(3.320696275367E-16,4.156781899406E-02,
    0.999135684692));
#137 = ADVANCED_FACE('',(#138),#165,.T.);
#138 = FACE_BOUND('',#139,.T.);
#139 = EDGE_LOOP('',(#140,#149,#150,#159));
#140 = ORIENTED_EDGE('',*,*,#141,.T.);
#141 = EDGE_CURVE('',#142,#104,#144,.T.);
#142 = VERTEX_POINT('',#143);
#143 = CARTESIAN_POINT('',(-66.5,35.546377520972,-82.13068881726));
#144 = CIRCLE('',#145,10.);
#145 = AXIS2_PLACEMENT_3D('',#146,#147,#148);
#146 = CARTESIAN_POINT('',(-66.5,25.941813620283,-79.34638418637));
#147 = DIRECTION('',(-1.,-8.823001663939E-16,3.690639087379E-16));
#148 = DIRECTION('',(-9.302461748244E-16,0.986927683728,-0.161163727594)
  );
#149 = ORIENTED_EDGE('',*,*,#127,.F.);
#150 = ORIENTED_EDGE('',*,*,#151,.F.);
#151 = EDGE_CURVE('',#152,#120,#154,.T.);
#152 = VERTEX_POINT('',#153);
#153 = CARTESIAN_POINT('',(-71.5,35.546377520972,-82.13068881726));
#154 = CIRCLE('',#155,10.);
#155 = AXIS2_PLACEMENT_3D('',#156,#157,#158);
#156 = CARTESIAN_POINT('',(-71.5,25.941813620283,-79.34638418637));
#157 = DIRECTION('',(-1.,-8.823001663939E-16,3.690639087379E-16));
#158 = DIRECTION('',(-9.302461748244E-16,0.986927683728,-0.161163727594)
  );
#159 = ORIENTED_EDGE('',*,*,#160,.T.);
#160 = EDGE_CURVE('',#152,#142,#161,.T.);
#161 = LINE('',#162,#163);
#162 = CARTESIAN_POINT('',(-71.5,35.546377520972,-82.13068881726));
#163 = VECTOR('',#164,1.);
#164 = DIRECTION('',(1.,8.823001663939E-16,-3.690639087379E-16));
#165 = CYLINDRICAL_SURFACE('',#166,10.);
#166 = AXIS2_PLACEMENT_3D('',#167,#168,#169);
#167 = CARTESIAN_POINT('',(-71.5,25.941813620283,-79.34638418637));
#168 = DIRECTION('',(1.,8.823001663939E-16,-3.690639087379E-16));
#169 = DIRECTION('',(9.302461748244E-16,-0.986927683728,0.161163727594)
  );
#170 = ADVANCED_FACE('',(#171),#196,.F.);
#171 = FACE_BOUND('',#172,.F.);
#172 = EDGE_LOOP('',(#173,#181,#189,#195));
#173 = ORIENTED_EDGE('',*,*,#174,.F.);
#174 = EDGE_CURVE('',#175,#142,#177,.T.);
#175 = VERTEX_POINT('',#176);
#176 = CARTESIAN_POINT('',(-66.5,46.514238994089,-44.2966367513));
#177 = LINE('',#178,#179);
#178 = CARTESIAN_POINT('',(-66.5,49.367302241103,-34.45488740941));
#179 = VECTOR('',#180,1.);
#180 = DIRECTION('',(-1.088105455789E-16,-0.278430463089,-0.960456390069
    ));
#181 = ORIENTED_EDGE('',*,*,#182,.F.);
#182 = EDGE_CURVE('',#183,#175,#185,.T.);
#183 = VERTEX_POINT('',#184);
#184 = CARTESIAN_POINT('',(-71.5,46.514238994089,-44.2966367513));
#185 = LINE('',#186,#187);
#186 = CARTESIAN_POINT('',(-71.5,46.51423899409,-44.2966367513));
#187 = VECTOR('',#188,1.);
#188 = DIRECTION('',(1.,0.,0.));
#189 = ORIENTED_EDGE('',*,*,#190,.T.);
#190 = EDGE_CURVE('',#183,#152,#191,.T.);
#191 = LINE('',#192,#193);
#192 = CARTESIAN_POINT('',(-71.5,49.367302241103,-34.45488740941));
#193 = VECTOR('',#194,1.);
#194 = DIRECTION('',(-1.088105455789E-16,-0.278430463089,-0.960456390069
    ));
#195 = ORIENTED_EDGE('',*,*,#160,.T.);
#196 = PLANE('',#197);
#197 = AXIS2_PLACEMENT_3D('',#198,#199,#200);
#198 = CARTESIAN_POINT('',(-71.5,49.367302241103,-34.45488740941));
#199 = DIRECTION('',(9.501694677911E-16,-0.960456390069,0.278430463089)
  );
#200 = DIRECTION('',(1.088105455789E-16,0.278430463089,0.960456390069));
#201 = ADVANCED_FACE('',(#202,#223,#276,#347,#358,#394,#405,#416,#445,
    #474,#485,#496,#525,#554,#601,#605),#668,.T.);
#202 = FACE_BOUND('',#203,.T.);
#203 = EDGE_LOOP('',(#204,#205,#206,#207,#216));
#204 = ORIENTED_EDGE('',*,*,#101,.T.);
#205 = ORIENTED_EDGE('',*,*,#141,.F.);
#206 = ORIENTED_EDGE('',*,*,#174,.F.);
#207 = ORIENTED_EDGE('',*,*,#208,.T.);
#208 = EDGE_CURVE('',#175,#209,#211,.T.);
#209 = VERTEX_POINT('',#210);
#210 = CARTESIAN_POINT('',(-66.5,34.,-11.));
#211 = CIRCLE('',#212,19.);
#212 = AXIS2_PLACEMENT_3D('',#213,#214,#215);
#213 = CARTESIAN_POINT('',(-66.5,34.,-30.));
#214 = DIRECTION('',(1.,0.,0.));
#215 = DIRECTION('',(-0.,0.,1.));
#216 = ORIENTED_EDGE('',*,*,#217,.T.);
#217 = EDGE_CURVE('',#209,#102,#218,.T.);
#218 = CIRCLE('',#219,19.);
#219 = AXIS2_PLACEMENT_3D('',#220,#221,#222);
#220 = CARTESIAN_POINT('',(-66.5,34.,-30.));
#221 = DIRECTION('',(1.,0.,0.));
#222 = DIRECTION('',(-0.,0.,1.));
#223 = FACE_BOUND('',#224,.T.);
#224 = EDGE_LOOP('',(#225,#235,#244,#252,#261,#269));
#225 = ORIENTED_EDGE('',*,*,#226,.F.);
#226 = EDGE_CURVE('',#227,#229,#231,.T.);
#227 = VERTEX_POINT('',#228);
#228 = CARTESIAN_POINT('',(-66.5,36.540376519311,-53.80299213576));
#229 = VERTEX_POINT('',#230);
#230 = CARTESIAN_POINT('',(-66.5,31.606194919976,-60.27473718805));
#231 = LINE('',#232,#233);
#232 = CARTESIAN_POINT('',(-66.5,47.083194859199,-39.97487676247));
#233 = VECTOR('',#234,1.);
#234 = DIRECTION('',(2.41447939057E-16,-0.606301940412,-0.79523452959));
#235 = ORIENTED_EDGE('',*,*,#236,.T.);
#236 = EDGE_CURVE('',#227,#237,#239,.T.);
#237 = VERTEX_POINT('',#238);
#238 = CARTESIAN_POINT('',(-66.5,38.296067438969,-54.68772453927));
#239 = CIRCLE('',#240,1.);
#240 = AXIS2_PLACEMENT_3D('',#241,#242,#243);
#241 = CARTESIAN_POINT('',(-66.5,37.335611048901,-54.40929407618));
#242 = DIRECTION('',(-1.,-8.823001663939E-16,3.690639087379E-16));
#243 = DIRECTION('',(-9.302461748244E-16,0.986927683728,-0.161163727594)
  );
#244 = ORIENTED_EDGE('',*,*,#245,.T.);
#245 = EDGE_CURVE('',#237,#246,#248,.T.);
#246 = VERTEX_POINT('',#247);
#247 = CARTESIAN_POINT('',(-66.5,35.012357435195,-66.01500612071));
#248 = LINE('',#249,#250);
#249 = CARTESIAN_POINT('',(-66.5,44.565020290758,-33.06273509397));
#250 = VECTOR('',#251,1.);
#251 = DIRECTION('',(-1.088105455789E-16,-0.278430463089,-0.960456390069
    ));
#252 = ORIENTED_EDGE('',*,*,#253,.T.);
#253 = EDGE_CURVE('',#246,#254,#256,.T.);
#254 = VERTEX_POINT('',#255);
#255 = CARTESIAN_POINT('',(-66.5,33.105103888615,-66.05840658284));
#256 = CIRCLE('',#257,1.);
#257 = AXIS2_PLACEMENT_3D('',#258,#259,#260);
#258 = CARTESIAN_POINT('',(-66.5,34.051901045126,-65.73657565762));
#259 = DIRECTION('',(-1.,-8.823001663939E-16,3.690639087379E-16));
#260 = DIRECTION('',(-9.302461748244E-16,0.986927683728,-0.161163727594)
  );
#261 = ORIENTED_EDGE('',*,*,#262,.F.);
#262 = EDGE_CURVE('',#263,#254,#265,.T.);
#263 = VERTEX_POINT('',#264);
#264 = CARTESIAN_POINT('',(-66.5,31.454632293055,-61.20287005368));
#265 = LINE('',#266,#267);
#266 = CARTESIAN_POINT('',(-66.5,22.210486118979,-34.00743721507));
#267 = VECTOR('',#268,1.);
#268 = DIRECTION('',(-6.33380138229E-16,0.321830925212,-0.946797156511)
  );
#269 = ORIENTED_EDGE('',*,*,#270,.T.);
#270 = EDGE_CURVE('',#263,#229,#271,.T.);
#271 = CIRCLE('',#272,1.);
#272 = AXIS2_PLACEMENT_3D('',#273,#274,#275);
#273 = CARTESIAN_POINT('',(-66.5,32.401429449566,-60.88103912847));
#274 = DIRECTION('',(-1.,-8.823001663939E-16,3.690639087379E-16));
#275 = DIRECTION('',(-9.302461748244E-16,0.986927683728,-0.161163727594)
  );
#276 = FACE_BOUND('',#277,.T.);
#277 = EDGE_LOOP('',(#278,#288,#297,#306,#314,#323,#331,#340));
#278 = ORIENTED_EDGE('',*,*,#279,.T.);
#279 = EDGE_CURVE('',#280,#282,#284,.T.);
#280 = VERTEX_POINT('',#281);
#281 = CARTESIAN_POINT('',(-66.5,24.019527282929,-51.75835728677));
#282 = VERTEX_POINT('',#283);
#283 = CARTESIAN_POINT('',(-66.5,26.638638526738,-59.46354309697));
#284 = LINE('',#285,#286);
#285 = CARTESIAN_POINT('',(-66.5,18.423297492935,-35.29476091592));
#286 = VECTOR('',#287,1.);
#287 = DIRECTION('',(-6.33380138229E-16,0.321830925212,-0.946797156511)
  );
#288 = ORIENTED_EDGE('',*,*,#289,.T.);
#289 = EDGE_CURVE('',#282,#290,#292,.T.);
#290 = VERTEX_POINT('',#291);
#291 = CARTESIAN_POINT('',(-66.5,26.678769053954,-59.94653774977));
#292 = CIRCLE('',#293,1.);
#293 = AXIS2_PLACEMENT_3D('',#294,#295,#296);
#294 = CARTESIAN_POINT('',(-66.5,25.691841370227,-59.78537402218));
#295 = DIRECTION('',(-1.,-8.823001663939E-16,3.690639087379E-16));
#296 = DIRECTION('',(-9.302461748244E-16,0.986927683728,-0.161163727594)
  );
#297 = ORIENTED_EDGE('',*,*,#298,.T.);
#298 = EDGE_CURVE('',#290,#299,#301,.T.);
#299 = VERTEX_POINT('',#300);
#300 = CARTESIAN_POINT('',(-66.5,26.487075899817,-60.39167596259));
#301 = CIRCLE('',#302,1.);
#302 = AXIS2_PLACEMENT_3D('',#303,#304,#305);
#303 = CARTESIAN_POINT('',(-66.5,25.691841370227,-59.78537402218));
#304 = DIRECTION('',(-1.,-8.823001663939E-16,3.690639087379E-16));
#305 = DIRECTION('',(-9.302461748244E-16,0.986927683728,-0.161163727594)
  );
#306 = ORIENTED_EDGE('',*,*,#307,.T.);
#307 = EDGE_CURVE('',#299,#308,#310,.T.);
#308 = VERTEX_POINT('',#309);
#309 = CARTESIAN_POINT('',(-66.5,23.377728560605,-64.4699415986));
#310 = LINE('',#311,#312);
#311 = CARTESIAN_POINT('',(-66.5,43.902256740839,-37.54966900082));
#312 = VECTOR('',#313,1.);
#313 = DIRECTION('',(2.41447939057E-16,-0.606301940412,-0.79523452959));
#314 = ORIENTED_EDGE('',*,*,#315,.T.);
#315 = EDGE_CURVE('',#308,#316,#318,.T.);
#316 = VERTEX_POINT('',#317);
#317 = CARTESIAN_POINT('',(-66.5,21.583358346323,-63.8220718392));
#318 = CIRCLE('',#319,1.);
#319 = AXIS2_PLACEMENT_3D('',#320,#321,#322);
#320 = CARTESIAN_POINT('',(-66.5,22.582494031015,-63.86363965819));
#321 = DIRECTION('',(-1.,-8.823001663939E-16,3.690639087379E-16));
#322 = DIRECTION('',(-9.302461748244E-16,0.986927683728,-0.161163727594)
  );
#323 = ORIENTED_EDGE('',*,*,#324,.F.);
#324 = EDGE_CURVE('',#325,#316,#327,.T.);
#325 = VERTEX_POINT('',#326);
#326 = CARTESIAN_POINT('',(-66.5,22.073594441726,-52.03862039299));
#327 = LINE('',#328,#329);
#328 = CARTESIAN_POINT('',(-66.5,23.009507468393,-29.54275399106));
#329 = VECTOR('',#330,1.);
#330 = DIRECTION('',(-3.320696275367E-16,-4.156781899406E-02,
    -0.999135684692));
#331 = ORIENTED_EDGE('',*,*,#332,.T.);
#332 = EDGE_CURVE('',#325,#333,#335,.T.);
#333 = VERTEX_POINT('',#334);
#334 = CARTESIAN_POINT('',(-66.5,22.08580244269,-51.91902448439));
#335 = CIRCLE('',#336,1.);
#336 = AXIS2_PLACEMENT_3D('',#337,#338,#339);
#337 = CARTESIAN_POINT('',(-66.5,23.072730126418,-52.08018821199));
#338 = DIRECTION('',(-1.,-8.823001663939E-16,3.690639087379E-16));
#339 = DIRECTION('',(-9.302461748244E-16,0.986927683728,-0.161163727594)
  );
#340 = ORIENTED_EDGE('',*,*,#341,.T.);
#341 = EDGE_CURVE('',#333,#280,#342,.T.);
#342 = CIRCLE('',#343,1.);
#343 = AXIS2_PLACEMENT_3D('',#344,#345,#346);
#344 = CARTESIAN_POINT('',(-66.5,23.072730126418,-52.08018821199));
#345 = DIRECTION('',(-1.,-8.823001663939E-16,3.690639087379E-16));
#346 = DIRECTION('',(-9.302461748244E-16,0.986927683728,-0.161163727594)
  );
#347 = FACE_BOUND('',#348,.T.);
#348 = EDGE_LOOP('',(#349));
#349 = ORIENTED_EDGE('',*,*,#350,.F.);
#350 = EDGE_CURVE('',#351,#351,#353,.T.);
#351 = VERTEX_POINT('',#352);
#352 = CARTESIAN_POINT('',(-66.5,34.,-25.));
#353 = CIRCLE('',#354,5.);
#354 = AXIS2_PLACEMENT_3D('',#355,#356,#357);
#355 = CARTESIAN_POINT('',(-66.5,34.,-30.));
#356 = DIRECTION('',(1.,0.,0.));
#357 = DIRECTION('',(-0.,0.,1.));
#358 = FACE_BOUND('',#359,.T.);
#359 = EDGE_LOOP('',(#360,#371,#379,#388));
#360 = ORIENTED_EDGE('',*,*,#361,.T.);
#361 = EDGE_CURVE('',#362,#364,#366,.T.);
#362 = VERTEX_POINT('',#363);
#363 = CARTESIAN_POINT('',(-66.5,26.829043697256,-47.59481132902));
#364 = VERTEX_POINT('',#365);
#365 = CARTESIAN_POINT('',(-66.5,35.201289238191,-48.96198576537));
#366 = CIRCLE('',#367,19.);
#367 = AXIS2_PLACEMENT_3D('',#368,#369,#370);
#368 = CARTESIAN_POINT('',(-66.5,34.,-30.));
#369 = DIRECTION('',(1.,0.,0.));
#370 = DIRECTION('',(-0.,0.,1.));
#371 = ORIENTED_EDGE('',*,*,#372,.T.);
#372 = EDGE_CURVE('',#364,#373,#375,.T.);
#373 = VERTEX_POINT('',#374);
#374 = CARTESIAN_POINT('',(-66.5,30.870108138563,-54.64282650619));
#375 = LINE('',#376,#377);
#376 = CARTESIAN_POINT('',(-66.5,43.902256740839,-37.54966900082));
#377 = VECTOR('',#378,1.);
#378 = DIRECTION('',(2.41447939057E-16,-0.606301940412,-0.79523452959));
#379 = ORIENTED_EDGE('',*,*,#380,.T.);
#380 = EDGE_CURVE('',#373,#381,#383,.T.);
#381 = VERTEX_POINT('',#382);
#382 = CARTESIAN_POINT('',(-66.5,29.128076452462,-54.35835549099));
#383 = CIRCLE('',#384,1.);
#384 = AXIS2_PLACEMENT_3D('',#385,#386,#387);
#385 = CARTESIAN_POINT('',(-66.5,30.074873608973,-54.03652456577));
#386 = DIRECTION('',(-1.,-8.823001663939E-16,3.690639087379E-16));
#387 = DIRECTION('',(-9.302461748244E-16,0.986927683728,-0.161163727594)
  );
#388 = ORIENTED_EDGE('',*,*,#389,.F.);
#389 = EDGE_CURVE('',#362,#381,#390,.T.);
#390 = LINE('',#391,#392);
#391 = CARTESIAN_POINT('',(-66.5,22.210486118979,-34.00743721507));
#392 = VECTOR('',#393,1.);
#393 = DIRECTION('',(-6.33380138229E-16,0.321830925212,-0.946797156511)
  );
#394 = FACE_BOUND('',#395,.T.);
#395 = EDGE_LOOP('',(#396));
#396 = ORIENTED_EDGE('',*,*,#397,.F.);
#397 = EDGE_CURVE('',#398,#398,#400,.T.);
#398 = VERTEX_POINT('',#399);
#399 = CARTESIAN_POINT('',(-66.5,28.,-17.45769515458));
#400 = CIRCLE('',#401,2.15);
#401 = AXIS2_PLACEMENT_3D('',#402,#403,#404);
#402 = CARTESIAN_POINT('',(-66.5,28.,-19.60769515458));
#403 = DIRECTION('',(1.,0.,0.));
#404 = DIRECTION('',(-0.,0.,1.));
#405 = FACE_BOUND('',#406,.T.);
#406 = EDGE_LOOP('',(#407));
#407 = ORIENTED_EDGE('',*,*,#408,.F.);
#408 = EDGE_CURVE('',#409,#409,#411,.T.);
#409 = VERTEX_POINT('',#410);
#410 = CARTESIAN_POINT('',(-66.5,40.,-17.45769515458));
#411 = CIRCLE('',#412,2.15);
#412 = AXIS2_PLACEMENT_3D('',#413,#414,#415);
#413 = CARTESIAN_POINT('',(-66.5,40.,-19.60769515458));
#414 = DIRECTION('',(1.,0.,0.));
#415 = DIRECTION('',(-0.,0.,1.));
#416 = FACE_BOUND('',#417,.T.);
#417 = EDGE_LOOP('',(#418,#429,#438));
#418 = ORIENTED_EDGE('',*,*,#419,.F.);
#419 = EDGE_CURVE('',#420,#422,#424,.T.);
#420 = VERTEX_POINT('',#421);
#421 = CARTESIAN_POINT('',(-66.5,46.,-27.85));
#422 = VERTEX_POINT('',#423);
#423 = CARTESIAN_POINT('',(-66.5,44.344944336642,-31.37233040889));
#424 = CIRCLE('',#425,2.15);
#425 = AXIS2_PLACEMENT_3D('',#426,#427,#428);
#426 = CARTESIAN_POINT('',(-66.5,46.,-30.));
#427 = DIRECTION('',(1.,0.,0.));
#428 = DIRECTION('',(-0.,0.,1.));
#429 = ORIENTED_EDGE('',*,*,#430,.F.);
#430 = EDGE_CURVE('',#431,#420,#433,.T.);
#431 = VERTEX_POINT('',#432);
#432 = CARTESIAN_POINT('',(-66.5,47.412250368089,-31.62112581184));
#433 = CIRCLE('',#434,2.15);
#434 = AXIS2_PLACEMENT_3D('',#435,#436,#437);
#435 = CARTESIAN_POINT('',(-66.5,46.,-30.));
#436 = DIRECTION('',(1.,0.,0.));
#437 = DIRECTION('',(-0.,0.,1.));
#438 = ORIENTED_EDGE('',*,*,#439,.F.);
#439 = EDGE_CURVE('',#422,#431,#440,.T.);
#440 = CIRCLE('',#441,2.15);
#441 = AXIS2_PLACEMENT_3D('',#442,#443,#444);
#442 = CARTESIAN_POINT('',(-66.5,46.,-30.));
#443 = DIRECTION('',(1.,0.,0.));
#444 = DIRECTION('',(-0.,0.,1.));
#445 = FACE_BOUND('',#446,.T.);
#446 = EDGE_LOOP('',(#447,#458,#467));
#447 = ORIENTED_EDGE('',*,*,#448,.F.);
#448 = EDGE_CURVE('',#449,#451,#453,.T.);
#449 = VERTEX_POINT('',#450);
#450 = CARTESIAN_POINT('',(-66.5,20.587749631911,-28.37887418815));
#451 = VERTEX_POINT('',#452);
#452 = CARTESIAN_POINT('',(-66.5,23.655055663358,-28.6276695911));
#453 = CIRCLE('',#454,2.15);
#454 = AXIS2_PLACEMENT_3D('',#455,#456,#457);
#455 = CARTESIAN_POINT('',(-66.5,22.,-30.));
#456 = DIRECTION('',(1.,0.,0.));
#457 = DIRECTION('',(-0.,0.,1.));
#458 = ORIENTED_EDGE('',*,*,#459,.F.);
#459 = EDGE_CURVE('',#460,#449,#462,.T.);
#460 = VERTEX_POINT('',#461);
#461 = CARTESIAN_POINT('',(-66.5,22.,-27.85));
#462 = CIRCLE('',#463,2.15);
#463 = AXIS2_PLACEMENT_3D('',#464,#465,#466);
#464 = CARTESIAN_POINT('',(-66.5,22.,-30.));
#465 = DIRECTION('',(1.,0.,0.));
#466 = DIRECTION('',(-0.,0.,1.));
#467 = ORIENTED_EDGE('',*,*,#468,.F.);
#468 = EDGE_CURVE('',#451,#460,#469,.T.);
#469 = CIRCLE('',#470,2.15);
#470 = AXIS2_PLACEMENT_3D('',#471,#472,#473);
#471 = CARTESIAN_POINT('',(-66.5,22.,-30.));
#472 = DIRECTION('',(1.,0.,0.));
#473 = DIRECTION('',(-0.,0.,1.));
#474 = FACE_BOUND('',#475,.T.);
#475 = EDGE_LOOP('',(#476));
#476 = ORIENTED_EDGE('',*,*,#477,.F.);
#477 = EDGE_CURVE('',#478,#478,#480,.T.);
#478 = VERTEX_POINT('',#479);
#479 = CARTESIAN_POINT('',(-66.5,28.,-38.24230484541));
#480 = CIRCLE('',#481,2.15);
#481 = AXIS2_PLACEMENT_3D('',#482,#483,#484);
#482 = CARTESIAN_POINT('',(-66.5,28.,-40.39230484541));
#483 = DIRECTION('',(1.,0.,0.));
#484 = DIRECTION('',(-0.,0.,1.));
#485 = FACE_BOUND('',#486,.T.);
#486 = EDGE_LOOP('',(#487));
#487 = ORIENTED_EDGE('',*,*,#488,.F.);
#488 = EDGE_CURVE('',#489,#489,#491,.T.);
#489 = VERTEX_POINT('',#490);
#490 = CARTESIAN_POINT('',(-66.5,40.,-38.24230484541));
#491 = CIRCLE('',#492,2.15);
#492 = AXIS2_PLACEMENT_3D('',#493,#494,#495);
#493 = CARTESIAN_POINT('',(-66.5,40.,-40.39230484541));
#494 = DIRECTION('',(1.,0.,0.));
#495 = DIRECTION('',(-0.,0.,1.));
#496 = FACE_BOUND('',#497,.T.);
#497 = EDGE_LOOP('',(#498,#509,#518));
#498 = ORIENTED_EDGE('',*,*,#499,.F.);
#499 = EDGE_CURVE('',#500,#502,#504,.T.);
#500 = VERTEX_POINT('',#501);
#501 = CARTESIAN_POINT('',(-66.5,26.335675176508,-23.475));
#502 = VERTEX_POINT('',#503);
#503 = CARTESIAN_POINT('',(-66.5,26.345310443026,-27.67497789551));
#504 = CIRCLE('',#505,2.1);
#505 = AXIS2_PLACEMENT_3D('',#506,#507,#508);
#506 = CARTESIAN_POINT('',(-66.5,26.335675176508,-25.575));
#507 = DIRECTION('',(1.,0.,0.));
#508 = DIRECTION('',(-0.,0.,1.));
#509 = ORIENTED_EDGE('',*,*,#510,.F.);
#510 = EDGE_CURVE('',#511,#500,#513,.T.);
#511 = VERTEX_POINT('',#512);
#512 = CARTESIAN_POINT('',(-66.5,28.159127014666,-24.53335543782));
#513 = CIRCLE('',#514,2.1);
#514 = AXIS2_PLACEMENT_3D('',#515,#516,#517);
#515 = CARTESIAN_POINT('',(-66.5,26.335675176508,-25.575));
#516 = DIRECTION('',(1.,0.,0.));
#517 = DIRECTION('',(-0.,0.,1.));
#518 = ORIENTED_EDGE('',*,*,#519,.F.);
#519 = EDGE_CURVE('',#502,#511,#520,.T.);
#520 = CIRCLE('',#521,2.1);
#521 = AXIS2_PLACEMENT_3D('',#522,#523,#524);
#522 = CARTESIAN_POINT('',(-66.5,26.335675176508,-25.575));
#523 = DIRECTION('',(1.,0.,0.));
#524 = DIRECTION('',(-0.,0.,1.));
#525 = FACE_BOUND('',#526,.T.);
#526 = EDGE_LOOP('',(#527,#538,#547));
#527 = ORIENTED_EDGE('',*,*,#528,.F.);
#528 = EDGE_CURVE('',#529,#531,#533,.T.);
#529 = VERTEX_POINT('',#530);
#530 = CARTESIAN_POINT('',(-66.5,41.664324823492,-23.475));
#531 = VERTEX_POINT('',#532);
#532 = CARTESIAN_POINT('',(-66.5,39.840872985334,-24.53335543782));
#533 = CIRCLE('',#534,2.1);
#534 = AXIS2_PLACEMENT_3D('',#535,#536,#537);
#535 = CARTESIAN_POINT('',(-66.5,41.664324823492,-25.575));
#536 = DIRECTION('',(1.,0.,0.));
#537 = DIRECTION('',(-0.,0.,1.));
#538 = ORIENTED_EDGE('',*,*,#539,.F.);
#539 = EDGE_CURVE('',#540,#529,#542,.T.);
#540 = VERTEX_POINT('',#541);
#541 = CARTESIAN_POINT('',(-66.5,41.654689556974,-27.67497789551));
#542 = CIRCLE('',#543,2.1);
#543 = AXIS2_PLACEMENT_3D('',#544,#545,#546);
#544 = CARTESIAN_POINT('',(-66.5,41.664324823492,-25.575));
#545 = DIRECTION('',(1.,0.,0.));
#546 = DIRECTION('',(-0.,0.,1.));
#547 = ORIENTED_EDGE('',*,*,#548,.F.);
#548 = EDGE_CURVE('',#531,#540,#549,.T.);
#549 = CIRCLE('',#550,2.1);
#550 = AXIS2_PLACEMENT_3D('',#551,#552,#553);
#551 = CARTESIAN_POINT('',(-66.5,41.664324823492,-25.575));
#552 = DIRECTION('',(1.,0.,0.));
#553 = DIRECTION('',(-0.,0.,1.));
#554 = FACE_BOUND('',#555,.T.);
#555 = EDGE_LOOP('',(#556,#567,#576,#585,#594));
#556 = ORIENTED_EDGE('',*,*,#557,.F.);
#557 = EDGE_CURVE('',#558,#560,#562,.T.);
#558 = VERTEX_POINT('',#559);
#559 = CARTESIAN_POINT('',(-66.5,33.306067460061,-40.83203371061));
#560 = VERTEX_POINT('',#561);
#561 = CARTESIAN_POINT('',(-66.5,35.81381657164,-37.79166666666));
#562 = CIRCLE('',#563,2.1);
#563 = AXIS2_PLACEMENT_3D('',#564,#565,#566);
#564 = CARTESIAN_POINT('',(-66.5,34.,-38.85));
#565 = DIRECTION('',(1.,0.,0.));
#566 = DIRECTION('',(-0.,0.,1.));
#567 = ORIENTED_EDGE('',*,*,#568,.F.);
#568 = EDGE_CURVE('',#569,#558,#571,.T.);
#569 = VERTEX_POINT('',#570);
#570 = CARTESIAN_POINT('',(-66.5,32.478227683216,-40.29713821588));
#571 = CIRCLE('',#572,2.1);
#572 = AXIS2_PLACEMENT_3D('',#573,#574,#575);
#573 = CARTESIAN_POINT('',(-66.5,34.,-38.85));
#574 = DIRECTION('',(1.,0.,0.));
#575 = DIRECTION('',(-0.,0.,1.));
#576 = ORIENTED_EDGE('',*,*,#577,.F.);
#577 = EDGE_CURVE('',#578,#569,#580,.T.);
#578 = VERTEX_POINT('',#579);
#579 = CARTESIAN_POINT('',(-66.5,32.18618342836,-37.79166666666));
#580 = CIRCLE('',#581,2.1);
#581 = AXIS2_PLACEMENT_3D('',#582,#583,#584);
#582 = CARTESIAN_POINT('',(-66.5,34.,-38.85));
#583 = DIRECTION('',(1.,0.,0.));
#584 = DIRECTION('',(-0.,0.,1.));
#585 = ORIENTED_EDGE('',*,*,#586,.F.);
#586 = EDGE_CURVE('',#587,#578,#589,.T.);
#587 = VERTEX_POINT('',#588);
#588 = CARTESIAN_POINT('',(-66.5,34.,-36.75));
#589 = CIRCLE('',#590,2.1);
#590 = AXIS2_PLACEMENT_3D('',#591,#592,#593);
#591 = CARTESIAN_POINT('',(-66.5,34.,-38.85));
#592 = DIRECTION('',(1.,0.,0.));
#593 = DIRECTION('',(-0.,0.,1.));
#594 = ORIENTED_EDGE('',*,*,#595,.F.);
#595 = EDGE_CURVE('',#560,#587,#596,.T.);
#596 = CIRCLE('',#597,2.1);
#597 = AXIS2_PLACEMENT_3D('',#598,#599,#600);
#598 = CARTESIAN_POINT('',(-66.5,34.,-38.85));
#599 = DIRECTION('',(1.,0.,0.));
#600 = DIRECTION('',(-0.,0.,1.));
#601 = FACE_BOUND('',#602,.T.);
#602 = EDGE_LOOP('',(#603,#604));
#603 = ORIENTED_EDGE('',*,*,#75,.T.);
#604 = ORIENTED_EDGE('',*,*,#84,.T.);
#605 = FACE_BOUND('',#606,.T.);
#606 = EDGE_LOOP('',(#607,#617,#626,#634,#643,#652,#661));
#607 = ORIENTED_EDGE('',*,*,#608,.F.);
#608 = EDGE_CURVE('',#609,#611,#613,.T.);
#609 = VERTEX_POINT('',#610);
#610 = CARTESIAN_POINT('',(-66.5,27.22316268123,-66.02358664446));
#611 = VERTEX_POINT('',#612);
#612 = CARTESIAN_POINT('',(-66.5,25.895037623624,-67.76557497573));
#613 = LINE('',#614,#615);
#614 = CARTESIAN_POINT('',(-66.5,47.083194859199,-39.97487676247));
#615 = VECTOR('',#616,1.);
#616 = DIRECTION('',(2.41447939057E-16,-0.606301940412,-0.79523452959));
#617 = ORIENTED_EDGE('',*,*,#618,.T.);
#618 = EDGE_CURVE('',#609,#619,#621,.T.);
#619 = VERTEX_POINT('',#620);
#620 = CARTESIAN_POINT('',(-66.5,28.96519436733,-66.30805765966));
#621 = CIRCLE('',#622,1.);
#622 = AXIS2_PLACEMENT_3D('',#623,#624,#625);
#623 = CARTESIAN_POINT('',(-66.5,28.018397210819,-66.62988858487));
#624 = DIRECTION('',(-1.,-8.823001663939E-16,3.690639087379E-16));
#625 = DIRECTION('',(-9.302461748244E-16,0.986927683728,-0.161163727594)
  );
#626 = ORIENTED_EDGE('',*,*,#627,.T.);
#627 = EDGE_CURVE('',#619,#628,#630,.T.);
#628 = VERTEX_POINT('',#629);
#629 = CARTESIAN_POINT('',(-66.5,29.670175974012,-68.38204908904));
#630 = LINE('',#631,#632);
#631 = CARTESIAN_POINT('',(-66.5,18.423297492935,-35.29476091592));
#632 = VECTOR('',#633,1.);
#633 = DIRECTION('',(-6.33380138229E-16,0.321830925212,-0.946797156511)
  );
#634 = ORIENTED_EDGE('',*,*,#635,.T.);
#635 = EDGE_CURVE('',#628,#636,#638,.T.);
#636 = VERTEX_POINT('',#637);
#637 = CARTESIAN_POINT('',(-66.5,28.470509254118,-69.67138039354));
#638 = CIRCLE('',#639,1.);
#639 = AXIS2_PLACEMENT_3D('',#640,#641,#642);
#640 = CARTESIAN_POINT('',(-66.5,28.723378817501,-68.70388001425));
#641 = DIRECTION('',(-1.,-8.823001663939E-16,3.690639087379E-16));
#642 = DIRECTION('',(-9.302461748244E-16,0.986927683728,-0.161163727594)
  );
#643 = ORIENTED_EDGE('',*,*,#644,.F.);
#644 = EDGE_CURVE('',#645,#636,#647,.T.);
#645 = VERTEX_POINT('',#646);
#646 = CARTESIAN_POINT('',(-66.5,26.622230468402,-69.36955939525));
#647 = CIRCLE('',#648,10.);
#648 = AXIS2_PLACEMENT_3D('',#649,#650,#651);
#649 = CARTESIAN_POINT('',(-66.5,25.941813620283,-79.34638418637));
#650 = DIRECTION('',(-1.,-8.823001663939E-16,3.690639087379E-16));
#651 = DIRECTION('',(-9.302461748244E-16,0.986927683728,-0.161163727594)
  );
#652 = ORIENTED_EDGE('',*,*,#653,.T.);
#653 = EDGE_CURVE('',#645,#654,#656,.T.);
#654 = VERTEX_POINT('',#655);
#655 = CARTESIAN_POINT('',(-66.5,25.703344469486,-68.21071318854));
#656 = CIRCLE('',#657,1.);
#657 = AXIS2_PLACEMENT_3D('',#658,#659,#660);
#658 = CARTESIAN_POINT('',(-66.5,26.690272153214,-68.37187691614));
#659 = DIRECTION('',(-1.,-8.823001663939E-16,3.690639087379E-16));
#660 = DIRECTION('',(-9.302461748244E-16,0.986927683728,-0.161163727594)
  );
#661 = ORIENTED_EDGE('',*,*,#662,.T.);
#662 = EDGE_CURVE('',#654,#611,#663,.T.);
#663 = CIRCLE('',#664,1.);
#664 = AXIS2_PLACEMENT_3D('',#665,#666,#667);
#665 = CARTESIAN_POINT('',(-66.5,26.690272153214,-68.37187691614));
#666 = DIRECTION('',(-1.,-8.823001663939E-16,3.690639087379E-16));
#667 = DIRECTION('',(-9.302461748244E-16,0.986927683728,-0.161163727594)
  );
#668 = PLANE('',#669);
#669 = AXIS2_PLACEMENT_3D('',#670,#671,#672);
#670 = CARTESIAN_POINT('',(-66.5,30.93935331991,-48.36382456989));
#671 = DIRECTION('',(1.,3.079808829045E-16,-4.107113979967E-16));
#672 = DIRECTION('',(4.107113979967E-16,0.,1.));
#673 = ADVANCED_FACE('',(#674),#699,.F.);
#674 = FACE_BOUND('',#675,.T.);
#675 = EDGE_LOOP('',(#676,#677,#685,#693));
#676 = ORIENTED_EDGE('',*,*,#226,.T.);
#677 = ORIENTED_EDGE('',*,*,#678,.T.);
#678 = EDGE_CURVE('',#229,#679,#681,.T.);
#679 = VERTEX_POINT('',#680);
#680 = CARTESIAN_POINT('',(-71.5,31.606194919976,-60.27473718805));
#681 = LINE('',#682,#683);
#682 = CARTESIAN_POINT('',(-71.5,31.606194919976,-60.27473718805));
#683 = VECTOR('',#684,1.);
#684 = DIRECTION('',(-1.,-8.823001663939E-16,3.690639087379E-16));
#685 = ORIENTED_EDGE('',*,*,#686,.F.);
#686 = EDGE_CURVE('',#687,#679,#689,.T.);
#687 = VERTEX_POINT('',#688);
#688 = CARTESIAN_POINT('',(-71.5,36.540376519311,-53.80299213576));
#689 = LINE('',#690,#691);
#690 = CARTESIAN_POINT('',(-71.5,47.083194859199,-39.97487676247));
#691 = VECTOR('',#692,1.);
#692 = DIRECTION('',(2.41447939057E-16,-0.606301940412,-0.79523452959));
#693 = ORIENTED_EDGE('',*,*,#694,.T.);
#694 = EDGE_CURVE('',#687,#227,#695,.T.);
#695 = LINE('',#696,#697);
#696 = CARTESIAN_POINT('',(-71.5,36.540376519311,-53.80299213576));
#697 = VECTOR('',#698,1.);
#698 = DIRECTION('',(1.,8.823001663939E-16,-3.690639087379E-16));
#699 = PLANE('',#700);
#700 = AXIS2_PLACEMENT_3D('',#701,#702,#703);
#701 = CARTESIAN_POINT('',(-71.5,47.083194859199,-39.97487676247));
#702 = DIRECTION('',(9.253997217834E-16,-0.79523452959,0.606301940412));
#703 = DIRECTION('',(-2.41447939057E-16,0.606301940412,0.79523452959));
#704 = ADVANCED_FACE('',(#705),#724,.F.);
#705 = FACE_BOUND('',#706,.F.);
#706 = EDGE_LOOP('',(#707,#708,#709,#717));
#707 = ORIENTED_EDGE('',*,*,#694,.T.);
#708 = ORIENTED_EDGE('',*,*,#236,.T.);
#709 = ORIENTED_EDGE('',*,*,#710,.T.);
#710 = EDGE_CURVE('',#237,#711,#713,.T.);
#711 = VERTEX_POINT('',#712);
#712 = CARTESIAN_POINT('',(-71.5,38.296067438969,-54.68772453927));
#713 = LINE('',#714,#715);
#714 = CARTESIAN_POINT('',(-71.5,38.296067438969,-54.68772453927));
#715 = VECTOR('',#716,1.);
#716 = DIRECTION('',(-1.,-8.823001663939E-16,3.690639087379E-16));
#717 = ORIENTED_EDGE('',*,*,#718,.T.);
#718 = EDGE_CURVE('',#711,#687,#719,.T.);
#719 = CIRCLE('',#720,1.);
#720 = AXIS2_PLACEMENT_3D('',#721,#722,#723);
#721 = CARTESIAN_POINT('',(-71.5,37.335611048901,-54.40929407618));
#722 = DIRECTION('',(1.,8.823001663939E-16,-3.690639087379E-16));
#723 = DIRECTION('',(-9.302461748244E-16,0.986927683728,-0.161163727594)
  );
#724 = CYLINDRICAL_SURFACE('',#725,1.);
#725 = AXIS2_PLACEMENT_3D('',#726,#727,#728);
#726 = CARTESIAN_POINT('',(-71.5,37.335611048901,-54.40929407618));
#727 = DIRECTION('',(1.,8.823001663939E-16,-3.690639087379E-16));
#728 = DIRECTION('',(9.302461748244E-16,-0.986927683728,0.161163727594)
  );
#729 = ADVANCED_FACE('',(#730),#749,.F.);
#730 = FACE_BOUND('',#731,.F.);
#731 = EDGE_LOOP('',(#732,#740,#741,#742));
#732 = ORIENTED_EDGE('',*,*,#733,.T.);
#733 = EDGE_CURVE('',#734,#263,#736,.T.);
#734 = VERTEX_POINT('',#735);
#735 = CARTESIAN_POINT('',(-71.5,31.454632293055,-61.20287005368));
#736 = LINE('',#737,#738);
#737 = CARTESIAN_POINT('',(-66.5,31.454632293055,-61.20287005368));
#738 = VECTOR('',#739,1.);
#739 = DIRECTION('',(1.,8.823001663939E-16,-3.690639087379E-16));
#740 = ORIENTED_EDGE('',*,*,#270,.T.);
#741 = ORIENTED_EDGE('',*,*,#678,.T.);
#742 = ORIENTED_EDGE('',*,*,#743,.T.);
#743 = EDGE_CURVE('',#679,#734,#744,.T.);
#744 = CIRCLE('',#745,1.);
#745 = AXIS2_PLACEMENT_3D('',#746,#747,#748);
#746 = CARTESIAN_POINT('',(-71.5,32.401429449566,-60.88103912847));
#747 = DIRECTION('',(1.,8.823001663939E-16,-3.690639087379E-16));
#748 = DIRECTION('',(-9.302461748244E-16,0.986927683728,-0.161163727594)
  );
#749 = CYLINDRICAL_SURFACE('',#750,1.);
#750 = AXIS2_PLACEMENT_3D('',#751,#752,#753);
#751 = CARTESIAN_POINT('',(-71.5,32.401429449566,-60.88103912847));
#752 = DIRECTION('',(-1.,-8.823001663939E-16,3.690639087379E-16));
#753 = DIRECTION('',(-9.302461748244E-16,0.986927683728,-0.161163727594)
  );
#754 = ADVANCED_FACE('',(#755),#773,.T.);
#755 = FACE_BOUND('',#756,.T.);
#756 = EDGE_LOOP('',(#757,#758,#759,#767));
#757 = ORIENTED_EDGE('',*,*,#245,.F.);
#758 = ORIENTED_EDGE('',*,*,#710,.T.);
#759 = ORIENTED_EDGE('',*,*,#760,.T.);
#760 = EDGE_CURVE('',#711,#761,#763,.T.);
#761 = VERTEX_POINT('',#762);
#762 = CARTESIAN_POINT('',(-71.5,35.012357435195,-66.01500612071));
#763 = LINE('',#764,#765);
#764 = CARTESIAN_POINT('',(-71.5,44.565020290758,-33.06273509397));
#765 = VECTOR('',#766,1.);
#766 = DIRECTION('',(-1.088105455789E-16,-0.278430463089,-0.960456390069
    ));
#767 = ORIENTED_EDGE('',*,*,#768,.T.);
#768 = EDGE_CURVE('',#761,#246,#769,.T.);
#769 = LINE('',#770,#771);
#770 = CARTESIAN_POINT('',(-71.5,35.012357435195,-66.01500612071));
#771 = VECTOR('',#772,1.);
#772 = DIRECTION('',(1.,8.823001663939E-16,-3.690639087379E-16));
#773 = PLANE('',#774);
#774 = AXIS2_PLACEMENT_3D('',#775,#776,#777);
#775 = CARTESIAN_POINT('',(-71.5,44.565020290758,-33.06273509397));
#776 = DIRECTION('',(9.501694677911E-16,-0.960456390069,0.278430463089)
  );
#777 = DIRECTION('',(1.088105455789E-16,0.278430463089,0.960456390069));
#778 = ADVANCED_FACE('',(#779),#797,.F.);
#779 = FACE_BOUND('',#780,.T.);
#780 = EDGE_LOOP('',(#781,#789,#790,#791));
#781 = ORIENTED_EDGE('',*,*,#782,.F.);
#782 = EDGE_CURVE('',#734,#783,#785,.T.);
#783 = VERTEX_POINT('',#784);
#784 = CARTESIAN_POINT('',(-71.5,33.105103888615,-66.05840658284));
#785 = LINE('',#786,#787);
#786 = CARTESIAN_POINT('',(-71.5,22.210486118979,-34.00743721507));
#787 = VECTOR('',#788,1.);
#788 = DIRECTION('',(-6.33380138229E-16,0.321830925212,-0.946797156511)
  );
#789 = ORIENTED_EDGE('',*,*,#733,.T.);
#790 = ORIENTED_EDGE('',*,*,#262,.T.);
#791 = ORIENTED_EDGE('',*,*,#792,.T.);
#792 = EDGE_CURVE('',#254,#783,#793,.T.);
#793 = LINE('',#794,#795);
#794 = CARTESIAN_POINT('',(-71.5,33.105103888615,-66.05840658284));
#795 = VECTOR('',#796,1.);
#796 = DIRECTION('',(-1.,-8.823001663939E-16,3.690639087379E-16));
#797 = PLANE('',#798);
#798 = AXIS2_PLACEMENT_3D('',#799,#800,#801);
#799 = CARTESIAN_POINT('',(-71.5,22.210486118979,-34.00743721507));
#800 = DIRECTION('',(7.165831095195E-16,-0.946797156511,-0.321830925212)
  );
#801 = DIRECTION('',(6.33380138229E-16,-0.321830925212,0.946797156511));
#802 = ADVANCED_FACE('',(#803),#815,.F.);
#803 = FACE_BOUND('',#804,.F.);
#804 = EDGE_LOOP('',(#805,#806,#807,#808));
#805 = ORIENTED_EDGE('',*,*,#768,.T.);
#806 = ORIENTED_EDGE('',*,*,#253,.T.);
#807 = ORIENTED_EDGE('',*,*,#792,.T.);
#808 = ORIENTED_EDGE('',*,*,#809,.T.);
#809 = EDGE_CURVE('',#783,#761,#810,.T.);
#810 = CIRCLE('',#811,1.);
#811 = AXIS2_PLACEMENT_3D('',#812,#813,#814);
#812 = CARTESIAN_POINT('',(-71.5,34.051901045126,-65.73657565762));
#813 = DIRECTION('',(1.,8.823001663939E-16,-3.690639087379E-16));
#814 = DIRECTION('',(-9.302461748244E-16,0.986927683728,-0.161163727594)
  );
#815 = CYLINDRICAL_SURFACE('',#816,1.);
#816 = AXIS2_PLACEMENT_3D('',#817,#818,#819);
#817 = CARTESIAN_POINT('',(-71.5,34.051901045126,-65.73657565762));
#818 = DIRECTION('',(1.,8.823001663939E-16,-3.690639087379E-16));
#819 = DIRECTION('',(9.302461748244E-16,-0.986927683728,0.161163727594)
  );
#820 = ADVANCED_FACE('',(#821),#846,.T.);
#821 = FACE_BOUND('',#822,.T.);
#822 = EDGE_LOOP('',(#823,#824,#832,#840));
#823 = ORIENTED_EDGE('',*,*,#279,.F.);
#824 = ORIENTED_EDGE('',*,*,#825,.T.);
#825 = EDGE_CURVE('',#280,#826,#828,.T.);
#826 = VERTEX_POINT('',#827);
#827 = CARTESIAN_POINT('',(-71.5,24.019527282929,-51.75835728677));
#828 = LINE('',#829,#830);
#829 = CARTESIAN_POINT('',(-71.5,24.019527282929,-51.75835728677));
#830 = VECTOR('',#831,1.);
#831 = DIRECTION('',(-1.,-8.823001663939E-16,3.690639087379E-16));
#832 = ORIENTED_EDGE('',*,*,#833,.T.);
#833 = EDGE_CURVE('',#826,#834,#836,.T.);
#834 = VERTEX_POINT('',#835);
#835 = CARTESIAN_POINT('',(-71.5,26.638638526738,-59.46354309697));
#836 = LINE('',#837,#838);
#837 = CARTESIAN_POINT('',(-71.5,18.423297492935,-35.29476091592));
#838 = VECTOR('',#839,1.);
#839 = DIRECTION('',(-6.33380138229E-16,0.321830925212,-0.946797156511)
  );
#840 = ORIENTED_EDGE('',*,*,#841,.T.);
#841 = EDGE_CURVE('',#834,#282,#842,.T.);
#842 = LINE('',#843,#844);
#843 = CARTESIAN_POINT('',(-66.5,26.638638526738,-59.46354309697));
#844 = VECTOR('',#845,1.);
#845 = DIRECTION('',(1.,8.823001663939E-16,-3.690639087379E-16));
#846 = PLANE('',#847);
#847 = AXIS2_PLACEMENT_3D('',#848,#849,#850);
#848 = CARTESIAN_POINT('',(-71.5,18.423297492935,-35.29476091592));
#849 = DIRECTION('',(7.165831095195E-16,-0.946797156511,-0.321830925212)
  );
#850 = DIRECTION('',(6.33380138229E-16,-0.321830925212,0.946797156511));
#851 = ADVANCED_FACE('',(#852),#877,.T.);
#852 = FACE_BOUND('',#853,.T.);
#853 = EDGE_LOOP('',(#854,#855,#863,#871));
#854 = ORIENTED_EDGE('',*,*,#307,.F.);
#855 = ORIENTED_EDGE('',*,*,#856,.T.);
#856 = EDGE_CURVE('',#299,#857,#859,.T.);
#857 = VERTEX_POINT('',#858);
#858 = CARTESIAN_POINT('',(-71.5,26.487075899817,-60.39167596259));
#859 = LINE('',#860,#861);
#860 = CARTESIAN_POINT('',(-71.5,26.487075899817,-60.39167596259));
#861 = VECTOR('',#862,1.);
#862 = DIRECTION('',(-1.,-8.823001663939E-16,3.690639087379E-16));
#863 = ORIENTED_EDGE('',*,*,#864,.T.);
#864 = EDGE_CURVE('',#857,#865,#867,.T.);
#865 = VERTEX_POINT('',#866);
#866 = CARTESIAN_POINT('',(-71.5,23.377728560605,-64.4699415986));
#867 = LINE('',#868,#869);
#868 = CARTESIAN_POINT('',(-71.5,43.902256740839,-37.54966900082));
#869 = VECTOR('',#870,1.);
#870 = DIRECTION('',(2.41447939057E-16,-0.606301940412,-0.79523452959));
#871 = ORIENTED_EDGE('',*,*,#872,.T.);
#872 = EDGE_CURVE('',#865,#308,#873,.T.);
#873 = LINE('',#874,#875);
#874 = CARTESIAN_POINT('',(-71.5,23.377728560605,-64.4699415986));
#875 = VECTOR('',#876,1.);
#876 = DIRECTION('',(1.,8.823001663939E-16,-3.690639087379E-16));
#877 = PLANE('',#878);
#878 = AXIS2_PLACEMENT_3D('',#879,#880,#881);
#879 = CARTESIAN_POINT('',(-71.5,43.902256740839,-37.54966900082));
#880 = DIRECTION('',(9.253997217834E-16,-0.79523452959,0.606301940412));
#881 = DIRECTION('',(-2.41447939057E-16,0.606301940412,0.79523452959));
#882 = ADVANCED_FACE('',(#883),#902,.F.);
#883 = FACE_BOUND('',#884,.F.);
#884 = EDGE_LOOP('',(#885,#886,#887,#895));
#885 = ORIENTED_EDGE('',*,*,#872,.T.);
#886 = ORIENTED_EDGE('',*,*,#315,.T.);
#887 = ORIENTED_EDGE('',*,*,#888,.T.);
#888 = EDGE_CURVE('',#316,#889,#891,.T.);
#889 = VERTEX_POINT('',#890);
#890 = CARTESIAN_POINT('',(-71.5,21.583358346323,-63.8220718392));
#891 = LINE('',#892,#893);
#892 = CARTESIAN_POINT('',(-71.5,21.583358346323,-63.8220718392));
#893 = VECTOR('',#894,1.);
#894 = DIRECTION('',(-1.,-8.823001663939E-16,3.690639087379E-16));
#895 = ORIENTED_EDGE('',*,*,#896,.T.);
#896 = EDGE_CURVE('',#889,#865,#897,.T.);
#897 = CIRCLE('',#898,1.);
#898 = AXIS2_PLACEMENT_3D('',#899,#900,#901);
#899 = CARTESIAN_POINT('',(-71.5,22.582494031015,-63.86363965819));
#900 = DIRECTION('',(1.,8.823001663939E-16,-3.690639087379E-16));
#901 = DIRECTION('',(-9.302461748244E-16,0.986927683728,-0.161163727594)
  );
#902 = CYLINDRICAL_SURFACE('',#903,1.);
#903 = AXIS2_PLACEMENT_3D('',#904,#905,#906);
#904 = CARTESIAN_POINT('',(-71.5,22.582494031015,-63.86363965819));
#905 = DIRECTION('',(1.,8.823001663939E-16,-3.690639087379E-16));
#906 = DIRECTION('',(9.302461748244E-16,-0.986927683728,0.161163727594)
  );
#907 = ADVANCED_FACE('',(#908),#926,.F.);
#908 = FACE_BOUND('',#909,.T.);
#909 = EDGE_LOOP('',(#910,#918,#924,#925));
#910 = ORIENTED_EDGE('',*,*,#911,.F.);
#911 = EDGE_CURVE('',#912,#889,#914,.T.);
#912 = VERTEX_POINT('',#913);
#913 = CARTESIAN_POINT('',(-71.5,22.073594441726,-52.03862039299));
#914 = LINE('',#915,#916);
#915 = CARTESIAN_POINT('',(-71.5,23.009507468393,-29.54275399106));
#916 = VECTOR('',#917,1.);
#917 = DIRECTION('',(-3.320696275367E-16,-4.156781899406E-02,
    -0.999135684692));
#918 = ORIENTED_EDGE('',*,*,#919,.T.);
#919 = EDGE_CURVE('',#912,#325,#920,.T.);
#920 = LINE('',#921,#922);
#921 = CARTESIAN_POINT('',(-71.5,22.073594441726,-52.03862039299));
#922 = VECTOR('',#923,1.);
#923 = DIRECTION('',(1.,8.823001663939E-16,-3.690639087379E-16));
#924 = ORIENTED_EDGE('',*,*,#324,.T.);
#925 = ORIENTED_EDGE('',*,*,#888,.T.);
#926 = PLANE('',#927);
#927 = AXIS2_PLACEMENT_3D('',#928,#929,#930);
#928 = CARTESIAN_POINT('',(-71.5,23.009507468393,-29.54275399106));
#929 = DIRECTION('',(8.968787626091E-16,-0.999135684692,
    4.156781899406E-02));
#930 = DIRECTION('',(3.320696275367E-16,4.156781899406E-02,
    0.999135684692));
#931 = ADVANCED_FACE('',(#932),#951,.F.);
#932 = FACE_BOUND('',#933,.F.);
#933 = EDGE_LOOP('',(#934,#935,#943,#950));
#934 = ORIENTED_EDGE('',*,*,#350,.F.);
#935 = ORIENTED_EDGE('',*,*,#936,.F.);
#936 = EDGE_CURVE('',#937,#351,#939,.T.);
#937 = VERTEX_POINT('',#938);
#938 = CARTESIAN_POINT('',(-71.5,34.,-25.));
#939 = LINE('',#940,#941);
#940 = CARTESIAN_POINT('',(-72.5,34.,-25.));
#941 = VECTOR('',#942,1.);
#942 = DIRECTION('',(1.,0.,0.));
#943 = ORIENTED_EDGE('',*,*,#944,.T.);
#944 = EDGE_CURVE('',#937,#937,#945,.T.);
#945 = CIRCLE('',#946,5.);
#946 = AXIS2_PLACEMENT_3D('',#947,#948,#949);
#947 = CARTESIAN_POINT('',(-71.5,34.,-30.));
#948 = DIRECTION('',(1.,0.,0.));
#949 = DIRECTION('',(-0.,0.,1.));
#950 = ORIENTED_EDGE('',*,*,#936,.T.);
#951 = CYLINDRICAL_SURFACE('',#952,5.);
#952 = AXIS2_PLACEMENT_3D('',#953,#954,#955);
#953 = CARTESIAN_POINT('',(-72.5,34.,-30.));
#954 = DIRECTION('',(1.,0.,0.));
#955 = DIRECTION('',(-0.,0.,1.));
#956 = ADVANCED_FACE('',(#957),#983,.T.);
#957 = FACE_BOUND('',#958,.T.);
#958 = EDGE_LOOP('',(#959,#960,#968,#977));
#959 = ORIENTED_EDGE('',*,*,#361,.F.);
#960 = ORIENTED_EDGE('',*,*,#961,.F.);
#961 = EDGE_CURVE('',#962,#362,#964,.T.);
#962 = VERTEX_POINT('',#963);
#963 = CARTESIAN_POINT('',(-71.5,26.829043697256,-47.59481132902));
#964 = LINE('',#965,#966);
#965 = CARTESIAN_POINT('',(-71.5,26.829043697255,-47.59481132902));
#966 = VECTOR('',#967,1.);
#967 = DIRECTION('',(1.,0.,0.));
#968 = ORIENTED_EDGE('',*,*,#969,.T.);
#969 = EDGE_CURVE('',#962,#970,#972,.T.);
#970 = VERTEX_POINT('',#971);
#971 = CARTESIAN_POINT('',(-71.5,35.201289238191,-48.96198576537));
#972 = CIRCLE('',#973,19.);
#973 = AXIS2_PLACEMENT_3D('',#974,#975,#976);
#974 = CARTESIAN_POINT('',(-71.5,34.,-30.));
#975 = DIRECTION('',(1.,0.,0.));
#976 = DIRECTION('',(-0.,0.,1.));
#977 = ORIENTED_EDGE('',*,*,#978,.T.);
#978 = EDGE_CURVE('',#970,#364,#979,.T.);
#979 = LINE('',#980,#981);
#980 = CARTESIAN_POINT('',(-71.5,35.201289238192,-48.96198576537));
#981 = VECTOR('',#982,1.);
#982 = DIRECTION('',(1.,0.,0.));
#983 = CYLINDRICAL_SURFACE('',#984,19.);
#984 = AXIS2_PLACEMENT_3D('',#985,#986,#987);
#985 = CARTESIAN_POINT('',(-71.5,34.,-30.));
#986 = DIRECTION('',(1.,0.,0.));
#987 = DIRECTION('',(-0.,0.,1.));
#988 = ADVANCED_FACE('',(#989),#1007,.T.);
#989 = FACE_BOUND('',#990,.T.);
#990 = EDGE_LOOP('',(#991,#992,#1000,#1006));
#991 = ORIENTED_EDGE('',*,*,#978,.F.);
#992 = ORIENTED_EDGE('',*,*,#993,.T.);
#993 = EDGE_CURVE('',#970,#994,#996,.T.);
#994 = VERTEX_POINT('',#995);
#995 = CARTESIAN_POINT('',(-71.5,30.870108138563,-54.64282650619));
#996 = LINE('',#997,#998);
#997 = CARTESIAN_POINT('',(-71.5,43.902256740839,-37.54966900082));
#998 = VECTOR('',#999,1.);
#999 = DIRECTION('',(2.41447939057E-16,-0.606301940412,-0.79523452959));
#1000 = ORIENTED_EDGE('',*,*,#1001,.T.);
#1001 = EDGE_CURVE('',#994,#373,#1002,.T.);
#1002 = LINE('',#1003,#1004);
#1003 = CARTESIAN_POINT('',(-71.5,30.870108138563,-54.64282650619));
#1004 = VECTOR('',#1005,1.);
#1005 = DIRECTION('',(1.,8.823001663939E-16,-3.690639087379E-16));
#1006 = ORIENTED_EDGE('',*,*,#372,.F.);
#1007 = PLANE('',#1008);
#1008 = AXIS2_PLACEMENT_3D('',#1009,#1010,#1011);
#1009 = CARTESIAN_POINT('',(-71.5,43.902256740839,-37.54966900082));
#1010 = DIRECTION('',(9.253997217834E-16,-0.79523452959,0.606301940412)
  );
#1011 = DIRECTION('',(-2.41447939057E-16,0.606301940412,0.79523452959));
#1012 = ADVANCED_FACE('',(#1013),#1032,.F.);
#1013 = FACE_BOUND('',#1014,.F.);
#1014 = EDGE_LOOP('',(#1015,#1016,#1017,#1025));
#1015 = ORIENTED_EDGE('',*,*,#1001,.T.);
#1016 = ORIENTED_EDGE('',*,*,#380,.T.);
#1017 = ORIENTED_EDGE('',*,*,#1018,.T.);
#1018 = EDGE_CURVE('',#381,#1019,#1021,.T.);
#1019 = VERTEX_POINT('',#1020);
#1020 = CARTESIAN_POINT('',(-71.5,29.128076452462,-54.35835549099));
#1021 = LINE('',#1022,#1023);
#1022 = CARTESIAN_POINT('',(-71.5,29.128076452462,-54.35835549099));
#1023 = VECTOR('',#1024,1.);
#1024 = DIRECTION('',(-1.,-8.823001663939E-16,3.690639087379E-16));
#1025 = ORIENTED_EDGE('',*,*,#1026,.T.);
#1026 = EDGE_CURVE('',#1019,#994,#1027,.T.);
#1027 = CIRCLE('',#1028,1.);
#1028 = AXIS2_PLACEMENT_3D('',#1029,#1030,#1031);
#1029 = CARTESIAN_POINT('',(-71.5,30.074873608973,-54.03652456577));
#1030 = DIRECTION('',(1.,8.823001663939E-16,-3.690639087379E-16));
#1031 = DIRECTION('',(-9.302461748244E-16,0.986927683728,-0.161163727594
    ));
#1032 = CYLINDRICAL_SURFACE('',#1033,1.);
#1033 = AXIS2_PLACEMENT_3D('',#1034,#1035,#1036);
#1034 = CARTESIAN_POINT('',(-71.5,30.074873608973,-54.03652456577));
#1035 = DIRECTION('',(1.,8.823001663939E-16,-3.690639087379E-16));
#1036 = DIRECTION('',(9.302461748244E-16,-0.986927683728,0.161163727594)
  );
#1037 = ADVANCED_FACE('',(#1038),#1049,.F.);
#1038 = FACE_BOUND('',#1039,.F.);
#1039 = EDGE_LOOP('',(#1040,#1041,#1047,#1048));
#1040 = ORIENTED_EDGE('',*,*,#961,.F.);
#1041 = ORIENTED_EDGE('',*,*,#1042,.T.);
#1042 = EDGE_CURVE('',#962,#1019,#1043,.T.);
#1043 = LINE('',#1044,#1045);
#1044 = CARTESIAN_POINT('',(-71.5,22.210486118979,-34.00743721507));
#1045 = VECTOR('',#1046,1.);
#1046 = DIRECTION('',(-6.33380138229E-16,0.321830925212,-0.946797156511)
  );
#1047 = ORIENTED_EDGE('',*,*,#1018,.F.);
#1048 = ORIENTED_EDGE('',*,*,#389,.F.);
#1049 = PLANE('',#1050);
#1050 = AXIS2_PLACEMENT_3D('',#1051,#1052,#1053);
#1051 = CARTESIAN_POINT('',(-71.5,22.210486118979,-34.00743721507));
#1052 = DIRECTION('',(7.165831095195E-16,-0.946797156511,-0.321830925212
    ));
#1053 = DIRECTION('',(6.33380138229E-16,-0.321830925212,0.946797156511)
  );
#1054 = ADVANCED_FACE('',(#1055),#1074,.F.);
#1055 = FACE_BOUND('',#1056,.F.);
#1056 = EDGE_LOOP('',(#1057,#1058,#1066,#1073));
#1057 = ORIENTED_EDGE('',*,*,#397,.F.);
#1058 = ORIENTED_EDGE('',*,*,#1059,.F.);
#1059 = EDGE_CURVE('',#1060,#398,#1062,.T.);
#1060 = VERTEX_POINT('',#1061);
#1061 = CARTESIAN_POINT('',(-71.5,28.,-17.45769515458));
#1062 = LINE('',#1063,#1064);
#1063 = CARTESIAN_POINT('',(-72.5,28.,-17.45769515458));
#1064 = VECTOR('',#1065,1.);
#1065 = DIRECTION('',(1.,0.,0.));
#1066 = ORIENTED_EDGE('',*,*,#1067,.T.);
#1067 = EDGE_CURVE('',#1060,#1060,#1068,.T.);
#1068 = CIRCLE('',#1069,2.15);
#1069 = AXIS2_PLACEMENT_3D('',#1070,#1071,#1072);
#1070 = CARTESIAN_POINT('',(-71.5,28.,-19.60769515458));
#1071 = DIRECTION('',(1.,0.,0.));
#1072 = DIRECTION('',(-0.,0.,1.));
#1073 = ORIENTED_EDGE('',*,*,#1059,.T.);
#1074 = CYLINDRICAL_SURFACE('',#1075,2.15);
#1075 = AXIS2_PLACEMENT_3D('',#1076,#1077,#1078);
#1076 = CARTESIAN_POINT('',(-72.5,28.,-19.60769515458));
#1077 = DIRECTION('',(1.,0.,0.));
#1078 = DIRECTION('',(-0.,0.,1.));
#1079 = ADVANCED_FACE('',(#1080),#1099,.F.);
#1080 = FACE_BOUND('',#1081,.F.);
#1081 = EDGE_LOOP('',(#1082,#1083,#1091,#1098));
#1082 = ORIENTED_EDGE('',*,*,#408,.F.);
#1083 = ORIENTED_EDGE('',*,*,#1084,.F.);
#1084 = EDGE_CURVE('',#1085,#409,#1087,.T.);
#1085 = VERTEX_POINT('',#1086);
#1086 = CARTESIAN_POINT('',(-71.5,40.,-17.45769515458));
#1087 = LINE('',#1088,#1089);
#1088 = CARTESIAN_POINT('',(-72.5,40.,-17.45769515458));
#1089 = VECTOR('',#1090,1.);
#1090 = DIRECTION('',(1.,0.,0.));
#1091 = ORIENTED_EDGE('',*,*,#1092,.T.);
#1092 = EDGE_CURVE('',#1085,#1085,#1093,.T.);
#1093 = CIRCLE('',#1094,2.15);
#1094 = AXIS2_PLACEMENT_3D('',#1095,#1096,#1097);
#1095 = CARTESIAN_POINT('',(-71.5,40.,-19.60769515458));
#1096 = DIRECTION('',(1.,0.,0.));
#1097 = DIRECTION('',(-0.,0.,1.));
#1098 = ORIENTED_EDGE('',*,*,#1084,.T.);
#1099 = CYLINDRICAL_SURFACE('',#1100,2.15);
#1100 = AXIS2_PLACEMENT_3D('',#1101,#1102,#1103);
#1101 = CARTESIAN_POINT('',(-72.5,40.,-19.60769515458));
#1102 = DIRECTION('',(1.,0.,0.));
#1103 = DIRECTION('',(-0.,0.,1.));
#1104 = ADVANCED_FACE('',(#1105),#1144,.F.);
#1105 = FACE_BOUND('',#1106,.F.);
#1106 = EDGE_LOOP('',(#1107,#1108,#1116,#1125,#1134,#1141,#1142,#1143));
#1107 = ORIENTED_EDGE('',*,*,#419,.F.);
#1108 = ORIENTED_EDGE('',*,*,#1109,.F.);
#1109 = EDGE_CURVE('',#1110,#420,#1112,.T.);
#1110 = VERTEX_POINT('',#1111);
#1111 = CARTESIAN_POINT('',(-71.5,46.,-27.85));
#1112 = LINE('',#1113,#1114);
#1113 = CARTESIAN_POINT('',(-72.5,46.,-27.85));
#1114 = VECTOR('',#1115,1.);
#1115 = DIRECTION('',(1.,0.,0.));
#1116 = ORIENTED_EDGE('',*,*,#1117,.T.);
#1117 = EDGE_CURVE('',#1110,#1118,#1120,.T.);
#1118 = VERTEX_POINT('',#1119);
#1119 = CARTESIAN_POINT('',(-71.5,44.344944336642,-31.37233040889));
#1120 = CIRCLE('',#1121,2.15);
#1121 = AXIS2_PLACEMENT_3D('',#1122,#1123,#1124);
#1122 = CARTESIAN_POINT('',(-71.5,46.,-30.));
#1123 = DIRECTION('',(1.,0.,0.));
#1124 = DIRECTION('',(-0.,0.,1.));
#1125 = ORIENTED_EDGE('',*,*,#1126,.T.);
#1126 = EDGE_CURVE('',#1118,#1127,#1129,.T.);
#1127 = VERTEX_POINT('',#1128);
#1128 = CARTESIAN_POINT('',(-71.5,47.412250368089,-31.62112581184));
#1129 = CIRCLE('',#1130,2.15);
#1130 = AXIS2_PLACEMENT_3D('',#1131,#1132,#1133);
#1131 = CARTESIAN_POINT('',(-71.5,46.,-30.));
#1132 = DIRECTION('',(1.,0.,0.));
#1133 = DIRECTION('',(-0.,0.,1.));
#1134 = ORIENTED_EDGE('',*,*,#1135,.T.);
#1135 = EDGE_CURVE('',#1127,#1110,#1136,.T.);
#1136 = CIRCLE('',#1137,2.15);
#1137 = AXIS2_PLACEMENT_3D('',#1138,#1139,#1140);
#1138 = CARTESIAN_POINT('',(-71.5,46.,-30.));
#1139 = DIRECTION('',(1.,0.,0.));
#1140 = DIRECTION('',(-0.,0.,1.));
#1141 = ORIENTED_EDGE('',*,*,#1109,.T.);
#1142 = ORIENTED_EDGE('',*,*,#430,.F.);
#1143 = ORIENTED_EDGE('',*,*,#439,.F.);
#1144 = CYLINDRICAL_SURFACE('',#1145,2.15);
#1145 = AXIS2_PLACEMENT_3D('',#1146,#1147,#1148);
#1146 = CARTESIAN_POINT('',(-72.5,46.,-30.));
#1147 = DIRECTION('',(1.,0.,0.));
#1148 = DIRECTION('',(-0.,0.,1.));
#1149 = ADVANCED_FACE('',(#1150),#1189,.F.);
#1150 = FACE_BOUND('',#1151,.F.);
#1151 = EDGE_LOOP('',(#1152,#1153,#1161,#1170,#1179,#1186,#1187,#1188));
#1152 = ORIENTED_EDGE('',*,*,#459,.F.);
#1153 = ORIENTED_EDGE('',*,*,#1154,.F.);
#1154 = EDGE_CURVE('',#1155,#460,#1157,.T.);
#1155 = VERTEX_POINT('',#1156);
#1156 = CARTESIAN_POINT('',(-71.5,22.,-27.85));
#1157 = LINE('',#1158,#1159);
#1158 = CARTESIAN_POINT('',(-72.5,22.,-27.85));
#1159 = VECTOR('',#1160,1.);
#1160 = DIRECTION('',(1.,0.,0.));
#1161 = ORIENTED_EDGE('',*,*,#1162,.T.);
#1162 = EDGE_CURVE('',#1155,#1163,#1165,.T.);
#1163 = VERTEX_POINT('',#1164);
#1164 = CARTESIAN_POINT('',(-71.5,20.587749631911,-28.37887418815));
#1165 = CIRCLE('',#1166,2.15);
#1166 = AXIS2_PLACEMENT_3D('',#1167,#1168,#1169);
#1167 = CARTESIAN_POINT('',(-71.5,22.,-30.));
#1168 = DIRECTION('',(1.,0.,0.));
#1169 = DIRECTION('',(-0.,0.,1.));
#1170 = ORIENTED_EDGE('',*,*,#1171,.T.);
#1171 = EDGE_CURVE('',#1163,#1172,#1174,.T.);
#1172 = VERTEX_POINT('',#1173);
#1173 = CARTESIAN_POINT('',(-71.5,23.655055663358,-28.6276695911));
#1174 = CIRCLE('',#1175,2.15);
#1175 = AXIS2_PLACEMENT_3D('',#1176,#1177,#1178);
#1176 = CARTESIAN_POINT('',(-71.5,22.,-30.));
#1177 = DIRECTION('',(1.,0.,0.));
#1178 = DIRECTION('',(-0.,0.,1.));
#1179 = ORIENTED_EDGE('',*,*,#1180,.T.);
#1180 = EDGE_CURVE('',#1172,#1155,#1181,.T.);
#1181 = CIRCLE('',#1182,2.15);
#1182 = AXIS2_PLACEMENT_3D('',#1183,#1184,#1185);
#1183 = CARTESIAN_POINT('',(-71.5,22.,-30.));
#1184 = DIRECTION('',(1.,0.,0.));
#1185 = DIRECTION('',(-0.,0.,1.));
#1186 = ORIENTED_EDGE('',*,*,#1154,.T.);
#1187 = ORIENTED_EDGE('',*,*,#468,.F.);
#1188 = ORIENTED_EDGE('',*,*,#448,.F.);
#1189 = CYLINDRICAL_SURFACE('',#1190,2.15);
#1190 = AXIS2_PLACEMENT_3D('',#1191,#1192,#1193);
#1191 = CARTESIAN_POINT('',(-72.5,22.,-30.));
#1192 = DIRECTION('',(1.,0.,0.));
#1193 = DIRECTION('',(-0.,0.,1.));
#1194 = ADVANCED_FACE('',(#1195),#1214,.F.);
#1195 = FACE_BOUND('',#1196,.F.);
#1196 = EDGE_LOOP('',(#1197,#1198,#1206,#1213));
#1197 = ORIENTED_EDGE('',*,*,#477,.F.);
#1198 = ORIENTED_EDGE('',*,*,#1199,.F.);
#1199 = EDGE_CURVE('',#1200,#478,#1202,.T.);
#1200 = VERTEX_POINT('',#1201);
#1201 = CARTESIAN_POINT('',(-71.5,28.,-38.24230484541));
#1202 = LINE('',#1203,#1204);
#1203 = CARTESIAN_POINT('',(-72.5,28.,-38.24230484541));
#1204 = VECTOR('',#1205,1.);
#1205 = DIRECTION('',(1.,0.,0.));
#1206 = ORIENTED_EDGE('',*,*,#1207,.T.);
#1207 = EDGE_CURVE('',#1200,#1200,#1208,.T.);
#1208 = CIRCLE('',#1209,2.15);
#1209 = AXIS2_PLACEMENT_3D('',#1210,#1211,#1212);
#1210 = CARTESIAN_POINT('',(-71.5,28.,-40.39230484541));
#1211 = DIRECTION('',(1.,0.,0.));
#1212 = DIRECTION('',(-0.,0.,1.));
#1213 = ORIENTED_EDGE('',*,*,#1199,.T.);
#1214 = CYLINDRICAL_SURFACE('',#1215,2.15);
#1215 = AXIS2_PLACEMENT_3D('',#1216,#1217,#1218);
#1216 = CARTESIAN_POINT('',(-72.5,28.,-40.39230484541));
#1217 = DIRECTION('',(1.,0.,0.));
#1218 = DIRECTION('',(-0.,0.,1.));
#1219 = ADVANCED_FACE('',(#1220),#1239,.F.);
#1220 = FACE_BOUND('',#1221,.F.);
#1221 = EDGE_LOOP('',(#1222,#1223,#1231,#1238));
#1222 = ORIENTED_EDGE('',*,*,#488,.F.);
#1223 = ORIENTED_EDGE('',*,*,#1224,.F.);
#1224 = EDGE_CURVE('',#1225,#489,#1227,.T.);
#1225 = VERTEX_POINT('',#1226);
#1226 = CARTESIAN_POINT('',(-71.5,40.,-38.24230484541));
#1227 = LINE('',#1228,#1229);
#1228 = CARTESIAN_POINT('',(-72.5,40.,-38.24230484541));
#1229 = VECTOR('',#1230,1.);
#1230 = DIRECTION('',(1.,0.,0.));
#1231 = ORIENTED_EDGE('',*,*,#1232,.T.);
#1232 = EDGE_CURVE('',#1225,#1225,#1233,.T.);
#1233 = CIRCLE('',#1234,2.15);
#1234 = AXIS2_PLACEMENT_3D('',#1235,#1236,#1237);
#1235 = CARTESIAN_POINT('',(-71.5,40.,-40.39230484541));
#1236 = DIRECTION('',(1.,0.,0.));
#1237 = DIRECTION('',(-0.,0.,1.));
#1238 = ORIENTED_EDGE('',*,*,#1224,.T.);
#1239 = CYLINDRICAL_SURFACE('',#1240,2.15);
#1240 = AXIS2_PLACEMENT_3D('',#1241,#1242,#1243);
#1241 = CARTESIAN_POINT('',(-72.5,40.,-40.39230484541));
#1242 = DIRECTION('',(1.,0.,0.));
#1243 = DIRECTION('',(-0.,0.,1.));
#1244 = ADVANCED_FACE('',(#1245),#1284,.F.);
#1245 = FACE_BOUND('',#1246,.F.);
#1246 = EDGE_LOOP('',(#1247,#1248,#1256,#1265,#1274,#1281,#1282,#1283));
#1247 = ORIENTED_EDGE('',*,*,#499,.F.);
#1248 = ORIENTED_EDGE('',*,*,#1249,.F.);
#1249 = EDGE_CURVE('',#1250,#500,#1252,.T.);
#1250 = VERTEX_POINT('',#1251);
#1251 = CARTESIAN_POINT('',(-71.5,26.335675176508,-23.475));
#1252 = LINE('',#1253,#1254);
#1253 = CARTESIAN_POINT('',(-72.5,26.335675176508,-23.475));
#1254 = VECTOR('',#1255,1.);
#1255 = DIRECTION('',(1.,0.,0.));
#1256 = ORIENTED_EDGE('',*,*,#1257,.T.);
#1257 = EDGE_CURVE('',#1250,#1258,#1260,.T.);
#1258 = VERTEX_POINT('',#1259);
#1259 = CARTESIAN_POINT('',(-71.5,26.345310443026,-27.67497789551));
#1260 = CIRCLE('',#1261,2.1);
#1261 = AXIS2_PLACEMENT_3D('',#1262,#1263,#1264);
#1262 = CARTESIAN_POINT('',(-71.5,26.335675176508,-25.575));
#1263 = DIRECTION('',(1.,0.,0.));
#1264 = DIRECTION('',(-0.,0.,1.));
#1265 = ORIENTED_EDGE('',*,*,#1266,.T.);
#1266 = EDGE_CURVE('',#1258,#1267,#1269,.T.);
#1267 = VERTEX_POINT('',#1268);
#1268 = CARTESIAN_POINT('',(-71.5,28.159127014666,-24.53335543782));
#1269 = CIRCLE('',#1270,2.1);
#1270 = AXIS2_PLACEMENT_3D('',#1271,#1272,#1273);
#1271 = CARTESIAN_POINT('',(-71.5,26.335675176508,-25.575));
#1272 = DIRECTION('',(1.,0.,0.));
#1273 = DIRECTION('',(-0.,0.,1.));
#1274 = ORIENTED_EDGE('',*,*,#1275,.T.);
#1275 = EDGE_CURVE('',#1267,#1250,#1276,.T.);
#1276 = CIRCLE('',#1277,2.1);
#1277 = AXIS2_PLACEMENT_3D('',#1278,#1279,#1280);
#1278 = CARTESIAN_POINT('',(-71.5,26.335675176508,-25.575));
#1279 = DIRECTION('',(1.,0.,0.));
#1280 = DIRECTION('',(-0.,0.,1.));
#1281 = ORIENTED_EDGE('',*,*,#1249,.T.);
#1282 = ORIENTED_EDGE('',*,*,#510,.F.);
#1283 = ORIENTED_EDGE('',*,*,#519,.F.);
#1284 = CYLINDRICAL_SURFACE('',#1285,2.1);
#1285 = AXIS2_PLACEMENT_3D('',#1286,#1287,#1288);
#1286 = CARTESIAN_POINT('',(-72.5,26.335675176508,-25.575));
#1287 = DIRECTION('',(1.,0.,0.));
#1288 = DIRECTION('',(-0.,0.,1.));
#1289 = ADVANCED_FACE('',(#1290),#1329,.F.);
#1290 = FACE_BOUND('',#1291,.F.);
#1291 = EDGE_LOOP('',(#1292,#1293,#1301,#1310,#1319,#1326,#1327,#1328));
#1292 = ORIENTED_EDGE('',*,*,#528,.F.);
#1293 = ORIENTED_EDGE('',*,*,#1294,.F.);
#1294 = EDGE_CURVE('',#1295,#529,#1297,.T.);
#1295 = VERTEX_POINT('',#1296);
#1296 = CARTESIAN_POINT('',(-71.5,41.664324823492,-23.475));
#1297 = LINE('',#1298,#1299);
#1298 = CARTESIAN_POINT('',(-72.5,41.664324823492,-23.475));
#1299 = VECTOR('',#1300,1.);
#1300 = DIRECTION('',(1.,0.,0.));
#1301 = ORIENTED_EDGE('',*,*,#1302,.T.);
#1302 = EDGE_CURVE('',#1295,#1303,#1305,.T.);
#1303 = VERTEX_POINT('',#1304);
#1304 = CARTESIAN_POINT('',(-71.5,39.840872985334,-24.53335543782));
#1305 = CIRCLE('',#1306,2.1);
#1306 = AXIS2_PLACEMENT_3D('',#1307,#1308,#1309);
#1307 = CARTESIAN_POINT('',(-71.5,41.664324823492,-25.575));
#1308 = DIRECTION('',(1.,0.,0.));
#1309 = DIRECTION('',(-0.,0.,1.));
#1310 = ORIENTED_EDGE('',*,*,#1311,.T.);
#1311 = EDGE_CURVE('',#1303,#1312,#1314,.T.);
#1312 = VERTEX_POINT('',#1313);
#1313 = CARTESIAN_POINT('',(-71.5,41.654689556974,-27.67497789551));
#1314 = CIRCLE('',#1315,2.1);
#1315 = AXIS2_PLACEMENT_3D('',#1316,#1317,#1318);
#1316 = CARTESIAN_POINT('',(-71.5,41.664324823492,-25.575));
#1317 = DIRECTION('',(1.,0.,0.));
#1318 = DIRECTION('',(-0.,0.,1.));
#1319 = ORIENTED_EDGE('',*,*,#1320,.T.);
#1320 = EDGE_CURVE('',#1312,#1295,#1321,.T.);
#1321 = CIRCLE('',#1322,2.1);
#1322 = AXIS2_PLACEMENT_3D('',#1323,#1324,#1325);
#1323 = CARTESIAN_POINT('',(-71.5,41.664324823492,-25.575));
#1324 = DIRECTION('',(1.,0.,0.));
#1325 = DIRECTION('',(-0.,0.,1.));
#1326 = ORIENTED_EDGE('',*,*,#1294,.T.);
#1327 = ORIENTED_EDGE('',*,*,#539,.F.);
#1328 = ORIENTED_EDGE('',*,*,#548,.F.);
#1329 = CYLINDRICAL_SURFACE('',#1330,2.1);
#1330 = AXIS2_PLACEMENT_3D('',#1331,#1332,#1333);
#1331 = CARTESIAN_POINT('',(-72.5,41.664324823492,-25.575));
#1332 = DIRECTION('',(1.,0.,0.));
#1333 = DIRECTION('',(-0.,0.,1.));
#1334 = ADVANCED_FACE('',(#1335),#1394,.F.);
#1335 = FACE_BOUND('',#1336,.F.);
#1336 = EDGE_LOOP('',(#1337,#1338,#1346,#1355,#1364,#1373,#1382,#1389,
    #1390,#1391,#1392,#1393));
#1337 = ORIENTED_EDGE('',*,*,#586,.F.);
#1338 = ORIENTED_EDGE('',*,*,#1339,.F.);
#1339 = EDGE_CURVE('',#1340,#587,#1342,.T.);
#1340 = VERTEX_POINT('',#1341);
#1341 = CARTESIAN_POINT('',(-71.5,34.,-36.75));
#1342 = LINE('',#1343,#1344);
#1343 = CARTESIAN_POINT('',(-72.5,34.,-36.75));
#1344 = VECTOR('',#1345,1.);
#1345 = DIRECTION('',(1.,0.,0.));
#1346 = ORIENTED_EDGE('',*,*,#1347,.T.);
#1347 = EDGE_CURVE('',#1340,#1348,#1350,.T.);
#1348 = VERTEX_POINT('',#1349);
#1349 = CARTESIAN_POINT('',(-71.5,32.18618342836,-37.79166666666));
#1350 = CIRCLE('',#1351,2.1);
#1351 = AXIS2_PLACEMENT_3D('',#1352,#1353,#1354);
#1352 = CARTESIAN_POINT('',(-71.5,34.,-38.85));
#1353 = DIRECTION('',(1.,0.,0.));
#1354 = DIRECTION('',(-0.,0.,1.));
#1355 = ORIENTED_EDGE('',*,*,#1356,.T.);
#1356 = EDGE_CURVE('',#1348,#1357,#1359,.T.);
#1357 = VERTEX_POINT('',#1358);
#1358 = CARTESIAN_POINT('',(-71.5,32.478227683217,-40.29713821588));
#1359 = CIRCLE('',#1360,2.1);
#1360 = AXIS2_PLACEMENT_3D('',#1361,#1362,#1363);
#1361 = CARTESIAN_POINT('',(-71.5,34.,-38.85));
#1362 = DIRECTION('',(1.,0.,0.));
#1363 = DIRECTION('',(-0.,0.,1.));
#1364 = ORIENTED_EDGE('',*,*,#1365,.T.);
#1365 = EDGE_CURVE('',#1357,#1366,#1368,.T.);
#1366 = VERTEX_POINT('',#1367);
#1367 = CARTESIAN_POINT('',(-71.5,33.306067460061,-40.83203371061));
#1368 = CIRCLE('',#1369,2.1);
#1369 = AXIS2_PLACEMENT_3D('',#1370,#1371,#1372);
#1370 = CARTESIAN_POINT('',(-71.5,34.,-38.85));
#1371 = DIRECTION('',(1.,0.,0.));
#1372 = DIRECTION('',(-0.,0.,1.));
#1373 = ORIENTED_EDGE('',*,*,#1374,.T.);
#1374 = EDGE_CURVE('',#1366,#1375,#1377,.T.);
#1375 = VERTEX_POINT('',#1376);
#1376 = CARTESIAN_POINT('',(-71.5,35.81381657164,-37.79166666666));
#1377 = CIRCLE('',#1378,2.1);
#1378 = AXIS2_PLACEMENT_3D('',#1379,#1380,#1381);
#1379 = CARTESIAN_POINT('',(-71.5,34.,-38.85));
#1380 = DIRECTION('',(1.,0.,0.));
#1381 = DIRECTION('',(-0.,0.,1.));
#1382 = ORIENTED_EDGE('',*,*,#1383,.T.);
#1383 = EDGE_CURVE('',#1375,#1340,#1384,.T.);
#1384 = CIRCLE('',#1385,2.1);
#1385 = AXIS2_PLACEMENT_3D('',#1386,#1387,#1388);
#1386 = CARTESIAN_POINT('',(-71.5,34.,-38.85));
#1387 = DIRECTION('',(1.,0.,0.));
#1388 = DIRECTION('',(-0.,0.,1.));
#1389 = ORIENTED_EDGE('',*,*,#1339,.T.);
#1390 = ORIENTED_EDGE('',*,*,#595,.F.);
#1391 = ORIENTED_EDGE('',*,*,#557,.F.);
#1392 = ORIENTED_EDGE('',*,*,#568,.F.);
#1393 = ORIENTED_EDGE('',*,*,#577,.F.);
#1394 = CYLINDRICAL_SURFACE('',#1395,2.1);
#1395 = AXIS2_PLACEMENT_3D('',#1396,#1397,#1398);
#1396 = CARTESIAN_POINT('',(-72.5,34.,-38.85));
#1397 = DIRECTION('',(1.,0.,0.));
#1398 = DIRECTION('',(-0.,0.,1.));
#1399 = ADVANCED_FACE('',(#1400),#1425,.F.);
#1400 = FACE_BOUND('',#1401,.T.);
#1401 = EDGE_LOOP('',(#1402,#1412,#1418,#1419));
#1402 = ORIENTED_EDGE('',*,*,#1403,.F.);
#1403 = EDGE_CURVE('',#1404,#1406,#1408,.T.);
#1404 = VERTEX_POINT('',#1405);
#1405 = CARTESIAN_POINT('',(-71.5,27.22316268123,-66.02358664446));
#1406 = VERTEX_POINT('',#1407);
#1407 = CARTESIAN_POINT('',(-71.5,25.895037623624,-67.76557497573));
#1408 = LINE('',#1409,#1410);
#1409 = CARTESIAN_POINT('',(-71.5,47.083194859199,-39.97487676247));
#1410 = VECTOR('',#1411,1.);
#1411 = DIRECTION('',(2.41447939057E-16,-0.606301940412,-0.79523452959)
  );
#1412 = ORIENTED_EDGE('',*,*,#1413,.T.);
#1413 = EDGE_CURVE('',#1404,#609,#1414,.T.);
#1414 = LINE('',#1415,#1416);
#1415 = CARTESIAN_POINT('',(-71.5,27.22316268123,-66.02358664446));
#1416 = VECTOR('',#1417,1.);
#1417 = DIRECTION('',(1.,8.823001663939E-16,-3.690639087379E-16));
#1418 = ORIENTED_EDGE('',*,*,#608,.T.);
#1419 = ORIENTED_EDGE('',*,*,#1420,.T.);
#1420 = EDGE_CURVE('',#611,#1406,#1421,.T.);
#1421 = LINE('',#1422,#1423);
#1422 = CARTESIAN_POINT('',(-71.5,25.895037623624,-67.76557497573));
#1423 = VECTOR('',#1424,1.);
#1424 = DIRECTION('',(-1.,-8.823001663939E-16,3.690639087379E-16));
#1425 = PLANE('',#1426);
#1426 = AXIS2_PLACEMENT_3D('',#1427,#1428,#1429);
#1427 = CARTESIAN_POINT('',(-71.5,47.083194859199,-39.97487676247));
#1428 = DIRECTION('',(9.253997217834E-16,-0.79523452959,0.606301940412)
  );
#1429 = DIRECTION('',(-2.41447939057E-16,0.606301940412,0.79523452959));
#1430 = ADVANCED_FACE('',(#1431),#1450,.F.);
#1431 = FACE_BOUND('',#1432,.F.);
#1432 = EDGE_LOOP('',(#1433,#1434,#1435,#1443));
#1433 = ORIENTED_EDGE('',*,*,#1413,.T.);
#1434 = ORIENTED_EDGE('',*,*,#618,.T.);
#1435 = ORIENTED_EDGE('',*,*,#1436,.T.);
#1436 = EDGE_CURVE('',#619,#1437,#1439,.T.);
#1437 = VERTEX_POINT('',#1438);
#1438 = CARTESIAN_POINT('',(-71.5,28.96519436733,-66.30805765966));
#1439 = LINE('',#1440,#1441);
#1440 = CARTESIAN_POINT('',(-71.5,28.96519436733,-66.30805765966));
#1441 = VECTOR('',#1442,1.);
#1442 = DIRECTION('',(-1.,-8.823001663939E-16,3.690639087379E-16));
#1443 = ORIENTED_EDGE('',*,*,#1444,.T.);
#1444 = EDGE_CURVE('',#1437,#1404,#1445,.T.);
#1445 = CIRCLE('',#1446,1.);
#1446 = AXIS2_PLACEMENT_3D('',#1447,#1448,#1449);
#1447 = CARTESIAN_POINT('',(-71.5,28.018397210819,-66.62988858487));
#1448 = DIRECTION('',(1.,8.823001663939E-16,-3.690639087379E-16));
#1449 = DIRECTION('',(-9.302461748244E-16,0.986927683728,-0.161163727594
    ));
#1450 = CYLINDRICAL_SURFACE('',#1451,1.);
#1451 = AXIS2_PLACEMENT_3D('',#1452,#1453,#1454);
#1452 = CARTESIAN_POINT('',(-71.5,28.018397210819,-66.62988858487));
#1453 = DIRECTION('',(1.,8.823001663939E-16,-3.690639087379E-16));
#1454 = DIRECTION('',(9.302461748244E-16,-0.986927683728,0.161163727594)
  );
#1455 = ADVANCED_FACE('',(#1456),#1474,.T.);
#1456 = FACE_BOUND('',#1457,.T.);
#1457 = EDGE_LOOP('',(#1458,#1459,#1460,#1468));
#1458 = ORIENTED_EDGE('',*,*,#627,.F.);
#1459 = ORIENTED_EDGE('',*,*,#1436,.T.);
#1460 = ORIENTED_EDGE('',*,*,#1461,.T.);
#1461 = EDGE_CURVE('',#1437,#1462,#1464,.T.);
#1462 = VERTEX_POINT('',#1463);
#1463 = CARTESIAN_POINT('',(-71.5,29.670175974012,-68.38204908904));
#1464 = LINE('',#1465,#1466);
#1465 = CARTESIAN_POINT('',(-71.5,18.423297492935,-35.29476091592));
#1466 = VECTOR('',#1467,1.);
#1467 = DIRECTION('',(-6.33380138229E-16,0.321830925212,-0.946797156511)
  );
#1468 = ORIENTED_EDGE('',*,*,#1469,.T.);
#1469 = EDGE_CURVE('',#1462,#628,#1470,.T.);
#1470 = LINE('',#1471,#1472);
#1471 = CARTESIAN_POINT('',(-71.5,29.670175974012,-68.38204908904));
#1472 = VECTOR('',#1473,1.);
#1473 = DIRECTION('',(1.,8.823001663939E-16,-3.690639087379E-16));
#1474 = PLANE('',#1475);
#1475 = AXIS2_PLACEMENT_3D('',#1476,#1477,#1478);
#1476 = CARTESIAN_POINT('',(-71.5,18.423297492935,-35.29476091592));
#1477 = DIRECTION('',(7.165831095195E-16,-0.946797156511,-0.321830925212
    ));
#1478 = DIRECTION('',(6.33380138229E-16,-0.321830925212,0.946797156511)
  );
#1479 = ADVANCED_FACE('',(#1480),#1499,.F.);
#1480 = FACE_BOUND('',#1481,.F.);
#1481 = EDGE_LOOP('',(#1482,#1483,#1484,#1492));
#1482 = ORIENTED_EDGE('',*,*,#1469,.T.);
#1483 = ORIENTED_EDGE('',*,*,#635,.T.);
#1484 = ORIENTED_EDGE('',*,*,#1485,.T.);
#1485 = EDGE_CURVE('',#636,#1486,#1488,.T.);
#1486 = VERTEX_POINT('',#1487);
#1487 = CARTESIAN_POINT('',(-71.5,28.470509254118,-69.67138039354));
#1488 = LINE('',#1489,#1490);
#1489 = CARTESIAN_POINT('',(-71.5,28.470509254118,-69.67138039354));
#1490 = VECTOR('',#1491,1.);
#1491 = DIRECTION('',(-1.,-8.823001663939E-16,3.690639087379E-16));
#1492 = ORIENTED_EDGE('',*,*,#1493,.T.);
#1493 = EDGE_CURVE('',#1486,#1462,#1494,.T.);
#1494 = CIRCLE('',#1495,1.);
#1495 = AXIS2_PLACEMENT_3D('',#1496,#1497,#1498);
#1496 = CARTESIAN_POINT('',(-71.5,28.723378817501,-68.70388001425));
#1497 = DIRECTION('',(1.,8.823001663939E-16,-3.690639087379E-16));
#1498 = DIRECTION('',(-9.302461748244E-16,0.986927683728,-0.161163727594
    ));
#1499 = CYLINDRICAL_SURFACE('',#1500,1.);
#1500 = AXIS2_PLACEMENT_3D('',#1501,#1502,#1503);
#1501 = CARTESIAN_POINT('',(-71.5,28.723378817501,-68.70388001425));
#1502 = DIRECTION('',(1.,8.823001663939E-16,-3.690639087379E-16));
#1503 = DIRECTION('',(9.302461748244E-16,-0.986927683728,0.161163727594)
  );
#1504 = ADVANCED_FACE('',(#1505),#1524,.T.);
#1505 = FACE_BOUND('',#1506,.T.);
#1506 = EDGE_LOOP('',(#1507,#1516,#1522,#1523));
#1507 = ORIENTED_EDGE('',*,*,#1508,.F.);
#1508 = EDGE_CURVE('',#1509,#1486,#1511,.T.);
#1509 = VERTEX_POINT('',#1510);
#1510 = CARTESIAN_POINT('',(-71.5,26.622230468402,-69.36955939525));
#1511 = CIRCLE('',#1512,10.);
#1512 = AXIS2_PLACEMENT_3D('',#1513,#1514,#1515);
#1513 = CARTESIAN_POINT('',(-71.5,25.941813620283,-79.34638418637));
#1514 = DIRECTION('',(-1.,-8.823001663939E-16,3.690639087379E-16));
#1515 = DIRECTION('',(-9.302461748244E-16,0.986927683728,-0.161163727594
    ));
#1516 = ORIENTED_EDGE('',*,*,#1517,.T.);
#1517 = EDGE_CURVE('',#1509,#645,#1518,.T.);
#1518 = LINE('',#1519,#1520);
#1519 = CARTESIAN_POINT('',(-71.5,26.622230468402,-69.36955939525));
#1520 = VECTOR('',#1521,1.);
#1521 = DIRECTION('',(1.,8.823001663939E-16,-3.690639087379E-16));
#1522 = ORIENTED_EDGE('',*,*,#644,.T.);
#1523 = ORIENTED_EDGE('',*,*,#1485,.T.);
#1524 = CYLINDRICAL_SURFACE('',#1525,10.);
#1525 = AXIS2_PLACEMENT_3D('',#1526,#1527,#1528);
#1526 = CARTESIAN_POINT('',(-71.5,25.941813620283,-79.34638418637));
#1527 = DIRECTION('',(1.,8.823001663939E-16,-3.690639087379E-16));
#1528 = DIRECTION('',(9.302461748244E-16,-0.986927683728,0.161163727594)
  );
#1529 = ADVANCED_FACE('',(#1530,#1551,#1571,#1579,#1617,#1620,#1626,
    #1629,#1632,#1637,#1642,#1645,#1648,#1653,#1658,#1665),#1688,.T.);
#1530 = FACE_BOUND('',#1531,.T.);
#1531 = EDGE_LOOP('',(#1532,#1533,#1542,#1549,#1550));
#1532 = ORIENTED_EDGE('',*,*,#119,.F.);
#1533 = ORIENTED_EDGE('',*,*,#1534,.F.);
#1534 = EDGE_CURVE('',#1535,#112,#1537,.T.);
#1535 = VERTEX_POINT('',#1536);
#1536 = CARTESIAN_POINT('',(-71.5,34.,-11.));
#1537 = CIRCLE('',#1538,19.);
#1538 = AXIS2_PLACEMENT_3D('',#1539,#1540,#1541);
#1539 = CARTESIAN_POINT('',(-71.5,34.,-30.));
#1540 = DIRECTION('',(1.,0.,0.));
#1541 = DIRECTION('',(-0.,0.,1.));
#1542 = ORIENTED_EDGE('',*,*,#1543,.F.);
#1543 = EDGE_CURVE('',#183,#1535,#1544,.T.);
#1544 = CIRCLE('',#1545,19.);
#1545 = AXIS2_PLACEMENT_3D('',#1546,#1547,#1548);
#1546 = CARTESIAN_POINT('',(-71.5,34.,-30.));
#1547 = DIRECTION('',(1.,0.,0.));
#1548 = DIRECTION('',(-0.,0.,1.));
#1549 = ORIENTED_EDGE('',*,*,#190,.T.);
#1550 = ORIENTED_EDGE('',*,*,#151,.T.);
#1551 = FACE_BOUND('',#1552,.T.);
#1552 = EDGE_LOOP('',(#1553,#1564));
#1553 = ORIENTED_EDGE('',*,*,#1554,.F.);
#1554 = EDGE_CURVE('',#1555,#1557,#1559,.T.);
#1555 = VERTEX_POINT('',#1556);
#1556 = CARTESIAN_POINT('',(-71.5,18.934627065817,-78.20212172046));
#1557 = VERTEX_POINT('',#1558);
#1558 = CARTESIAN_POINT('',(-71.5,32.949000174749,-80.49064665229));
#1559 = CIRCLE('',#1560,7.1);
#1560 = AXIS2_PLACEMENT_3D('',#1561,#1562,#1563);
#1561 = CARTESIAN_POINT('',(-71.5,25.941813620283,-79.34638418637));
#1562 = DIRECTION('',(-1.,-8.823001663939E-16,3.690639087379E-16));
#1563 = DIRECTION('',(-9.302461748244E-16,0.986927683728,-0.161163727594
    ));
#1564 = ORIENTED_EDGE('',*,*,#1565,.F.);
#1565 = EDGE_CURVE('',#1557,#1555,#1566,.T.);
#1566 = CIRCLE('',#1567,7.1);
#1567 = AXIS2_PLACEMENT_3D('',#1568,#1569,#1570);
#1568 = CARTESIAN_POINT('',(-71.5,25.941813620283,-79.34638418637));
#1569 = DIRECTION('',(-1.,-8.823001663939E-16,3.690639087379E-16));
#1570 = DIRECTION('',(-9.302461748244E-16,0.986927683728,-0.161163727594
    ));
#1571 = FACE_BOUND('',#1572,.T.);
#1572 = EDGE_LOOP('',(#1573,#1574,#1575,#1576,#1577,#1578));
#1573 = ORIENTED_EDGE('',*,*,#760,.F.);
#1574 = ORIENTED_EDGE('',*,*,#718,.T.);
#1575 = ORIENTED_EDGE('',*,*,#686,.T.);
#1576 = ORIENTED_EDGE('',*,*,#743,.T.);
#1577 = ORIENTED_EDGE('',*,*,#782,.T.);
#1578 = ORIENTED_EDGE('',*,*,#809,.T.);
#1579 = FACE_BOUND('',#1580,.T.);
#1580 = EDGE_LOOP('',(#1581,#1582,#1591,#1598,#1599,#1608,#1615,#1616));
#1581 = ORIENTED_EDGE('',*,*,#864,.F.);
#1582 = ORIENTED_EDGE('',*,*,#1583,.T.);
#1583 = EDGE_CURVE('',#857,#1584,#1586,.T.);
#1584 = VERTEX_POINT('',#1585);
#1585 = CARTESIAN_POINT('',(-71.5,26.678769053954,-59.94653774977));
#1586 = CIRCLE('',#1587,1.);
#1587 = AXIS2_PLACEMENT_3D('',#1588,#1589,#1590);
#1588 = CARTESIAN_POINT('',(-71.5,25.691841370227,-59.78537402218));
#1589 = DIRECTION('',(1.,8.823001663939E-16,-3.690639087379E-16));
#1590 = DIRECTION('',(-9.302461748244E-16,0.986927683728,-0.161163727594
    ));
#1591 = ORIENTED_EDGE('',*,*,#1592,.T.);
#1592 = EDGE_CURVE('',#1584,#834,#1593,.T.);
#1593 = CIRCLE('',#1594,1.);
#1594 = AXIS2_PLACEMENT_3D('',#1595,#1596,#1597);
#1595 = CARTESIAN_POINT('',(-71.5,25.691841370227,-59.78537402218));
#1596 = DIRECTION('',(1.,8.823001663939E-16,-3.690639087379E-16));
#1597 = DIRECTION('',(-9.302461748244E-16,0.986927683728,-0.161163727594
    ));
#1598 = ORIENTED_EDGE('',*,*,#833,.F.);
#1599 = ORIENTED_EDGE('',*,*,#1600,.T.);
#1600 = EDGE_CURVE('',#826,#1601,#1603,.T.);
#1601 = VERTEX_POINT('',#1602);
#1602 = CARTESIAN_POINT('',(-71.5,22.08580244269,-51.91902448439));
#1603 = CIRCLE('',#1604,1.);
#1604 = AXIS2_PLACEMENT_3D('',#1605,#1606,#1607);
#1605 = CARTESIAN_POINT('',(-71.5,23.072730126418,-52.08018821199));
#1606 = DIRECTION('',(1.,8.823001663939E-16,-3.690639087379E-16));
#1607 = DIRECTION('',(-9.302461748244E-16,0.986927683728,-0.161163727594
    ));
#1608 = ORIENTED_EDGE('',*,*,#1609,.T.);
#1609 = EDGE_CURVE('',#1601,#912,#1610,.T.);
#1610 = CIRCLE('',#1611,1.);
#1611 = AXIS2_PLACEMENT_3D('',#1612,#1613,#1614);
#1612 = CARTESIAN_POINT('',(-71.5,23.072730126418,-52.08018821199));
#1613 = DIRECTION('',(1.,8.823001663939E-16,-3.690639087379E-16));
#1614 = DIRECTION('',(-9.302461748244E-16,0.986927683728,-0.161163727594
    ));
#1615 = ORIENTED_EDGE('',*,*,#911,.T.);
#1616 = ORIENTED_EDGE('',*,*,#896,.T.);
#1617 = FACE_BOUND('',#1618,.T.);
#1618 = EDGE_LOOP('',(#1619));
#1619 = ORIENTED_EDGE('',*,*,#944,.T.);
#1620 = FACE_BOUND('',#1621,.T.);
#1621 = EDGE_LOOP('',(#1622,#1623,#1624,#1625));
#1622 = ORIENTED_EDGE('',*,*,#969,.F.);
#1623 = ORIENTED_EDGE('',*,*,#1042,.T.);
#1624 = ORIENTED_EDGE('',*,*,#1026,.T.);
#1625 = ORIENTED_EDGE('',*,*,#993,.F.);
#1626 = FACE_BOUND('',#1627,.T.);
#1627 = EDGE_LOOP('',(#1628));
#1628 = ORIENTED_EDGE('',*,*,#1067,.T.);
#1629 = FACE_BOUND('',#1630,.T.);
#1630 = EDGE_LOOP('',(#1631));
#1631 = ORIENTED_EDGE('',*,*,#1092,.T.);
#1632 = FACE_BOUND('',#1633,.T.);
#1633 = EDGE_LOOP('',(#1634,#1635,#1636));
#1634 = ORIENTED_EDGE('',*,*,#1117,.T.);
#1635 = ORIENTED_EDGE('',*,*,#1126,.T.);
#1636 = ORIENTED_EDGE('',*,*,#1135,.T.);
#1637 = FACE_BOUND('',#1638,.T.);
#1638 = EDGE_LOOP('',(#1639,#1640,#1641));
#1639 = ORIENTED_EDGE('',*,*,#1171,.T.);
#1640 = ORIENTED_EDGE('',*,*,#1180,.T.);
#1641 = ORIENTED_EDGE('',*,*,#1162,.T.);
#1642 = FACE_BOUND('',#1643,.T.);
#1643 = EDGE_LOOP('',(#1644));
#1644 = ORIENTED_EDGE('',*,*,#1207,.T.);
#1645 = FACE_BOUND('',#1646,.T.);
#1646 = EDGE_LOOP('',(#1647));
#1647 = ORIENTED_EDGE('',*,*,#1232,.T.);
#1648 = FACE_BOUND('',#1649,.T.);
#1649 = EDGE_LOOP('',(#1650,#1651,#1652));
#1650 = ORIENTED_EDGE('',*,*,#1257,.T.);
#1651 = ORIENTED_EDGE('',*,*,#1266,.T.);
#1652 = ORIENTED_EDGE('',*,*,#1275,.T.);
#1653 = FACE_BOUND('',#1654,.T.);
#1654 = EDGE_LOOP('',(#1655,#1656,#1657));
#1655 = ORIENTED_EDGE('',*,*,#1302,.T.);
#1656 = ORIENTED_EDGE('',*,*,#1311,.T.);
#1657 = ORIENTED_EDGE('',*,*,#1320,.T.);
#1658 = FACE_BOUND('',#1659,.T.);
#1659 = EDGE_LOOP('',(#1660,#1661,#1662,#1663,#1664));
#1660 = ORIENTED_EDGE('',*,*,#1374,.T.);
#1661 = ORIENTED_EDGE('',*,*,#1383,.T.);
#1662 = ORIENTED_EDGE('',*,*,#1347,.T.);
#1663 = ORIENTED_EDGE('',*,*,#1356,.T.);
#1664 = ORIENTED_EDGE('',*,*,#1365,.T.);
#1665 = FACE_BOUND('',#1666,.T.);
#1666 = EDGE_LOOP('',(#1667,#1668,#1669,#1670,#1679,#1686,#1687));
#1667 = ORIENTED_EDGE('',*,*,#1461,.F.);
#1668 = ORIENTED_EDGE('',*,*,#1444,.T.);
#1669 = ORIENTED_EDGE('',*,*,#1403,.T.);
#1670 = ORIENTED_EDGE('',*,*,#1671,.T.);
#1671 = EDGE_CURVE('',#1406,#1672,#1674,.T.);
#1672 = VERTEX_POINT('',#1673);
#1673 = CARTESIAN_POINT('',(-71.5,25.703344469486,-68.21071318854));
#1674 = CIRCLE('',#1675,1.);
#1675 = AXIS2_PLACEMENT_3D('',#1676,#1677,#1678);
#1676 = CARTESIAN_POINT('',(-71.5,26.690272153214,-68.37187691614));
#1677 = DIRECTION('',(1.,8.823001663939E-16,-3.690639087379E-16));
#1678 = DIRECTION('',(-9.302461748244E-16,0.986927683728,-0.161163727594
    ));
#1679 = ORIENTED_EDGE('',*,*,#1680,.T.);
#1680 = EDGE_CURVE('',#1672,#1509,#1681,.T.);
#1681 = CIRCLE('',#1682,1.);
#1682 = AXIS2_PLACEMENT_3D('',#1683,#1684,#1685);
#1683 = CARTESIAN_POINT('',(-71.5,26.690272153214,-68.37187691614));
#1684 = DIRECTION('',(1.,8.823001663939E-16,-3.690639087379E-16));
#1685 = DIRECTION('',(-9.302461748244E-16,0.986927683728,-0.161163727594
    ));
#1686 = ORIENTED_EDGE('',*,*,#1508,.T.);
#1687 = ORIENTED_EDGE('',*,*,#1493,.T.);
#1688 = PLANE('',#1689);
#1689 = AXIS2_PLACEMENT_3D('',#1690,#1691,#1692);
#1690 = CARTESIAN_POINT('',(-71.5,30.93935331991,-48.36382456989));
#1691 = DIRECTION('',(-1.,-4.047709369073E-16,-0.));
#1692 = DIRECTION('',(4.047709369073E-16,-1.,0.));
#1693 = ADVANCED_FACE('',(#1694),#1702,.T.);
#1694 = FACE_BOUND('',#1695,.T.);
#1695 = EDGE_LOOP('',(#1696,#1697,#1698,#1699,#1700,#1701));
#1696 = ORIENTED_EDGE('',*,*,#1534,.T.);
#1697 = ORIENTED_EDGE('',*,*,#111,.T.);
#1698 = ORIENTED_EDGE('',*,*,#217,.F.);
#1699 = ORIENTED_EDGE('',*,*,#208,.F.);
#1700 = ORIENTED_EDGE('',*,*,#182,.F.);
#1701 = ORIENTED_EDGE('',*,*,#1543,.T.);
#1702 = CYLINDRICAL_SURFACE('',#1703,19.);
#1703 = AXIS2_PLACEMENT_3D('',#1704,#1705,#1706);
#1704 = CARTESIAN_POINT('',(-71.5,34.,-30.));
#1705 = DIRECTION('',(1.,0.,0.));
#1706 = DIRECTION('',(-0.,0.,1.));
#1707 = ADVANCED_FACE('',(#1708),#1716,.F.);
#1708 = FACE_BOUND('',#1709,.F.);
#1709 = EDGE_LOOP('',(#1710,#1711,#1712,#1713,#1714,#1715));
#1710 = ORIENTED_EDGE('',*,*,#919,.T.);
#1711 = ORIENTED_EDGE('',*,*,#332,.T.);
#1712 = ORIENTED_EDGE('',*,*,#341,.T.);
#1713 = ORIENTED_EDGE('',*,*,#825,.T.);
#1714 = ORIENTED_EDGE('',*,*,#1600,.T.);
#1715 = ORIENTED_EDGE('',*,*,#1609,.T.);
#1716 = CYLINDRICAL_SURFACE('',#1717,1.);
#1717 = AXIS2_PLACEMENT_3D('',#1718,#1719,#1720);
#1718 = CARTESIAN_POINT('',(-71.5,23.072730126418,-52.08018821199));
#1719 = DIRECTION('',(1.,8.823001663939E-16,-3.690639087379E-16));
#1720 = DIRECTION('',(9.302461748244E-16,-0.986927683728,0.161163727594)
  );
#1721 = ADVANCED_FACE('',(#1722),#1730,.F.);
#1722 = FACE_BOUND('',#1723,.F.);
#1723 = EDGE_LOOP('',(#1724,#1725,#1726,#1727,#1728,#1729));
#1724 = ORIENTED_EDGE('',*,*,#856,.T.);
#1725 = ORIENTED_EDGE('',*,*,#1583,.T.);
#1726 = ORIENTED_EDGE('',*,*,#1592,.T.);
#1727 = ORIENTED_EDGE('',*,*,#841,.T.);
#1728 = ORIENTED_EDGE('',*,*,#289,.T.);
#1729 = ORIENTED_EDGE('',*,*,#298,.T.);
#1730 = CYLINDRICAL_SURFACE('',#1731,1.);
#1731 = AXIS2_PLACEMENT_3D('',#1732,#1733,#1734);
#1732 = CARTESIAN_POINT('',(-71.5,25.691841370227,-59.78537402218));
#1733 = DIRECTION('',(-1.,-8.823001663939E-16,3.690639087379E-16));
#1734 = DIRECTION('',(-9.302461748244E-16,0.986927683728,-0.161163727594
    ));
#1735 = ADVANCED_FACE('',(#1736),#1744,.F.);
#1736 = FACE_BOUND('',#1737,.F.);
#1737 = EDGE_LOOP('',(#1738,#1739,#1740,#1741,#1742,#1743));
#1738 = ORIENTED_EDGE('',*,*,#1517,.T.);
#1739 = ORIENTED_EDGE('',*,*,#653,.T.);
#1740 = ORIENTED_EDGE('',*,*,#662,.T.);
#1741 = ORIENTED_EDGE('',*,*,#1420,.T.);
#1742 = ORIENTED_EDGE('',*,*,#1671,.T.);
#1743 = ORIENTED_EDGE('',*,*,#1680,.T.);
#1744 = CYLINDRICAL_SURFACE('',#1745,1.);
#1745 = AXIS2_PLACEMENT_3D('',#1746,#1747,#1748);
#1746 = CARTESIAN_POINT('',(-71.5,26.690272153214,-68.37187691614));
#1747 = DIRECTION('',(1.,8.823001663939E-16,-3.690639087379E-16));
#1748 = DIRECTION('',(9.302461748244E-16,-0.986927683728,0.161163727594)
  );
#1749 = ADVANCED_FACE('',(#1750),#1762,.F.);
#1750 = FACE_BOUND('',#1751,.F.);
#1751 = EDGE_LOOP('',(#1752,#1753,#1754,#1759,#1760,#1761));
#1752 = ORIENTED_EDGE('',*,*,#41,.T.);
#1753 = ORIENTED_EDGE('',*,*,#52,.T.);
#1754 = ORIENTED_EDGE('',*,*,#1755,.F.);
#1755 = EDGE_CURVE('',#1555,#42,#1756,.T.);
#1756 = B_SPLINE_CURVE_WITH_KNOTS('',1,(#1757,#1758),.UNSPECIFIED.,.F.,
  .F.,(2,2),(-1.42108547152E-14,2.),.PIECEWISE_BEZIER_KNOTS.);
#1757 = CARTESIAN_POINT('',(-71.5,18.934627065817,-78.20212172046));
#1758 = CARTESIAN_POINT('',(-69.5,18.934627065817,-78.20212172046));
#1759 = ORIENTED_EDGE('',*,*,#1565,.F.);
#1760 = ORIENTED_EDGE('',*,*,#1554,.F.);
#1761 = ORIENTED_EDGE('',*,*,#1755,.T.);
#1762 = CYLINDRICAL_SURFACE('',#1763,7.1);
#1763 = AXIS2_PLACEMENT_3D('',#1764,#1765,#1766);
#1764 = CARTESIAN_POINT('',(-71.5,25.941813620283,-79.34638418637));
#1765 = DIRECTION('',(1.,8.823001663939E-16,-3.690639087379E-16));
#1766 = DIRECTION('',(9.302461748244E-16,-0.986927683728,0.161163727594)
  );
#1767 = ( GEOMETRIC_REPRESENTATION_CONTEXT(3) 
GLOBAL_UNCERTAINTY_ASSIGNED_CONTEXT((#1771)) 
GLOBAL_UNIT_ASSIGNED_CONTEXT((#1768,#1769,#1770)) REPRESENTATION_CONTEXT
('Context #1','3D Context with UNIT and UNCERTAINTY') );
#1768 = ( LENGTH_UNIT() NAMED_UNIT(*) SI_UNIT(.MILLI.,.METRE.) );
#1769 = ( NAMED_UNIT(*) PLANE_ANGLE_UNIT() SI_UNIT($,.RADIAN.) );
#1770 = ( NAMED_UNIT(*) SI_UNIT($,.STERADIAN.) SOLID_ANGLE_UNIT() );
#1771 = UNCERTAINTY_MEASURE_WITH_UNIT(LENGTH_MEASURE(5.E-07),#1768,
  'distance_accuracy_value','confusion accuracy');
#1772 = PRODUCT_RELATED_PRODUCT_CATEGORY('part',$,(#7));
ENDSEC;
END-ISO-10303-21;
